<?xml version="1.0" encoding="UTF-8" standalone="no"?>
<svg
   xmlns:dc="http://purl.org/dc/elements/1.1/"
   xmlns:cc="http://creativecommons.org/ns#"
   xmlns:rdf="http://www.w3.org/1999/02/22-rdf-syntax-ns#"
   xmlns:svg="http://www.w3.org/2000/svg"
   xmlns="http://www.w3.org/2000/svg"
   xmlns:sodipodi="http://sodipodi.sourceforge.net/DTD/sodipodi-0.dtd"
   xmlns:inkscape="http://www.inkscape.org/namespaces/inkscape"
   inkscape:version="1.0 (4035a4fb49, 2020-05-01)"
   height="48"
   width="48"
   sodipodi:docname="github.svg"
   xml:space="preserve"
   viewBox="0 0 48 48"
   y="0px"
   x="0px"
   id="Layer_1"
   version="1.1"><metadata
   id="metadata319"><rdf:RDF><cc:Work
       rdf:about=""><dc:format>image/svg+xml</dc:format><dc:type
         rdf:resource="http://purl.org/dc/dcmitype/StillImage" /></cc:Work></rdf:RDF></metadata><defs
   id="defs317" /><sodipodi:namedview
   inkscape:current-layer="Layer_1"
   inkscape:window-maximized="1"
   inkscape:window-y="-8"
   inkscape:window-x="-8"
   inkscape:cy="276.6254"
   inkscape:cx="230.35548"
   inkscape:zoom="1.2117757"
   showgrid="false"
   id="namedview315"
   inkscape:window-height="1017"
   inkscape:window-width="1920"
   inkscape:pageshadow="2"
   inkscape:pageopacity="0"
   guidetolerance="10"
   gridtolerance="10"
   objecttolerance="10"
   borderopacity="1"
   bordercolor="#666666"
   pagecolor="#ffffff" />
<path
   d="M 23.999226,4.867e-8 C 10.746581,4.867e-8 0,11.0162 0,24.609146 c 0,10.870719 6.8756129,20.094504 16.416,23.34805 1.199226,0.226918 1.636645,-0.532902 1.636645,-1.185983 0,-0.583503 -0.0209,-2.130816 -0.03252,-4.184938 C 11.34271,44.075079 9.9344516,39.287661 9.9344516,39.287661 8.8443871,36.444464 7.2712258,35.689389 7.2712258,35.689389 c -2.180129,-1.527546 0.164129,-1.498292 0.164129,-1.498292 2.407742,0.173153 3.6750972,2.537213 3.6750972,2.537213 2.142967,3.760356 5.619096,2.673205 6.986322,2.043053 0.216,-1.589217 0.837678,-2.674787 1.522839,-3.289126 -5.328,-0.622246 -10.9300646,-2.731714 -10.9300646,-12.160278 0,-2.685856 0.9344516,-4.883087 2.4696776,-6.605134 -0.248516,-0.622246 -1.071484,-3.123089 0.233806,-6.510256 0,0 2.016,-0.660988 6.6,2.52219 1.914581,-0.545552 3.967742,-0.818328 6.009291,-0.829397 2.036903,0.01107 4.091612,0.283055 6.00929,0.829397 4.580129,-3.183178 6.593032,-2.52219 6.593032,-2.52219 1.308387,3.387167 0.48542,5.88801 0.237678,6.510256 1.539096,1.722047 2.468129,3.918487 2.468129,6.605134 0,9.452284 -5.611355,11.531707 -10.957936,12.142093 0.861678,0.75982 1.628903,2.260483 1.628903,4.557337 0,3.290707 -0.02864,5.942565 -0.02864,6.749824 0,0.659407 0.432774,1.425552 1.649807,1.18282 C 41.130581,44.694162 48,35.476702 48,24.609146 48,11.0162 37.253419,4.867e-8 23.999226,4.867e-8 Z"
   style="fill:#3e77bf;stroke-width:0.0977978"
   id="SVGCleanerId_0" />
<g
   transform="matrix(0.09677419,0,0,0.09883191,0,-0.51026915)"
   id="g268">
	<path
   d="M 247.992,5.163 C 111.048,5.163 0,116.627 0,254.163 c 0,109.992 71.048,203.32 169.632,236.24 12.392,2.296 16.912,-5.392 16.912,-12 0,-5.904 -0.216,-21.56 -0.336,-42.344 -69,15.064 -83.552,-33.376 -83.552,-33.376 -11.264,-28.768 -27.52,-36.408 -27.52,-36.408 -22.528,-15.456 1.696,-15.16 1.696,-15.16 24.88,1.752 37.976,25.672 37.976,25.672 22.144,38.048 58.064,27.048 72.192,20.672 2.232,-16.08 8.656,-27.064 15.736,-33.28 -55.056,-6.296 -112.944,-27.64 -112.944,-123.04 0,-27.176 9.656,-49.408 25.52,-66.832 -2.568,-6.296 -11.072,-31.6 2.416,-65.872 0,0 20.832,-6.688 68.2,25.52 19.784,-5.52 41,-8.28 62.096,-8.392 21.048,0.112 42.28,2.864 62.096,8.392 47.328,-32.208 68.128,-25.52 68.128,-25.52 13.52,34.272 5.016,59.576 2.456,65.872 15.904,17.424 25.504,39.648 25.504,66.832 0,95.64 -57.984,116.68 -113.232,122.856 8.904,7.688 16.832,22.872 16.832,46.112 0,33.296 -0.296,60.128 -0.296,68.296 0,6.672 4.472,14.424 17.048,11.968 C 425.016,457.387 496,364.123 496,254.163 496,116.627 384.952,5.163 247.992,5.163 Z"
   style="fill:#3e77bf"
   id="SVGCleanerId_0_1_" />
</g>
<g
   transform="matrix(0.09677419,0,0,0.09883191,0,-0.51026915)"
   id="g274">
	<path
   id="path270"
   d="m 378.496,109.131 c 13.128,33.904 4.752,58.928 2.2,65.176 15.904,17.424 25.504,39.648 25.504,66.832 0,95.64 -57.984,116.68 -113.232,122.856 8.904,7.688 16.832,22.872 16.832,46.112 0,33.296 -0.296,60.128 -0.296,68.296 0,6.672 4.472,14.424 17.048,11.968 C 425.016,457.387 496,364.123 496,254.163 c 0,-29.56 -5.152,-57.896 -14.568,-84.2 -34.192,-36 -72.248,-59.976 -102.936,-60.832 z"
   style="fill:#114c82" />
	<path
   id="path272"
   d="m 192.976,377.323 c 2.784,-5.616 6.184,-9.984 9.76,-13.144 -30.176,-3.456 -61.168,-11.512 -83.048,-33.744 16.832,28.016 44.24,40.76 73.288,46.888 z"
   style="fill:#114c82" />
</g>
<path
   id="path276"
   d="m 1.2495484,26.26794 c 0,-13.592945 10.7465806,-24.6091452 23.9992256,-24.6091452 7.35871,0 13.940903,3.3990272 18.342194,8.7454382 C 39.243871,4.1106168 32.091871,4.867e-8 23.999226,4.867e-8 10.746581,4.867e-8 0,11.0162 0,24.609146 0,30.669518 2.1406452,36.214384 5.6856774,40.500526 2.8978065,36.481625 1.2495484,31.574819 1.2495484,26.26794 Z"
   style="fill:#6ca9ea;stroke-width:0.0977978" />
<path
   id="path278"
   d="m 31.230194,41.680974 c 0,-2.296063 -0.767226,-3.799098 -1.628904,-4.558918 C 34.947871,36.513251 40.56,34.432247 40.56,24.980754 c 0,-2.686647 -0.929032,-4.882297 -2.469677,-6.604344 0.24929,-0.622246 1.073806,-3.123879 -0.237678,-6.510256 0,0 -0.24929,-0.07827 -0.764129,-0.04823 0.562065,2.553817 -0.04026,4.380231 -0.246968,4.898901 1.539097,1.722047 2.468129,3.918487 2.468129,6.605134 0,9.452284 -5.611354,11.531707 -10.957935,12.142093 0.861677,0.75982 1.628903,2.260483 1.628903,4.557337 0,3.290707 -0.02864,5.942565 -0.02864,6.749824 0,0.580341 0.338323,1.24212 1.250323,1.226306 0.0062,-1.112452 0.02787,-3.474139 0.02787,-6.316545 z"
   style="fill:#083e66;stroke-width:0.0977978" />
<path
   id="path280"
   d="m 11.367484,41.393967 c 0.504,1.059478 2.197935,3.597481 6.666581,3.062998 -0.0062,-0.558203 -0.01084,-1.183611 -0.01394,-1.87069 -3.447484,0.768517 -5.482839,-0.137574 -6.652645,-1.192308 z"
   style="fill:#114c82;stroke-width:0.0977978" />
<path
   id="path282"
   d="m 12.229161,38.171256 c -0.154064,-0.237197 -0.442838,-0.63964 -0.861677,-1.042084 0.271742,0.411931 0.560516,0.757448 0.861677,1.042084 z"
   style="fill:#6ca9ea;stroke-width:0.0977978" />
<g
   transform="translate(0,-5.163)"
   id="g284">
</g>
<g
   transform="translate(0,-5.163)"
   id="g286">
</g>
<g
   transform="translate(0,-5.163)"
   id="g288">
</g>
<g
   transform="translate(0,-5.163)"
   id="g290">
</g>
<g
   transform="translate(0,-5.163)"
   id="g292">
</g>
<g
   transform="translate(0,-5.163)"
   id="g294">
</g>
<g
   transform="translate(0,-5.163)"
   id="g296">
</g>
<g
   transform="translate(0,-5.163)"
   id="g298">
</g>
<g
   transform="translate(0,-5.163)"
   id="g300">
</g>
<g
   transform="translate(0,-5.163)"
   id="g302">
</g>
<g
   transform="translate(0,-5.163)"
   id="g304">
</g>
<g
   transform="translate(0,-5.163)"
   id="g306">
</g>
<g
   transform="translate(0,-5.163)"
   id="g308">
</g>
<g
   transform="translate(0,-5.163)"
   id="g310">
</g>
<g
   transform="translate(0,-5.163)"
   id="g312">
</g>
</svg>
