<?xml version="1.0" encoding="UTF-8" standalone="no"?>
<svg
   xmlns:dc="http://purl.org/dc/elements/1.1/"
   xmlns:cc="http://creativecommons.org/ns#"
   xmlns:rdf="http://www.w3.org/1999/02/22-rdf-syntax-ns#"
   xmlns:svg="http://www.w3.org/2000/svg"
   xmlns="http://www.w3.org/2000/svg"
   xmlns:sodipodi="http://sodipodi.sourceforge.net/DTD/sodipodi-0.dtd"
   xmlns:inkscape="http://www.inkscape.org/namespaces/inkscape"
   inkscape:version="1.0 (4035a4fb49, 2020-05-01)"
   sodipodi:docname="instagram.svg"
   id="svg392"
   version="1.1"
   width="48.000034"
   viewBox="0 0 2.2500016 2.25"
   height="48"
   enable-background="new 0 0 24 24">
  <metadata
     id="metadata398">
    <rdf:RDF>
      <cc:Work
         rdf:about="">
        <dc:format>image/svg+xml</dc:format>
        <dc:type
           rdf:resource="http://purl.org/dc/dcmitype/StillImage" />
      </cc:Work>
    </rdf:RDF>
  </metadata>
  <defs
     id="defs396" />
  <sodipodi:namedview
     inkscape:current-layer="svg392"
     inkscape:window-maximized="1"
     inkscape:window-y="-8"
     inkscape:window-x="-8"
     inkscape:cy="179.37527"
     inkscape:cx="28.324832"
     inkscape:zoom="0.83007813"
     showgrid="false"
     id="namedview394"
     inkscape:window-height="1017"
     inkscape:window-width="1920"
     inkscape:pageshadow="2"
     inkscape:pageopacity="0"
     guidetolerance="10"
     gridtolerance="10"
     objecttolerance="10"
     borderopacity="1"
     bordercolor="#666666"
     pagecolor="#ffffff" />
  <linearGradient
     y2="-84.046997"
     y1="-72.705002"
     x2="-26.555"
     x1="-37.105999"
     gradientUnits="userSpaceOnUse"
     gradientTransform="matrix(0,-0.18524228,-0.17237834,0,-12.381699,-4.7701871)"
     id="SVGID_1_">
    <stop
       id="stop381"
       stop-color="#fd5"
       offset="0" />
    <stop
       id="stop383"
       stop-color="#ff543e"
       offset=".5" />
    <stop
       id="stop385"
       stop-color="#c837ab"
       offset="1" />
  </linearGradient>
  <path
     style="fill:url(#SVGID_1_);stroke-width:0.0934715"
     id="path388"
     fill="url(#SVGID_1_)"
     d="M 0.14676683,0.15621069 C -0.02953769,0.33930335 0.00654584,0.5337984 0.00654584,1.1246671 c 0,0.4906771 -0.08562828,0.9825692 0.362518,1.098369 0.13994054,0.035983 1.37986806,0.035983 1.51962166,-1.869e-4 0.1865874,-0.048133 0.3384,-0.1994486 0.3591527,-0.4632926 0.0029,-0.036824 0.0029,-1.23230056 -9.35e-5,-1.26987241 C 2.2256832,0.20864305 2.0526505,0.04667287 1.8246512,0.01386761 1.7723955,0.00629716 1.7619257,0.00405406 1.4938232,0.00358675 0.54284438,0.00405406 0.33438251,-0.03828436 0.14676683,0.15621069 Z" />
  <path
     style="stroke-width:0.0934715"
     id="path390"
     fill="#ffffff"
     d="m 1.1281268,0.29696492 c -0.33942828,0 -0.6617496,-0.0301883 -0.78486362,0.28571427 -0.0508535,0.13047337 -0.0434685,0.29992053 -0.0434685,0.54254871 0,0.2129071 -0.006824,0.4130099 0.0434685,0.5424552 0.12283358,0.3160895 0.44777235,0.2858077 0.78467672,0.2858077 0.3250322,0 0.6601604,0.033833 0.7847701,-0.2858077 C 1.963657,1.5359013 1.956179,1.3689776 1.956179,1.1252279 1.956179,0.80166136 1.974034,0.59277311 1.8170798,0.43594337 1.6581622,0.27705745 1.4432501,0.29696492 1.1277529,0.29696492 Z m -0.074224,0.1492593 c 0.7080225,-0.001122 0.7981379,-0.0798168 0.7484061,1.01341178 -0.017668,0.3866536 -0.3121319,0.3442217 -0.674089,0.3442217 -0.65997348,0 -0.67895006,-0.018879 -0.67895006,-0.6790036 0,-0.66778825 0.0523492,-0.67825603 0.60463286,-0.6788168 z m 0.5163871,0.13748305 c -0.054873,0 -0.09937,0.0444881 -0.09937,0.0993504 0,0.0548624 0.044497,0.0993504 0.09937,0.0993504 0.054873,0 0.09937,-0.0444881 0.09937,-0.0993504 0,-0.0548624 -0.044497,-0.0993504 -0.09937,-0.0993504 z M 1.1281268,0.69988091 c -0.23491691,0 -0.42533701,0.19047618 -0.42533701,0.42534699 0,0.2348708 0.1904201,0.4252535 0.42533701,0.4252535 0.2349169,0 0.4252435,-0.1903827 0.4252435,-0.4252535 0,-0.23487081 -0.1903266,-0.42534699 -0.4252435,-0.42534699 z m 0,0.1492593 c 0.365042,0 0.3655094,0.55217529 0,0.55217529 -0.3649485,0 -0.36550939,-0.55217529 0,-0.55217529 z" />
</svg>
