<?xml version="1.0" encoding="UTF-8" standalone="no"?>
<svg
   xmlns:dc="http://purl.org/dc/elements/1.1/"
   xmlns:cc="http://creativecommons.org/ns#"
   xmlns:rdf="http://www.w3.org/1999/02/22-rdf-syntax-ns#"
   xmlns:svg="http://www.w3.org/2000/svg"
   xmlns="http://www.w3.org/2000/svg"
   xmlns:xlink="http://www.w3.org/1999/xlink"
   xmlns:sodipodi="http://sodipodi.sourceforge.net/DTD/sodipodi-0.dtd"
   xmlns:inkscape="http://www.inkscape.org/namespaces/inkscape"
   inkscape:version="1.0 (4035a4fb49, 2020-05-01)"
   height="48"
   width="48"
   sodipodi:docname="mainLink.svg"
   id="svg604"
   version="1.1"
   viewBox="0 0 48 48">
  <metadata
     id="metadata608">
    <rdf:RDF>
      <cc:Work
         rdf:about="">
        <dc:format>image/svg+xml</dc:format>
        <dc:type
           rdf:resource="http://purl.org/dc/dcmitype/StillImage" />
      </cc:Work>
    </rdf:RDF>
  </metadata>
  <sodipodi:namedview
     inkscape:current-layer="svg604"
     inkscape:window-maximized="1"
     inkscape:window-y="-8"
     inkscape:window-x="-8"
     inkscape:cy="165.13"
     inkscape:cx="140"
     inkscape:zoom="1.659375"
     showgrid="false"
     id="namedview606"
     inkscape:window-height="1017"
     inkscape:window-width="1920"
     inkscape:pageshadow="2"
     inkscape:pageopacity="0"
     guidetolerance="10"
     gridtolerance="10"
     objecttolerance="10"
     borderopacity="1"
     bordercolor="#666666"
     pagecolor="#ffffff" />
  <defs
     id="defs538">
    <linearGradient
       id="a">
      <stop
         id="stop511"
         offset="0"
         stop-opacity=".67843" />
      <stop
         id="stop513"
         offset=".57"
         stop-opacity=".32941" />
      <stop
         id="stop515"
         offset="1"
         stop-opacity="0" />
    </linearGradient>
    <linearGradient
       gradientUnits="userSpaceOnUse"
       gradientTransform="matrix(0.17136805,0,0,0.14368967,-28.63203,-11.590006)"
       y2="437.62485"
       y1="302.5687"
       x2="209.04694"
       x1="208.121"
       id="g">
      <stop
         id="stop518"
         offset="0"
         stop-opacity="0"
         stop-color="#fff" />
      <stop
         id="stop520"
         offset="1"
         stop-color="#fff" />
    </linearGradient>
    <linearGradient
       gradientUnits="userSpaceOnUse"
       gradientTransform="matrix(0.15344161,0,0,0.1604768,-28.63203,-11.590006)"
       y2="254.67033"
       y1="243.00499"
       x2="302.54028"
       x1="494.23154"
       id="f">
      <stop
         id="stop523"
         offset="0"
         stop-opacity=".55372"
         stop-color="#1f1f1f" />
      <stop
         id="stop525"
         offset="1"
         stop-opacity="0" />
    </linearGradient>
    <linearGradient
       gradientUnits="userSpaceOnUse"
       gradientTransform="matrix(0.14967874,0,0,0.16451114,-28.63203,-11.590006)"
       y2="200.39816"
       y1="323.16669"
       x2="253.25552"
       x1="349.42325"
       id="e">
      <stop
         id="stop528"
         offset="0"
         stop-color="#4f4f4f" />
      <stop
         id="stop530"
         offset=".27444"
         stop-color="#bebebe" />
      <stop
         id="stop532"
         offset="1"
         stop-color="#fff" />
    </linearGradient>
    <linearGradient
       gradientUnits="userSpaceOnUse"
       gradientTransform="matrix(0.14015928,0,0,0.17568454,-28.63203,-11.590006)"
       xlink:href="#a"
       y2="58.080261"
       y1="1131.2076"
       x2="343.33246"
       x1="464.3233"
       id="d" />
    <linearGradient
       gradientUnits="userSpaceOnUse"
       gradientTransform="matrix(0.13991962,0,0,0.17598546,-28.63203,-11.590006)"
       xlink:href="#a"
       y2="57.983021"
       y1="1129.2643"
       x2="343.92444"
       x1="465.1236"
       id="c" />
    <linearGradient
       gradientUnits="userSpaceOnUse"
       gradientTransform="matrix(0.13963362,0,0,0.17634592,-28.63203,-11.590006)"
       xlink:href="#a"
       y2="57.861336"
       y1="1126.968"
       x2="344.62909"
       x1="466.06494"
       id="b" />
  </defs>
  <path
     style="stroke-width:0.15692"
     id="path540"
     fill="#f4f2f2"
     d="m 33.43266,18.289826 c -0.89454,0.276537 -1.37879,0.840496 -1.99676,1.52619 -0.51263,0.568865 -0.19197,3.439385 0.7603,3.122351 1.15187,-0.370208 1.24861,-3.758277 1.23646,-4.648541" />
  <path
     style="stroke-width:0.15692"
     id="path542"
     fill="#e2e0e0"
     d="m 33.27678,18.313046 c -0.041,0.594996 -0.37941,3.224365 -1.19289,3.484277 -0.51212,-0.361833 -0.85352,-0.852322 -1.02169,-1.468511 -0.20769,0.402253 0.51767,2.814296 1.13413,2.609184 1.08905,-0.349992 1.24203,-4.66139 1.08045,-4.624857" />
  <path
     style="stroke-width:0.15692"
     id="path544"
     fill="#122c8c"
     d="m 1.29639,23.359583 c 0,-12.043885 10.33235,-22.099497 22.70838,-22.099497 12.37317,0 22.70679,10.058243 22.70679,22.099497 C 46.71356,35.39851 36.37317,45.45753 24.00477,45.45753 11.63112,45.45753 1.29639,35.4013 1.29639,23.359583 M 24.00477,0 C 10.93966,0 0,10.64587 0,23.359583 0,36.07438 10.94014,46.71297 24.00477,46.71297 37.06941,46.71297 48,36.07407 48,23.359583 48,10.646799 37.06988,0 24.00477,0" />
  <path
     style="stroke-width:0.15692"
     id="path546"
     fill="#0d33bf"
     d="m 46.71156,23.359583 c 0,12.038927 -10.33743,22.097947 -22.70679,22.097947 -12.37317,0 -22.70838,-10.05623 -22.70838,-22.097947 0,-12.043885 10.33235,-22.099497 22.70838,-22.099497 12.3727,0 22.70679,10.058243 22.70679,22.099497" />
  <path
     style="stroke-width:0.15692"
     id="path548"
     fill="#8dc8ef"
     d="m 24.00477,2.000812 c -11.61537,0 -21.46606,9.191663 -21.92895,20.491107 1.78712,0.307111 1.82052,-3.736605 2.36708,-5.165734 0.97253,-2.542619 2.47651,-4.88771 4.39167,-6.860504 3.92004,-4.037848 9.46161,-6.362506 15.1702,-6.362506 11.121,0 20.51326,8.863328 20.8473,19.683041 C 48.55085,20.586929 42.71341,11.585053 40.07847,8.824009 35.95228,4.499313 30.06983,2.000503 24.00477,2.000503" />
  <path
     style="stroke-width:0.15692"
     id="path550"
     fill="#8dc8ef"
     d="m 24.27359,44.70829 c -0.35963,9.3e-4 -0.35963,9.3e-4 0,0 m -0.54147,0 c 0.36219,9.3e-4 0.36219,9.3e-4 0,0 M 45.93625,22.878149 c -1.89337,1.520262 -1.28103,5.339731 -2.05753,7.707421 -0.83831,2.55888 -2.20753,4.94576 -3.9991,6.98915 -3.87964,4.42671 -9.62879,7.05818 -15.60636,7.13357 C 36.31414,44.56533 46.20857,34.59385 45.93657,22.878149 M 3.23668,22.413295 c -1.50947,0.317963 -1.24001,0.287885 -1.15389,2.002825 0.0861,1.71494 0.38345,3.41911 0.88847,5.06511 0.88034,2.86554 2.38838,5.5368 4.39374,7.80155 4.0842,4.61355 10.1079,7.352 16.36638,7.42537 C 11.66569,44.5578 2.06967,34.08891 3.23563,22.413605" />
  <path
     style="stroke-width:0.15692"
     id="path552"
     fill="#65beef"
     d="m 39.77943,18.316142 c 0,1.195905 2.22073,5.150873 3.64104,4.409528 1.65127,-0.861689 3.47338,-2.027594 2.65832,-3.762766 -1.53178,-3.255945 -2.18717,-6.586814 -4.53245,-9.48687 -1.34181,-1.65932 -5.28977,-5.53633 -7.69374,-5.614814 -0.65243,-0.0212 -1.05463,0.61817 -1.37932,1.057884 -1.40007,1.89694 -0.56629,1.343787 0.42398,2.576675 0.65952,0.820774 0.37431,2.208866 -0.85958,1.836258 -0.5258,-0.158238 -1.07539,-1.184078 -1.52164,-1.531113 -4.5816,-3.555177 -0.53845,2.527448 -1.20757,3.458116 -0.43563,0.606328 -3.16479,1.726814 -1.98165,2.622032 0.7436,0.560491 1.74862,0.681747 2.63955,0.839505 -2.68966,1.259498 -4.493,2.574663 -4.74321,5.463883 -0.34293,3.966794 1.28508,4.65303 5.07248,4.493275 6.00557,-0.25437 -0.75625,13.019905 6.03341,12.395285 1.64013,-0.15134 4.90434,-5.27317 4.27014,-6.73867 -0.65747,-1.51633 -1.06676,-1.90128 0.58962,-2.91926 0.62507,-0.38302 3.00731,-1.55777 2.25047,-2.637353 -0.58503,-0.832601 -1.89846,-1.160905 -2.62333,-1.907158 -0.98772,-1.015994 -1.25012,-2.351902 -1.52465,-3.668027 -0.80186,-3.830259 -3.68908,-1.805143 -5.68887,-3.883047 1.98659,0.299232 6.1772,0.159725 6.1772,2.996652" />
  <path
     style="stroke-width:0.15692"
     id="path554"
     fill="#65beef"
     d="m 43.1071,30.00058 c -0.92545,0.28788 -1.42541,0.87056 -2.06659,1.58083 -0.52984,0.58712 -0.20058,3.55766 0.78765,3.23226 1.19291,-0.38844 1.29169,-3.888 1.27902,-4.81325" />
  <path
     style="stroke-width:0.15692"
     id="path556"
     fill="#65beef"
     d="m 14.64369,5.365428 c 0.0952,-0.33965 0,-0.788235 0,-1.143644 C 12.36124,3.591772 8.63924,7.619682 7.29592,9.049276 5.21007,11.26805 3.54862,13.865932 2.4641,16.684098 2.17336,17.438819 0.45016,21.499361 2.0442,21.89457 c 1.15389,0.286894 3.88711,0.421479 4.61707,1.349701 1.38691,1.76474 0.69244,2.418469 0.74663,4.622379 0.039,1.51633 1.73192,3.06864 2.64974,4.19017 0.9396,1.1476 -0.52023,6.53264 -0.67321,8.09242 0.006,-0.0971 0.0557,-0.15972 0.14993,-0.18683 0.67217,0.69311 1.21367,1.44535 2.13961,2.05468 1.62805,-3.36585 4.26808,-5.32239 6.51108,-8.3226 1.18581,-1.58579 0.66206,-3.46493 1.63871,-5.10753 0.52327,-0.87895 -0.0861,-0.9031 -0.95329,-1.55282 -3.07524,-2.306079 -5.7614,-3.271732 -9.4869,-4.234444 -1.434,-0.369713 -2.95769,-0.50823 -3.38828,-2.126667 -0.37534,-1.412318 -1.09313,-1.244698 -2.55048,-1.658855 0.52782,-1.196896 3.89825,-3.199288 4.04777,-1.114077 0.1479,2.056541 1.83118,3.667098 4.01374,3.664621 1.32814,-9.28e-4 -1.8307,-2.172952 -2.31586,-2.266607 -1.17615,-0.228224 -1.46893,-1.961493 -1.2714,-2.889219 0.20411,-0.95683 2.31585,-2.414443 3.02449,-3.177151 1.26435,-1.360553 2.66183,0.167124 4.03616,-0.971613 -1.76071,-0.168084 -3.72152,-2.056077 -0.92087,-1.684398 0.67419,0.08874 0.30139,1.32162 1.45073,1.291062 2.91808,-0.07937 -1.91119,-1.952669 -1.34436,-1.231897 -0.36622,-0.465349 1.86411,-0.858732 0.8829,-2.147874 -0.70307,-0.922309 -3.02099,-2.849745 -0.4042,-3.121887" />
  <path
     style="stroke-width:0.15692"
     id="path558"
     fill="#65beef"
     d="m 17.46554,2.215368 c -1.57938,0.459931 0.0653,4.547456 1.67163,4.199461 C 19.95269,6.238355 20.50381,4.48987 21.2378,4.014164 21.44699,3.878106 25.56204,1.88951 25.60117,2.160723 25.75363,3.231424 24.45943,3.825461 25.73541,4.627953 26.9911,5.418169 28.02247,5.69175 27.56706,3.727812 26.55653,-0.67475 20.65529,1.300056 17.46568,2.21543" />
  <path
     style="stroke-width:0.15692"
     id="path560"
     fill="#ffffff"
     d="m 9.94804,30.94022 c 0.19046,0 0.2477,7.77291 -0.82212,7.77291 0.0679,-4.7e-4 0.30797,-7.77291 0.82212,-7.77291" />
  <path
     style="stroke-width:0.15692"
     id="path562"
     fill="#0f30a8"
     d="M 24,43.51477 C 12.46559,43.51477 2.45917,34.80531 1.21845,23.63513 1.36889,35.61245 11.69252,45.53338 24,45.53338 c 12.30891,0 22.63043,-9.9217 22.78314,-21.89825 C 45.54213,34.80547 35.53505,43.51477 24,43.51477" />
  <path
     style="stroke-width:0.15692"
     id="path564"
     fill="#14bc14"
     d="m 39.77943,16.91209 c 0,1.264916 2.21755,5.155827 3.70323,4.372995 1.17566,-0.619146 3.87455,-2.242459 3.42376,-3.720351 C 45.75453,13.80491 43.77296,10.201899 40.99008,7.343795 39.61384,5.931972 36.00127,2.527603 33.85244,2.456084 c -0.65343,-0.02168 -1.05463,0.617675 -1.37932,1.05886 -1.40007,1.89694 -0.56629,1.343307 0.42398,2.57621 0.65952,0.820759 0.37432,2.208402 -0.85958,1.835794 -0.5258,-0.158238 -1.07539,-1.183583 -1.52163,-1.530633 -4.58161,-3.554248 -0.53846,2.526364 -1.20758,3.458116 -0.43563,0.606328 -3.16479,1.726814 -1.98165,2.621568 0.74361,0.560986 1.74862,0.683728 2.63955,0.839505 -2.68966,1.258027 -4.493,2.574198 -4.74321,5.463418 -0.34293,3.967723 1.28509,4.652566 5.07248,4.493275 6.00605,-0.252389 -0.75727,13.017893 6.03341,12.395283 1.64013,-0.15034 4.90434,-5.27208 4.27014,-6.73867 -0.65747,-1.51437 -1.06676,-1.90035 0.58962,-2.91832 0.62507,-0.38303 3.00732,-1.558704 2.25048,-2.638291 -0.58504,-0.832601 -1.89847,-1.161895 -2.62333,-1.906229 -0.98773,-1.01697 -1.25013,-2.351902 -1.52466,-3.668027 -0.80186,-3.831807 -3.69019,-1.803285 -5.68887,-3.883047 1.9877,0.298226 6.17721,0.159709 6.17721,2.997117" />
  <path
     style="stroke-width:0.15692"
     id="path566"
     fill="#6be06b"
     d="m 43.49205,29.06403 c -0.92544,0.28691 -1.42591,0.87056 -2.06724,1.5799 -0.52881,0.58712 -0.2026,3.55673 0.78767,3.23226 1.1924,-0.38697 1.29169,-3.88691 1.27952,-4.81216" />
  <path
     style="stroke-width:0.15692"
     id="path568"
     fill="#20db20"
     d="m 43.3298,29.0888 c -0.039,0.61816 -0.39156,3.33535 -1.23342,3.60641 -0.52985,-0.37463 -0.88188,-0.8809 -1.05816,-1.51929 -0.21527,0.41704 0.53491,2.91043 1.17415,2.70083 1.1159,-0.36231 1.3008,-4.82842 1.11743,-4.78802" />
  <path
     style="stroke-width:0.15692"
     id="path570"
     fill="#14bc14"
     d="m 14.06628,4.117726 c 0.0952,-0.34013 0,-0.788235 0,-1.143659 -2.28547,-0.628031 -6.0035,3.395421 -7.34889,4.827492 -2.35037,2.501286 -4.16023,5.483077 -5.21484,8.715957 -1.96543,6.023336 2.73992,3.135664 5.4509,6.588362 0.89505,1.140703 -0.56682,3.471892 0.47258,5.009382 0.76944,1.13922 2.22471,2.15763 2.08791,3.55858 -0.19501,1.99493 -0.39054,3.98894 -0.58404,5.98402 -0.039,0.38894 -0.1479,0.85034 -0.12206,1.24371 -0.33027,0.30612 -0.44779,0.70099 -0.35255,1.18604 0.79982,0.70395 1.65031,1.35464 2.54427,1.94168 0.67016,-1.38914 0.5577,-2.82668 1.52924,-4.18723 1.43502,-2.01118 3.59952,-3.41617 5.079,-5.39546 1.18529,-1.58579 0.66305,-3.46493 1.63871,-5.10846 0.52124,-0.87893 -0.0871,-0.90308 -0.95431,-1.55281 C 15.21696,23.479244 12.53191,22.51452 8.80673,21.552892 7.37374,21.182203 5.84904,21.043671 5.41797,19.426225 5.04264,18.012916 4.32486,18.18052 2.86702,17.76737 c 0.52781,-1.197887 3.90079,-3.200217 4.04872,-1.114077 0.14588,2.055612 1.83261,3.663692 4.01374,3.663692 1.32408,0 -1.82816,-2.172023 -2.31634,-2.265678 -1.17717,-0.22824 -1.46893,-1.961957 -1.27138,-2.890148 0.20464,-0.955839 2.31537,-2.414908 3.02449,-3.176068 1.26331,-1.359561 2.66087,0.164647 4.03505,-0.972108 -1.76071,-0.168099 -3.72057,-2.055612 -0.91987,-1.684398 0.67472,0.08923 0.30038,1.3221 1.45072,1.290567 C 17.85023,10.538802 13.02097,8.668495 13.58678,9.387255 13.22156,8.922896 15.45184,8.528539 14.47068,7.239381 13.76761,6.316577 11.44921,4.389636 14.06595,4.117494" />
  <path
     style="stroke-width:0.15692"
     id="path572"
     fill="#14bc14"
     d="m 17.30647,1.371853 c -1.58039,0.46634 0.0664,4.546992 1.67163,4.20039 C 19.79362,5.396265 20.34574,3.645736 21.07874,3.170649 21.28793,3.03508 25.40297,1.047543 25.4421,1.318137 25.59457,2.389334 24.30037,2.981791 25.57634,3.784903 26.83203,4.575104 27.8634,4.848205 27.408,2.885752 26.39746,-1.516809 20.49734,0.457996 17.30662,1.371884" />
  <path
     style="stroke-width:0.15692"
     id="path574"
     fill="#35e035"
     d="m 27.4088,2.885659 c -0.15043,-0.667458 -0.41333,-1.289576 -0.78868,-1.86629 0.31455,0.836549 0.86363,2.942472 -0.68028,2.079297 -1.21265,-0.677814 0.70511,-2.669865 -0.94976,-2.320787 -2.48606,0.524499 -4.0026,1.450275 -5.4544,3.380715 -1.2071,1.604056 -2.28245,-2.098492 -2.35546,-2.728536 -1.37779,0.655137 0.25123,4.476557 1.7992,4.141876 0.81554,-0.175994 1.36766,-1.926508 2.10064,-2.401749 0.20922,-0.13556 4.32439,-2.123106 4.36336,-1.852513 0.15247,1.071197 -1.14173,1.663655 0.13422,2.466766 1.2552,0.790201 2.28659,1.063798 1.83118,-0.898655" />
  <path
     style="stroke-width:0.15692"
     id="path576"
     fill="#14bc14"
     d="m 17.02333,31.74829 c -0.13119,-0.007 -0.24566,-2.35392 -0.50857,-2.67575 -0.98115,-1.19789 -2.77174,-0.005 -3.71246,0.59696 -3.47688,2.22621 -4.78377,-1.64941 -5.89454,-4.49528 -0.32621,3.27808 2.80578,4.46664 2.49831,7.61175 -0.17577,1.79292 -0.35154,3.58722 -0.52629,5.38106 -0.0507,0.51909 -0.0628,0.58169 -0.29025,0.99725 -0.69649,1.2738 1.54495,2.29618 2.41066,2.86554 1.15288,-2.38983 1.24912,-4.12067 3.36187,-6.20337 1.99884,-1.97187 3.9342,-3.50239 4.22354,-6.367 -0.74968,-0.12866 -0.71269,2.33519 -1.56216,2.28875 M 1.05154,20.205249 c 0.41892,0.352469 0.61596,0.670911 1.32107,0.667939 -0.49744,-0.867602 -1.33575,-1.148582 -1.46897,-2.126047 -0.0375,0.494421 0.0117,0.980979 0.1479,1.45817" />
  <path
     style="stroke-width:0.15692"
     id="path578"
     fill="#14bc14"
     d="m 40.32821,25.94942 c -1.51048,3.46198 -1.43044,-1.174717 -3.79756,0.0375 -1.22327,0.46684 -1.94809,4.8487 -2.41877,4.74081 -0.53238,-0.12127 -0.39917,-2.54665 -1.05158,-2.36181 -1.21011,0.34161 0.426,6.86298 1.84788,7.18434 1.36715,0.30809 2.79655,0.0646 3.48197,-1.26987 0.51059,-0.9928 2.30631,-3.69124 2.3499,-4.72841 0.0395,-0.94846 -1.60626,-2.17002 -0.4336,-2.97591 0.67875,-0.46585 4.04061,-1.970784 3.11468,-3.220499 -0.99534,0.910978 -2.44103,1.326048 -3.09289,2.593859 m 6.41023,-6.965924 c -0.0152,0.07986 -0.005,0.02514 0,0" />
  <path
     style="stroke-width:0.15692"
     id="path580"
     fill="#4fea4f"
     d="m 12.04772,9.704521 c 1.7009,-1.490199 1.06222,0.393382 1.92025,0.502316 0.15349,0.01972 3.0964,0.910482 1.33979,-0.83161 -0.002,1.435987 -1.8808,-0.273597 -2.0413,-0.564438 -0.59669,-1.077606 -2.62174,0.311058 -1.21871,0.893732 M 8.30189,19.061358 C 7.90882,18.934179 7.59272,18.706923 7.35414,18.380586 c 0.2639,1.503032 5.12608,2.337661 3.4931,0.776903 1.11032,1.23829 -2.32349,-0.09318 -2.54538,-0.09613 M 7.93107,14.353218 c 1.56418,-0.414094 1.81591,-2.39277 3.24337,-2.986744 1.125,-0.467811 2.06612,0.606327 3.22667,-0.353939 -2.30217,-0.6019 -3.69464,-0.904073 -5.22184,1.116059 -1.14326,1.510911 -3.45255,2.208866 -1.75721,4.526248 -0.154,-0.543246 -0.37029,-2.068461 0.50907,-2.301593 m -2.33557,1.5178 c 0.3875,-0.0059 0.77095,0.02909 1.15034,0.104999 C 5.64267,14.14366 1.95703,15.650686 2.86689,17.767879 3.27111,16.749933 4.48333,15.921713 5.59568,15.870938 M 18.98036,26.30736 c 0.20058,0.68817 -0.69547,1.24126 -0.79982,1.93734 -0.26442,1.77264 -0.25276,2.72266 -1.56622,4.15272 -1.43957,1.5686 -3.23733,2.87188 -4.47677,4.60813 -0.97154,1.36056 -0.86011,2.79696 -1.53128,4.18708 -0.74815,-0.49787 -1.46387,-1.03717 -2.14565,-1.61737 -0.18792,1.16781 2.38839,3.36694 2.65164,2.08069 0.49693,-2.43023 1.43299,-4.03676 3.2499,-5.82875 1.51252,-1.49216 4.18552,-3.39789 4.18552,-5.74097 0,-1.48528 1.55507,-2.90548 0.43259,-3.77902 M 9.194,30.10202 C 8.37695,29.11019 7.55275,28.10213 6.86399,27.021 7.43992,28.46437 8.60959,29.72538 9.5861,30.93856 9.45592,30.66005 9.32473,30.38103 9.19405,30.10203 M 1.11934,19.819946 c -0.20313,1.239281 1.97243,1.230411 2.85843,1.451746 1.80938,0.449575 2.07471,0.678806 3.2378,2.104839 C 7.58181,21.046765 2.43641,20.243809 1.1195,19.819807 M 13.67496,8.39807 c 0.33988,-0.220345 0.6823,-0.229711 1.02472,-0.02809 0.20059,-0.43281 0.10788,-0.829645 -0.2786,-1.188506 0.004,0.438228 -1.5429,0.964709 -1.22584,1.367457 l 0.4797,-0.150844 m 0.39205,-4.280268 c 0.0745,-0.356416 0,-0.777879 0,-1.14366 -0.84439,0.392887 -2.3483,0.841967 -1.32205,2.067377 0.0147,-0.84935 0.92291,-0.591048 1.32205,-0.923794" />
  <path
     style="stroke-width:0.15692"
     id="path582"
     fill="#59e059"
     d="M 28.77519,10.388745 C 29.67581,9.787835 30.8631,8.988749 30.09267,7.8082 30.01767,7.693342 28.10306,5.475028 28.07618,5.966523 27.98498,7.685906 30.71065,8.78376 28.7752,10.3889 m 0.0952,2.731941 c 0.3642,0.0971 0.73145,0.182882 1.10122,0.25485 -0.46855,-0.620136 -2.85589,-1.395058 -1.9228,-2.443081 -1.53075,1.041119 -0.86415,1.907776 0.82159,2.188277 M 33.2053,6.854513 c 5.2e-4,0.192743 5.2e-4,0.386478 0.002,0.578726 C 34.54759,7.508649 33.8982,5.56989 33.1688,5.178397 31.94297,4.520799 32.70733,3.689189 33.44132,2.78315 33.35472,2.75851 33.28074,2.71612 33.21996,2.65794 30.4304,5.372698 32.88463,4.624851 33.20576,6.85446 m 7.26936,23.28992 c 0.0866,-0.20999 0.17324,-0.41999 0.26036,-0.6295 -0.70157,1.0855 -0.78869,1.2945 -0.26036,0.6295 m -5.35562,4.1329 c -1.01611,-0.29676 -1.65128,-4.76588 -1.69788,-5.65862 -0.1393,-2.69696 0.68383,-3.817415 -1.07741,-5.934638 -1.16098,-1.391126 -4.3395,0.697025 -5.8667,-1.141679 -0.75323,-0.909011 -0.14335,-4.516495 -0.81754,-4.867895 -0.32419,-0.169586 -0.42043,4.739719 -0.20415,5.296232 0.94876,2.440604 4.992,0.837539 6.90303,2.263666 1.19036,0.886812 0.50298,3.123434 0.35608,4.289244 -0.21172,1.68688 0.47972,3.45363 0.83326,5.09809 0.6205,2.88581 3.95758,2.58008 5.11559,0.0932 -0.89962,1.03618 -2.3499,0.91197 -3.54417,0.56246 M 46.61998,18.512326 c -0.84186,0.656622 -1.63871,1.424145 -2.59947,1.929449 -1.09716,0.577735 -2.02317,-1.155487 -2.70334,-1.939356 -1.3469,-1.554829 -0.37637,-3.931345 -2.79608,-4.572225 -1.77391,-0.469792 -3.27121,0.235144 -4.91898,-0.01429 1.71967,0.240562 3.92975,0.153305 5.34242,1.243724 1.29064,0.998223 0.79069,3.125292 2.0044,4.391261 1.1463,1.194914 1.43704,2.500203 3.09146,1.399005 0.69242,-0.460907 2.74041,-1.718454 2.57975,-2.437663 m -6.1123,7.933589 c 0.88743,-0.58464 2.87656,-1.3645 3.02704,-2.592929 -0.698,0.654641 -3.19629,1.458649 -3.02704,2.592929" />
  <path
     style="stroke-width:0.15692"
     id="path584"
     fill="#14bc14"
     d="m 30.3754,15.278932 c -1.46137,3.344646 -1.38234,-1.137236 -3.66936,0.03648 -1.17971,0.450566 -1.88526,4.685074 -2.33716,4.581048 -0.51312,-0.119291 -0.38649,-2.460884 -1.0151,-2.28379 -1.17112,0.33126 0.41131,6.632635 1.78409,6.941774 3.82635,0.861686 3.49263,-3.248515 5.37789,-5.224404 0.92241,-0.9657 -0.79728,-1.939356 -0.55262,-2.941543 0.25225,-1.029292 4.50414,-2.134561 3.3999,-3.616323 -0.96293,0.880419 -2.35849,1.281201 -2.98759,2.506705 m 6.1939,-6.729851 c -0.0177,0.08182 -0.005,0.02317 0,0" />
  <path
     style="fill:url(#b);stroke-width:0.15692"
     id="path586"
     fill-rule="evenodd"
     fill="url(#b)"
     d="M 10.11029,2.637202 9.5945,2.662012 c 0,0 0.17664,1.626037 1.82004,3.772673 1.6434,2.146636 3.36967,4.017879 10.47598,6.006617 l 0.3725,-0.372375 C 16.67357,10.545136 13.29006,8.156003 11.77257,6.174231 10.25507,4.192459 10.11016,2.637321 10.11016,2.637321 Z m 20.90933,4.368351 c -1.76628,0.023 -3.39592,0.574686 -4.85838,1.476746 -1.94968,1.202764 -3.60891,3.018789 -5.01585,5.112947 -1.28,1.905455 -2.3394,4.058902 -3.22461,6.192689 -2.45424,-0.705524 -4.92359,-1.057141 -6.47767,-0.65766 C 8.05785,20.053714 2.65801,34.9603 1.21082,37.55942 0.7117,38.5948 0.65828,40.04786 0.99576,41.4934 c 0.43497,2.24261 1.86044,4.52501 4.25647,5.23725 4.10742,1.47162 9.79629,-0.31487 11.60806,-3.05284 1.78886,-2.86554 9.56643,-16.4802 8.81389,-19.161363 -0.0154,-0.04519 -0.0802,-0.09099 -0.10046,-0.13638 -0.007,-0.04088 0.0247,-0.124671 0.0143,-0.161443 -0.48584,-1.4367 -3.46002,-3.067861 -6.69257,-4.132587 0.77371,-2.183634 1.7273,-4.365564 2.9378,-6.167921 C 23.19219,11.895477 24.73447,9.934758 26.5052,8.842477 29.43505,6.609462 35.06809,7.503952 33.84279,7.303484 33.22633,7.188259 31.60838,6.99806 31.01952,7.005677 Z m 3.98414,1.613344 c -0.0669,0.002 -0.0614,0.0343 0.0572,0.0992 0.47486,0.260221 0.62026,0.484932 0.64495,0.695044 0.0247,0.210112 -0.087,0.488616 -0.4012,0.819087 -0.31424,0.330471 -0.82247,0.695044 -1.46193,1.030035 -2.55732,1.339562 -7.47598,2.133013 -10.60499,1.11691 l -0.25791,0.359852 c 3.614,1.173599 8.35021,0.458848 11.19258,-1.030035 0.7106,-0.372159 2.05005,-1.347147 1.93473,-2.246173 C 36.02069,8.89101 35.20431,8.612506 35.00384,8.618869 Z" />
  <path
     style="fill:url(#c);stroke-width:0.15692"
     id="path588"
     fill-rule="evenodd"
     fill="url(#c)"
     d="m 9.52651,2.267691 c -0.88831,0.708883 0.16926,1.939046 0.50736,2.767545 1.76453,3.489541 5.48956,5.955688 9.6272,7.069486 2.27211,0.185468 1.28381,1.378169 0.41556,2.53395 -1.05334,1.459084 -1.63918,3.112908 -2.43865,4.680585 -2.36326,-0.386338 -5.24571,-1.472025 -7.36622,0.03718 -3.61543,3.896515 -5.17811,8.802803 -7.40759,13.341583 -1.08288,2.75594 -3.02258,5.54036 -2.33462,8.53902 0.41365,2.71894 2.34926,5.61141 5.70016,6.13743 4.80938,1.03454 10.45403,-1.16724 12.0878,-5.35723 2.97598,-5.32827 6.1578,-10.66181 7.80462,-16.43065 0.35308,-2.0745 -1.69804,-3.436446 -3.52986,-4.356742 -0.79374,-0.765696 -3.05153,-0.766717 -2.95418,-1.745854 0.93431,-2.18255 1.80365,-4.419125 3.40275,-6.320091 3.88569,0.949725 8.21724,0.494576 11.6701,-1.311016 1.29033,-0.636699 2.64464,-2.449892 1.05587,-3.404709 -1.72031,-0.890776 -1.1572,0.289386 -0.73087,1.265814 -2.39681,2.339364 -6.3878,2.800054 -9.80678,2.569863 C 22.9351,12.473844 24.53079,11.087656 25.37669,10.31679 27.31492,8.322634 30.36296,7.632992 33.27324,7.703427 35.24679,7.807763 33.75423,6.397968 32.5063,6.735018 28.45789,6.21702 24.63981,8.402542 22.49877,11.251204 21.60687,11.983416 20.05423,10.586764 18.89909,10.470926 15.15164,8.881267 11.36712,6.379516 10.60121,2.602973 10.35428,2.241449 9.97376,2.154388 9.52633,2.267873 v 2.2e-5 z" />
  <path
     style="fill:url(#d);stroke-width:0.15692"
     id="path590"
     fill-rule="evenodd"
     fill="url(#d)"
     d="M 10.08484,1.85824 C 8.19608,1.87369 8.7147,3.982584 9.48272,4.876874 c 1.76437,3.544186 5.39236,6.172719 9.54337,7.458967 1.73383,0.164105 1.43661,1.31758 0.5941,2.23704 -0.86128,1.258832 -1.49951,2.583951 -2.09745,3.939859 -1.15443,0.568107 -2.59247,-0.360874 -3.89507,-0.26372 C 11.76309,18.04013 9.70762,18.722651 8.98992,20.342559 5.16563,25.26262 3.33,31.06614 0.68361,36.48219 c -1.06138,2.90098 -0.89127,6.31622 1.28233,8.79754 2.06166,2.67435 6.31591,3.17281 9.67047,2.37311 3.5475,-0.77678 6.35074,-3.22127 7.50413,-6.20183 2.79655,-5.30226 6.10292,-10.54695 7.40838,-16.29133 -0.0469,-2.430233 -2.80467,-3.919271 -5.03399,-4.905204 -1.59005,-0.173966 -1.29205,-1.567058 -0.63483,-2.417848 0.59432,-1.498527 1.4385,-2.884266 2.40365,-4.226242 3.83829,0.72585 7.99454,0.366833 11.41814,-1.357828 C 36.37957,11.68199 37.7539,9.40049 36.1444,8.234524 35.06594,7.909394 34.53067,7.68634 34.24705,6.71033 31.59159,5.721178 28.46815,6.494475 26.07627,7.701139 24.39636,8.470937 23.4111,9.965579 21.97966,10.929839 19.0786,10.496471 16.52431,8.885372 14.31264,7.278685 12.57786,5.94078 11.62759,4.094878 10.8531,2.26187 10.71782,2.058523 10.3354,1.855995 10.08466,1.858054 Z m 24.3913,6.056154 c -0.35858,0.908856 0.24164,2.125428 -1.25133,2.464134 -2.4237,1.495245 -5.59836,1.637647 -8.47953,1.432798 1.57105,-2.439365 4.80827,-3.658894 7.94157,-3.716789 0.59664,-0.05875 1.19242,-0.126312 1.78934,-0.180128 z" />
  <path
     style="stroke-width:0.15692"
     id="path592"
     fill-rule="evenodd"
     fill="#ffffff"
     d="m 10.9438,19.118015 c 3.82667,-0.939244 13.25137,2.31862 14.15137,4.859536 C 25.84777,26.53766 18.07206,39.52739 16.28351,42.26428 14.47158,44.87873 8.78828,46.59145 4.68086,45.18616 0.84719,44.098 -0.51983,39.16097 0.7193,36.7069 2.16646,34.22558 7.55854,20.000694 10.9438,19.118325 Z" />
  <path
     style="stroke-width:0.15692"
     id="path594"
     fill-rule="evenodd"
     fill="#e5e5e5"
     d="m 10.30594,3.826389 c 1.64348,2.412276 3.98001,5.145455 11.08648,7.380638 L 21.759,10.796462 C 16.16955,9.08389 12.39013,5.836304 10.87295,3.608862 l -0.56687,0.217512 z m 20.21898,1.280613 c -1.76628,0.02588 -3.40021,0.642257 -4.86251,1.656069 -1.94984,1.351667 -3.6113,3.393409 -5.01808,5.747015 -2.81374,4.707366 -4.73956,10.73968 -5.48701,14.999974 l 1.192,0.71373 c 0.72747,-4.147599 2.25906,-10.802062 4.97672,-15.348743 1.35873,-2.273264 2.90869,-4.483678 4.67943,-5.711411 2.92985,-2.509181 9.0361,-1.394593 7.81065,-1.619845 -0.61648,-0.129394 -1.4155,-0.588432 -3.29109,-0.436665 z m 3.17529,0.487796 c 0.52149,0.181149 0.34168,0.268442 0.93282,0.826905 0.59114,0.558462 0.54219,1.155734 0.56688,1.39193 0.0245,0.235996 -0.0836,0.545522 -0.39803,0.917061 -0.31446,0.37154 -0.81993,0.776579 -1.4592,1.152855 -2.55748,1.505509 -7.47646,2.396331 -10.60515,1.254514 l -0.26149,0.413042 c 3.61416,1.319019 8.35356,0.51326 11.19592,-1.160038 0.7106,-0.418182 2.05037,-1.513729 1.93505,-2.524043 C 35.41008,6.437307 34.70963,5.659242 33.70012,5.594845 Z" />
  <path
     style="fill:url(#e);stroke-width:0.15692"
     id="path596"
     fill-rule="evenodd"
     fill="url(#e)"
     d="M 11.01538,19.022038 C 14.84221,18.061741 24.26691,21.392517 25.16676,23.9904 25.91952,26.60794 18.1438,39.88854 16.35509,42.68581 14.54316,45.35877 8.85986,47.10988 4.75244,45.67317 0.91877,44.56064 -0.44825,39.51314 0.79072,37.00396 2.23793,34.46707 7.62996,19.923139 11.01522,19.022193 Z" />
  <path
     style="fill:url(#f);stroke-width:0.15692"
     id="path598"
     fill-rule="evenodd"
     fill="url(#f)"
     d="m 10.94062,18.70005 c 3.82667,-0.913779 13.25153,2.255616 14.15153,4.727491 C 25.84475,25.9183 18.06903,38.55554 16.28049,41.21736 14.46872,43.7609 8.78526,45.42704 4.67784,44.05998 0.84417,43.0014 -0.52285,38.19841 0.71628,35.81091 2.16345,33.39693 7.55551,19.558271 10.94077,18.700669 Z" />
  <path
     style="stroke-width:0.15692"
     id="path600"
     fill-rule="evenodd"
     fill-opacity="0.5865"
     d="M 18.95917,20.289864 C 17.10636,22.624894 15.85785,26.2279 15.79581,26.38704 13.49014,25.51475 10.0088,24.558677 7.12985,24.095975 l -0.0318,0.164724 c 7.0053,1.125951 13.57046,4.073451 15.90636,6.532011 l 0.13866,-0.10824 c -1.38764,-1.46074 -3.93309,-2.98365 -7.1833,-4.23243 0.0557,-0.14316 1.30851,-3.749455 3.14586,-6.065134 l -0.14646,-0.09694 z" />
  <path
     style="fill:url(#g);stroke-width:0.15692"
     id="path602"
     fill-rule="evenodd"
     fill="url(#g)"
     d="m 10.66384,29.42317 c -2.93987,-0.93124 -8.92047,6.15507 -9.70387,9.18299 -0.85476,3.03675 3.91431,9.53765 12.83128,4.85071 4.35159,-2.33038 6.9587,-8.49908 5.43134,-11.30548 -1.52736,-2.8064 -7.18935,-2.2502 -8.55891,-2.72822 z" />
</svg>
