<?xml version="1.0" encoding="UTF-8" standalone="no"?>
<svg
   xmlns:dc="http://purl.org/dc/elements/1.1/"
   xmlns:cc="http://creativecommons.org/ns#"
   xmlns:rdf="http://www.w3.org/1999/02/22-rdf-syntax-ns#"
   xmlns:svg="http://www.w3.org/2000/svg"
   xmlns="http://www.w3.org/2000/svg"
   xmlns:sodipodi="http://sodipodi.sourceforge.net/DTD/sodipodi-0.dtd"
   xmlns:inkscape="http://www.inkscape.org/namespaces/inkscape"
   id="Capa_1"
   enable-background="new 0 0 512.147 512.147"
   height="512"
   viewBox="0 0 512.147 512.147"
   width="512"
   version="1.1"
   sodipodi:docname="newMessage.svg"
   inkscape:version="1.0 (4035a4fb49, 2020-05-01)">
  <metadata
     id="metadata941">
    <rdf:RDF>
      <cc:Work
         rdf:about="">
        <dc:format>image/svg+xml</dc:format>
        <dc:type
           rdf:resource="http://purl.org/dc/dcmitype/StillImage" />
      </cc:Work>
    </rdf:RDF>
  </metadata>
  <defs
     id="defs939" />
  <sodipodi:namedview
     inkscape:document-rotation="0"
     pagecolor="#ffffff"
     bordercolor="#666666"
     borderopacity="1"
     objecttolerance="10"
     gridtolerance="10"
     guidetolerance="10"
     inkscape:pageopacity="0"
     inkscape:pageshadow="2"
     inkscape:window-width="1920"
     inkscape:window-height="1017"
     id="namedview937"
     showgrid="false"
     inkscape:zoom="1.3476563"
     inkscape:cx="372.88012"
     inkscape:cy="304.80855"
     inkscape:window-x="1912"
     inkscape:window-y="-8"
     inkscape:window-maximized="1"
     inkscape:current-layer="g934" />
  <g
     id="g934">
    <path
       id="path891"
       fill="#fbe88c"
       d="m 43.981,160.053 -36.485,4.451 v 257.88 c 0,6.4 2.54,12.19 6.68,16.44 l 169.455,-66.343 92.912,-134.019 z" />
    <g
       id="g918">
      <g
         id="XMLID_130_">
        <g
           id="g909">
          <path
             id="path893"
             fill="#fbe88c"
             d="m 419.326,160.053 -136.701,80.119 -38.179,-0.022 24.75,95.075 83.671,89.028 92.919,14.69 c 4.19,-4.26 6.78,-10.1 6.78,-16.56 v -257.88 z" />
          <path
             id="path895"
             fill="#fbe372"
             d="M 50.825,371.757 V 162.361 l -6.844,-2.307 -36.485,4.451 v 257.88 c 0,6.4 2.54,12.19 6.68,16.44 L 82.717,411.991 C 64.441,407.719 50.825,391.333 50.825,371.757 Z" />
          <path
             id="path897"
             fill="#fbe372"
             d="m 342.37,413.085 10.497,11.169 92.919,14.69 c 4.19,-4.26 6.78,-10.1 6.78,-16.56 v -9.299 z" />
          <path
             id="path899"
             fill="#fcf0b6"
             d="m 269.196,293.444 c 0,0 -18.84,-28.179 -20.709,-30.047 -1.868,-1.869 -31.047,0 -31.047,0 l -26.565,30.047 h -0.01 l -176.69,145.38 c 4.28,4.43 10.29,7.17 16.93,7.17 h 397.85 c 6.58,0 12.54,-2.7 16.83,-7.05 z" />
          <path
             id="path901"
             fill="#fbe372"
             d="m 376.86,184.942 c 15.428,17.94 38.265,29.335 63.727,29.335 4.068,0 8.064,-0.306 11.979,-0.868 v -48.905 l -33.24,-4.451 z" />
          <g
             id="g907"
             fill="#fdf5cb">
            <path
               id="path903"
               d="m 452.566,164.504 -183.37,128.94 -13.95,9.81 c -15.13,10.63 -35.3,10.63 -50.43,0 l -13.94,-9.81 h -0.01 L 7.496,164.504 c 0,-13.04 10.57,-23.6 23.61,-23.6 h 397.85 c 13.04,0 23.61,10.56 23.61,23.6 z" />
            <path
               id="path905"
               d="m 452.566,164.504 -183.37,128.94 -13.95,9.81 c -15.13,10.63 -35.3,10.63 -50.43,0 l -13.94,-9.81 h -0.01 L 7.496,164.504 c 0,-13.04 10.57,-23.6 23.61,-23.6 h 397.85 c 13.04,0 23.61,10.56 23.61,23.6 z" />
          </g>
        </g>
      </g>
      <path
         id="path912"
         fill="#fcf0b6"
         d="M 428.956,140.904 H 357.23 c 3.363,26.367 18.975,48.948 40.947,61.845 l 54.39,-38.245 c -0.001,-13.04 -10.571,-23.6 -23.611,-23.6 z" />
      <ellipse
         style="stroke-width:1.55599"
         ry="98.203125"
         rx="101.1721"
         id="circle914"
         fill="#e5827f"
         cy="161.39017"
         cx="393.82574" />
    </g>
    <path
       id="path920"
       fill="#fbe88c"
       d="m 92.153,413.085 c -12.045,0 -22.883,-5.156 -30.437,-13.377 l -47.541,39.116 c 4.28,4.43 10.29,7.17 16.93,7.17 h 397.85 c 6.58,0 12.54,-2.7 16.83,-7.05 L 414.4,413.085 Z" />
    <path
       id="path922"
       fill="#fcf0b6"
       d="M 50.825,140.904 H 31.106 c -13.04,0 -23.61,10.56 -23.61,23.6 l 43.329,30.467 z" />
    <g
       id="g932">
      <path
         d="m 452.38863,236.8149 c -4.143,0 -7.50401,3.358 -7.5,7.5 L 445.061,422.388 c 0.002,1.872 -0.337,3.662 -0.927,5.335 l -162.57,-133.809 48.881,-46.71412 c 3.388,-2.383 4.203,-7.061 1.82,-10.449 -2.381,-3.388 -7.058,-4.203 -10.449,-1.821 L 250.933,297.116 c -12.5,8.791 -29.299,8.792 -41.803,0 L 15.42,160.903 c 1.641,-7.15 8.042,-12.503 15.683,-12.503 h 101.70177 c 4.143,0 7.5,-3.358 7.5,-7.5 0,-4.142 -3.357,-7.5 -7.5,-7.5 H 31.103 c -17.077,0 -30.98,13.835 -31.098,30.886 -0.001,0.041 -0.002,0.083 -0.003,0.124 0,0.031 -0.002,0.062 -0.002,0.093 v 257.885 c 0,17.15 13.953,31.104 31.104,31.104 h 299.405 c 4.143,0 7.5,-3.358 7.5,-7.5 0,-4.142 -3.357,-7.5 -7.5,-7.5 H 31.104 c -1.387,0 -2.727,-0.195 -4.012,-0.526 l 164.137,-135.099 9.272,6.52 c 8.832,6.21 19.182,9.315 29.53,9.315 10.35,0 20.699,-3.105 29.53,-9.315 l 9.273,-6.521 164.139,135.1 c -1.286,0.332 -2.626,0.527 -4.015,0.527 H 321.53314 c -4.143,0 -7.5,3.358 -7.5,7.5 0,4.142 3.357,7.5 7.5,7.5 H 428.958 c 17.15,0 31.1196,-13.95301 31.103,-31.104 l -0.17237,-178.0731 c -0.004,-4.143 -3.358,-7.501 -7.5,-7.501 z M 15.928,427.725 C 15.338,426.052 15,424.261 15,422.388 V 178.946 l 163.499,114.969 z"
         id="path926"
         sodipodi:nodetypes="sssccccccccsssssccssssssscccscccsssssssscsccc" />
      <path
         d="m 120.155,148.4 173.3608,-0.78727 c 4.14296,-0.0188 7.5,-3.358 7.5,-7.5 0,-4.142 -3.35704,-7.51881 -7.5,-7.5 L 120.155,133.4 c -4.14296,0.0188 -7.5,3.358 -7.5,7.5 0,4.142 3.35804,7.51881 7.5,7.5 z"
         id="path928"
         sodipodi:nodetypes="sssssss" />
      <path
         style="stroke-width:1.53904"
         d="m 500.69319,117.80312 c -2.58499,-5.73434 -9.52018,-8.36621 -15.48952,-5.88364 -5.96936,2.48255 -8.7114,9.14293 -6.12484,14.87575 4.8339,10.71755 7.28541,22.10778 7.28541,33.85244 0,47.03897 -39.84751,85.30752 -88.82728,85.30752 -48.97979,0 -88.82728,-38.26855 -88.82728,-85.30752 0,-47.03897 39.84749,-85.306015 88.82728,-85.306015 19.62928,0 38.24404,6.037482 53.82625,17.462388 5.17468,3.79021 12.56217,2.83701 16.51033,-2.12963 3.94658,-4.96512 2.95405,-12.064403 -2.21594,-15.854609 -19.72665,-14.45949 -43.28211,-22.101738 -68.12064,-22.101738 -61.96912,0 -112.38432,48.417494 -112.38432,107.929604 0,59.51211 50.4152,107.93111 112.38432,107.93111 61.96913,0 112.3843,-48.4175 112.3843,-107.93111 -9.9e-4,-14.85767 -3.10482,-29.27191 -9.22807,-42.84455 z"
         id="path930" />
    </g>
  </g>
</svg>
