<svg id="Capa_1" enable-background="new 0 0 512 512" height="512" viewBox="0 0 512 512" width="512" xmlns="http://www.w3.org/2000/svg"><g><path d="m67.975 435.888-2.604-13.543c-2.06-10.714 6.15-20.653 17.06-20.653 8.33 0 15.487 5.912 17.06 14.092l4.447 23.126c.724 3.767 4.02 6.489 7.856 6.489h391.881c4.598 0 8.325 3.727 8.325 8.325v24.976c0 4.598-3.727 8.325-8.325 8.325h-495.35c-4.598 0-8.325-3.727-8.325-8.325v-24.976c0-4.598 3.727-8.325 8.325-8.325h51.793c5.025-.001 8.805-4.578 7.857-9.511z" fill="#c7865b"/><path d="m503.675 487.024h-23.935c4.598 0 8.325-3.727 8.325-8.325v-24.976c0-4.598-3.727-8.325-8.325-8.325h23.935c4.598 0 8.325 3.727 8.325 8.325v24.976c0 4.598-3.727 8.325-8.325 8.325z" fill="#b36d3c"/><path d="m261.845 436.768 36.821 8.63v-246.634h-66.602c-36.783 0-66.602 29.819-66.602 66.602v49.819c.001 57.991 39.923 108.35 96.383 121.583z" fill="#465a61"/><path d="m422.5 104.07v299.7c0 22.99-18.63 41.63-41.62 41.63h-98.86c-45.98 0-83.26-37.27-83.26-83.25v-61.7c0-21.82 8.57-42.77 23.86-58.33l33.38-33.99 28.43-36.42v-153l-28.43-18.71h62.44c57.47 0 104.06 46.59 104.06 104.07z" fill="#7a8c98"/><path d="m380.878 445.398h-98.862c-45.979 0-83.252-37.273-83.252-83.252v-61.694c0-10.702 2.072-21.189 5.976-30.94 6.55 63.296 42.048 109.769 109.389 126.811 16.295 4.124 30.443-11.838 24.517-27.567-6.421-17.042-9.8-35.218-9.8-53.571v-49.819c0-51.643 42.015-93.659 93.659-93.659v232.065c-.001 22.99-18.638 41.626-41.627 41.626z" fill="#596c76"/><path d="m287.22 0c34.484 0 62.439 27.955 62.439 62.439v83.252c0 34.484-27.955 62.439-62.439 62.439h-31.22v-208.13z" fill="#d3effd"/><path d="m134.428 59.596c0 6.449-1.957 12.434-5.305 17.41h-2.957c-20.07-.118-39.71 10.107-51.148 26.63l-7.922 11.322c-3.389-1.901-2.484-7.642-2.575-10.889 0-29.494 12.269-56.114 31.977-75.049 2.586-.422 4.852-.639 6.706-.639 17.245 0 31.224 13.98 31.224 31.215z" fill="#8d9ca8"/><path d="m282.217 64.668-8.032-19.812c-1.678-4.138-4.562-7.676-8.277-10.153-6.19-4.127-9.908-11.074-9.908-18.513v-16.19h-87.415c-27.983 0-53.383 11.047-72.085 29.015 2.581-.412 4.848-.637 6.704-.637 17.242 0 31.22 13.977 31.22 31.22 0 6.447-1.955 12.436-5.303 17.41h154.11c.901-4.044.606-8.344-1.014-12.34z" fill="#e9a761"/><path d="m283.228 77.006c-.793 3.575-2.514 6.943-5.12 9.715l-22.108 23.591h-157.844c-6.417-.008-12.799 1.092-18.863 3.183-3.271.948-9.117 4.276-12.197 1.463l7.922-11.322c10.002-14.388 26.207-24.12 43.577-26.167 2.503-.309 5.027-.464 7.572-.464h157.061z" fill="#e38523"/><path d="m452.284 436.768 24.539 5.751c6.275 1.471 12.282-3.291 12.282-9.736v-167.417c0-36.783-29.819-66.602-66.602-66.602-36.783 0-66.602 29.819-66.602 66.602v49.819c.001 57.991 39.923 108.35 96.383 121.583z" fill="#8d9ca8"/><path d="m400.65 512c9.196 0 16.65-7.455 16.65-16.65v-63.48c0-9.196-7.455-16.65-16.65-16.65-9.196 0-16.65 7.455-16.65 16.65v63.48c0 9.195 7.455 16.65 16.65 16.65z" fill="#f7e365"/><path d="m367.35 512c9.196 0 16.65-7.455 16.65-16.65v-63.48c0-9.196-7.455-16.65-16.65-16.65-9.196 0-16.65 7.455-16.65 16.65v63.48c-.001 9.195 7.454 16.65 16.65 16.65z" fill="#f3d332"/><path d="m267.447 512c9.196 0 16.65-7.455 16.65-16.65v-63.48c0-9.196-7.455-16.65-16.65-16.65-9.196 0-16.65 7.455-16.65 16.65v63.48c0 9.195 7.454 16.65 16.65 16.65z" fill="#f7e365"/><path d="m234.146 512c9.196 0 16.65-7.455 16.65-16.65v-63.48c0-9.196-7.455-16.65-16.65-16.65-9.196 0-16.65 7.455-16.65 16.65v63.48c0 9.195 7.455 16.65 16.65 16.65z" fill="#f3d332"/><g><path d="m452.2 313.24v123.51c-5.15-1.21-10.15-2.72-15-4.53v-118.98c0-4.15 3.36-7.5 7.5-7.5s7.5 3.35 7.5 7.5z" fill="#596c76"/></g><g><path d="m407.81 313.24v103.29c-5.35-3.84-10.36-8.09-15-12.71v-90.58c0-4.15 3.35-7.5 7.5-7.5 4.14 0 7.5 3.35 7.5 7.5z" fill="#596c76"/></g><g fill="#b36d3c"><path d="m54.477 445.398 3.706 19.694c.678 3.602 3.826 6.114 7.362 6.114.46 0 .927-.042 1.396-.131 4.071-.766 6.75-4.687 5.983-8.758l-4.891-25.989c.648 4.761-3.042 9.069-7.915 9.069h-5.641z"/><path d="m103.938 438.909 5.369 28.658c.678 3.602 3.826 6.114 7.362 6.114.46 0 .927-.042 1.396-.131 4.071-.766 6.75-4.687 5.983-8.758l-3.65-19.395h-8.604c-3.836.001-7.132-2.721-7.856-6.488z"/></g></g></svg>