<?xml version="1.0" encoding="UTF-8" standalone="no"?>
<svg
   xmlns:dc="http://purl.org/dc/elements/1.1/"
   xmlns:cc="http://creativecommons.org/ns#"
   xmlns:rdf="http://www.w3.org/1999/02/22-rdf-syntax-ns#"
   xmlns:svg="http://www.w3.org/2000/svg"
   xmlns="http://www.w3.org/2000/svg"
   xmlns:xlink="http://www.w3.org/1999/xlink"
   xmlns:sodipodi="http://sodipodi.sourceforge.net/DTD/sodipodi-0.dtd"
   xmlns:inkscape="http://www.inkscape.org/namespaces/inkscape"
   inkscape:version="1.0 (4035a4fb49, 2020-05-01)"
   sodipodi:docname="twitter.svg"
   id="svg664"
   version="1.1"
   width="36pt"
   viewBox="0 0 36 36.000027"
   height="36pt">
  <metadata
     id="metadata670">
    <rdf:RDF>
      <cc:Work
         rdf:about="">
        <dc:format>image/svg+xml</dc:format>
        <dc:type
           rdf:resource="http://purl.org/dc/dcmitype/StillImage" />
      </cc:Work>
    </rdf:RDF>
  </metadata>
  <defs
     id="defs668" />
  <sodipodi:namedview
     inkscape:current-layer="svg664"
     inkscape:window-maximized="1"
     inkscape:window-y="-8"
     inkscape:window-x="-8"
     inkscape:cy="160.91886"
     inkscape:cx="-79.489729"
     inkscape:zoom="0.62255859"
     showgrid="false"
     id="namedview666"
     inkscape:window-height="1017"
     inkscape:window-width="1920"
     inkscape:pageshadow="2"
     inkscape:pageopacity="0"
     guidetolerance="10"
     gridtolerance="10"
     objecttolerance="10"
     borderopacity="1"
     bordercolor="#666666"
     pagecolor="#ffffff" />
  <linearGradient
     gradientTransform="scale(0.07031252)"
     y2="349.05484"
     y1="71.986229"
     x2="299.49341"
     x1="169.994"
     gradientUnits="userSpaceOnUse"
     id="a">
    <stop
       id="stop641"
       stop-color="#00c3ff"
       offset="0" />
    <stop
       id="stop643"
       stop-color="#00b0ed"
       offset="1" />
  </linearGradient>
  <linearGradient
     id="b">
    <stop
       id="stop646"
       stop-opacity="0"
       stop-color="#00b0ed"
       offset="0" />
    <stop
       id="stop648"
       stop-color="#00a2ce"
       offset="1" />
  </linearGradient>
  <linearGradient
     gradientTransform="scale(0.07031252)"
     y2="-84.952179"
     y1="314.08682"
     xlink:href="#b"
     x2="-379.58643"
     x1="364.28253"
     gradientUnits="userSpaceOnUse"
     id="c" />
  <linearGradient
     gradientTransform="scale(0.07031252)"
     y2="504.47202"
     y1="437.38321"
     xlink:href="#b"
     x2="256.00031"
     x1="256.00031"
     gradientUnits="userSpaceOnUse"
     id="d" />
  <linearGradient
     gradientTransform="scale(0.07031252)"
     y2="231.94513"
     y1="482.07239"
     xlink:href="#b"
     x2="239.29373"
     x1="489.42099"
     gradientUnits="userSpaceOnUse"
     id="e" />
  <path
     style="fill:url(#a);stroke-width:0.0703125"
     id="path654"
     fill="url(#a)"
     d="m 29.560923,35.383679 c -7.699496,0.821777 -15.422338,0.821777 -23.1218339,0 -3.0701305,-0.327667 -5.49508855,-2.752625 -5.82275588,-5.82303 -0.82177763,-7.699497 -0.82177763,-15.422064 0,-23.1215599 C 0.94400055,3.3689586 3.3689586,0.94400055 6.4390891,0.61633322 c 7.6994959,-0.82177763 15.4220629,-0.82177763 23.1215599,0 3.070405,0.32766733 5.495363,2.75262538 5.82303,5.82275588 0.821778,7.6994959 0.821778,15.4220629 0,23.1215599 -0.327667,3.070405 -2.752351,5.495363 -5.822756,5.82303 z m 0,0" />
  <path
     style="fill:url(#c);stroke-width:0.0703125"
     id="path656"
     fill="url(#c)"
     d="m 33.42564,7.7412444 c -0.290588,-2.724336 -2.442261,-4.8762837 -5.166872,-5.1671468 -6.8324,-0.7289431 -13.685124,-0.7289431 -20.5175239,0 -2.7243357,0.2908631 -4.8762834,2.4428108 -5.1671465,5.1671468 -0.7289431,6.8323996 -0.7289431,13.6851236 0,20.5172496 0.2908631,2.72461 2.4428108,4.876558 5.1671465,5.167146 6.8323999,0.729218 13.6851239,0.729218 20.5172499,0 2.72461,-0.290588 4.876558,-2.442536 5.167146,-5.167146 0.729218,-6.832126 0.729218,-13.68485 0,-20.5172496 z m 0,0" />
  <path
     style="fill:url(#d);stroke-width:0.0703125"
     id="path658"
     fill="url(#d)"
     d="m 0.5394289,28.814402 c 0.0247193,0.24884 0.0502625,0.497681 0.0769043,0.746521 0.32766733,3.070131 2.7526254,5.495089 5.8230306,5.822756 7.6994962,0.821777 15.4220632,0.821777 23.1215592,0 3.070405,-0.327667 5.495089,-2.752625 5.822756,-5.822756 0.02664,-0.24884 0.05219,-0.497681 0.07718,-0.746521 z m 0,0" />
  <path
     style="fill:url(#e);stroke-width:0.0703125"
     id="path660"
     fill="url(#e)"
     d="M 35.992322,16.73493 28.519694,9.2625761 c -0.837434,0.4787298 -1.57544,0.7443239 -2.131349,0.8915409 -0.312561,0.08377 -0.567719,0.129365 -0.75119,0.154358 -0.842652,-0.8638001 -2.019288,-1.400208 -3.321718,-1.400208 -2.562562,0 -4.640352,2.077516 -4.640352,4.640627 0,0.09256 0.0025,0.184021 0.0085,0.275207 0.01236,0.222199 0.04065,0.440552 0.08432,0.652863 -1.069794,-0.01593 -4.546968,-0.301575 -7.8631925,-3.144288 -2.747e-4,0 -2.747e-4,-2.81e-4 -2.747e-4,-2.81e-4 H 9.9041782 L 8.3402739,9.7682222 c 0,0 -1.8347174,3.2022408 0.8627017,5.6321428 0.1183776,0.132111 0.2485657,0.262574 0.3911134,0.390839 0.011261,0.01263 0.023071,0.02499 0.034332,0.03763 -0.3540346,-0.02389 -1.4188848,-0.129913 -2.035218,-0.565247 0,0 -0.1238709,1.957216 1.5067754,3.398073 l 1.3167126,1.327972 c -0.401002,0.03323 -0.844575,0.02527 -1.1530163,-0.109863 0,0 0.2730103,1.159333 1.3282483,2.087129 l 1.844605,1.854218 c -1.106599,0.644623 -3.0437635,1.451295 -5.5936912,1.245301 L 18.03269,36.000012 c 3.844667,-0.0011 7.689334,-0.206543 11.528233,-0.616333 3.070405,-0.327667 5.495363,-2.752625 5.823031,-5.822756 0.455658,-4.270936 0.658081,-8.549014 0.608368,-12.825993 z m 0,0" />
  <path
     style="stroke-width:0.0703125"
     id="path662"
     fill="#ffffff"
     d="m 29.15745,11.064884 c -0.796509,0.416657 -1.996216,0.609192 -2.393922,0.664673 -0.0033,-0.01923 -0.0066,-0.03763 -0.0099,-0.05603 1.352142,-0.836334 1.766053,-2.4109509 1.766053,-2.4109509 -0.837434,0.4787298 -1.57544,0.7443239 -2.131349,0.8915409 -0.312561,0.08377 -0.567719,0.12909 -0.75119,0.154358 C 24.79449,9.4444 23.617854,8.908267 22.315424,8.908267 c -2.562562,0 -4.640352,2.077241 -4.640352,4.640627 0,0.09228 0.0025,0.184021 0.0085,0.274933 0.01236,0.222198 0.04065,0.440551 0.08432,0.652862 -1.240357,-0.0184 -5.717562,-0.398803 -9.4276461,-4.7084668 0,0 -2.0659798,3.6046158 1.407349,6.0669278 0,0 -1.407349,-0.04395 -2.1544196,-0.571565 0,0 -0.2197266,3.473329 3.7806717,4.571963 0,0 -1.4065254,0.352111 -2.1104746,0.04422 0,0 0.7036745,2.989381 4.2206736,3.209657 0,0 -2.522461,2.309327 -6.6415119,1.976991 2.0258796,1.282654 4.4277669,2.025055 7.0029629,2.025055 7.240816,0 13.110814,-5.869722 13.110814,-13.110539 0,-0.09036 -8.24e-4,-0.180725 -0.0027,-0.271088 0.0019,-0.05356 0.0027,-0.106842 0.0027,-0.160949 0,-0.03763 -8.24e-4,-0.07526 -0.0014,-0.112885 1.338685,-0.89209 2.202485,-2.371125 2.202485,-2.371125 z m 0,0" />
</svg>
