<?xml version="1.0" encoding="UTF-8" standalone="no"?>
<svg
   xmlns:osb="http://www.openswatchbook.org/uri/2009/osb"
   xmlns:dc="http://purl.org/dc/elements/1.1/"
   xmlns:cc="http://creativecommons.org/ns#"
   xmlns:rdf="http://www.w3.org/1999/02/22-rdf-syntax-ns#"
   xmlns:svg="http://www.w3.org/2000/svg"
   xmlns="http://www.w3.org/2000/svg"
   xmlns:sodipodi="http://sodipodi.sourceforge.net/DTD/sodipodi-0.dtd"
   xmlns:inkscape="http://www.inkscape.org/namespaces/inkscape"
   id="Capa_1"
   enable-background="new 0 0 512 512"
   height="650"
   viewBox="0 0 650 650"
   width="650"
   version="1.1"
   sodipodi:docname="unknown-user-big.svg"
   inkscape:version="1.0 (4035a4fb49, 2020-05-01)">
  <metadata
     id="metadata865">
    <rdf:RDF>
      <cc:Work
         rdf:about="">
        <dc:format>image/svg+xml</dc:format>
        <dc:type
           rdf:resource="http://purl.org/dc/dcmitype/StillImage" />
        <dc:title></dc:title>
      </cc:Work>
    </rdf:RDF>
  </metadata>
  <defs
     id="defs863">
    <linearGradient
       osb:paint="solid"
       id="linearGradient2821">
      <stop
         id="stop2819"
         offset="0"
         style="stop-color:#ff7902;stop-opacity:1;" />
    </linearGradient>
  </defs>
  <sodipodi:namedview
     inkscape:snap-midpoints="true"
     inkscape:snap-smooth-nodes="true"
     inkscape:snap-intersection-paths="true"
     inkscape:object-paths="true"
     inkscape:document-rotation="0"
     pagecolor="#ffffff"
     bordercolor="#666666"
     borderopacity="1"
     objecttolerance="10"
     gridtolerance="10"
     guidetolerance="10"
     inkscape:pageopacity="1"
     inkscape:pageshadow="2"
     inkscape:window-width="1920"
     inkscape:window-height="1017"
     id="namedview861"
     showgrid="false"
     inkscape:zoom="0.83007813"
     inkscape:cx="99.052086"
     inkscape:cy="306.77917"
     inkscape:window-x="-8"
     inkscape:window-y="-8"
     inkscape:window-maximized="1"
     inkscape:current-layer="layer2"
     inkscape:snap-page="true"
     inkscape:pagecheckerboard="false" />
  <g
     style="opacity:1"
     inkscape:label="back"
     id="layer1"
     inkscape:groupmode="layer">
    <g
       id="g858"
       transform="translate(613.19531,168.65881)"
       style="fill:#000000;fill-opacity:0">
      <rect
         y="-168.65881"
         x="-613.19531"
         height="650"
         width="650"
         id="rect22"
         style="fill:#000000;stroke-width:5;stroke-linecap:round;stroke-linejoin:round;paint-order:markers fill stroke;fill-opacity:0" />
    </g>
    <rect
       y="-3.4765626e-06"
       x="-2.4999999e-06"
       height="650"
       width="650"
       id="rect852"
       style="fill:#052136;fill-opacity:1;stroke-width:5;stroke-linecap:round;stroke-linejoin:round;paint-order:markers fill stroke;stroke:none;stroke-opacity:1" />
  </g>
  <g
     inkscape:label="logo"
     id="layer2"
     inkscape:groupmode="layer">
    <path
       d="m 371.97129,109.74106 c -45.13025,0.49574 -90.34468,-0.98898 -135.42393,0.73234 -47.19156,4.98703 -84.29177,51.00198 -79.98176,98.18081 1.01579,20.65722 27.66741,-4.25476 40.99698,2.23694 39.86217,0 79.72433,0 119.58651,0 0,21.84623 0,43.69246 0,65.53869 -24.8965,-2.94098 -52.67607,5.09039 -66.2789,27.53933 -15.59836,23.6581 -7.85743,53.33007 -9.51107,79.84692 1.36879,32.90599 18.81096,64.51793 45.71503,83.45104 0.67478,14.82487 -4.87679,18.10985 -18.32062,15.99569 -23.41578,0 -46.83156,0 -70.24734,0 -0.66928,-17.37288 -9.09167,-46.09589 -32.46115,-33.90068 -20.41569,8.45357 6.83183,41.81937 -20.65746,33.90149 -18.71145,-0.70884 -50.982636,-4.83818 -42.92988,24.685 -4.122842,27.19846 28.88237,17.01102 45.13682,18.86755 45.75522,0 91.51043,0 137.26564,0 -2.96595,17.80209 21.10502,28.00177 32.56696,14.9563 14.6114,16.61088 32.31481,-3.57571 34.51149,-14.96051 14.87596,0 29.7519,0 44.62787,0 -2.96986,17.95377 21.19936,27.83759 32.64707,15.03219 11.3329,13.42919 34.67086,1.95049 31.95554,-15.03219 25.3063,-3.20874 55.33013,6.64121 77.61119,-5.34622 3.91178,-14.39788 5.74824,-43.46346 -17.50135,-38.20293 -0.53654,-52.2035 1.08432,-104.52201 -0.82985,-156.65286 -4.0312,-26.75793 -28.10171,-48.43928 -55.02146,-50.07679 -1.29184,-31.92682 2.77145,-64.31401 -2.37408,-95.94165 -9.00626,-41.24179 -48.82092,-72.35794 -91.08225,-70.85046 z m 6.36919,8.34467 c 40.80593,2.38981 76.91297,37.23633 78.30578,78.52556 0.3567,26.63442 0.0323,53.28244 0.14201,79.92184 -33.89403,1.55696 -59.95759,34.93809 -55.86321,68.054 -0.35902,30.53691 -2.05834,63.23626 15.60607,89.96768 5.65222,8.62793 29.59424,33.58804 8.11076,26.26756 -19.98354,-13.53651 -26.92473,13.64755 -30.55102,22.44252 -14.91179,0 -29.82359,0 -44.73539,0 5.60779,-18.43527 -18.91934,-34.81 -32.2465,-19.04009 -10.54653,-12.59672 -29.25004,4.27398 -32.55304,-17.45918 -11.56783,-25.8891 -5.7436,-55.01572 -6.7183,-82.50598 -0.2862,-25.59564 17.97195,-45.14243 35.5995,-61.31286 15.85454,-21.4368 49.47414,-0.24496 68.2283,-21.38018 19.91603,-13.93193 25.02076,-39.64927 22.66992,-62.45464 -1.81747,-25.70294 4.66376,-52.97078 -5.65895,-77.34669 -4.42024,-9.71369 -12.19886,-17.06556 -20.33593,-23.67954 z M 248.15277,118.383 c 22.99878,0 45.99755,0 68.99633,0 -5.0205,23.58837 21.90425,33.63103 23.64044,55.93748 -39.52508,0 -79.05015,0 -118.57522,0 11.42716,-19.19455 -16.66857,-37.36791 -19.11746,-42.59721 13.3281,-8.65697 29.15493,-13.38468 45.05591,-13.34027 z m 77.64037,0 c 20.69199,-0.71175 44.80843,-1.20196 58.69422,17.22026 17.95854,21.55096 9.07738,51.07593 11.20931,76.6142 2.12149,25.04192 -0.72244,56.01092 -27.28364,67.33737 -12.40234,5.66076 -31.24325,6.30847 -42.62192,3.48944 0,-24.92249 0,-49.84497 0,-74.76746 16.12256,-13.61075 32.62465,-33.96891 16.34103,-54.75154 -5.18671,-13.85823 -20.07748,-17.7637 -16.339,-35.14227 z m -132.44782,23.79853 c 16.90197,-3.3178 31.8602,28.68835 13.94045,32.41446 -17.07429,1.31255 -32.2744,11.40483 -42.4173,24.86179 1.10644,-21.20471 9.62322,-42.12013 24.9349,-57.01694 z m 19.22772,40.78089 c 41.70224,0 83.40448,0 125.10671,0 -13.01481,25.04702 -39.39211,19.24997 -63.24082,19.28723 -32.05806,0.71409 -64.32012,-1.4631 -96.24946,1.148 -13.95376,2.48156 13.68999,-19.03616 22.2675,-18.86592 3.94915,-1.0385 8.0318,-1.57621 12.11607,-1.56931 z m 248.53098,102.10722 c 31.40664,-0.96647 56.08756,30.24946 51.53326,60.60107 0,45.48734 0,90.97467 0,136.46201 -18.84816,-1.95547 -35.98836,-5.96752 -28.598,-28.81365 -0.34017,-26.18684 0.69015,-52.56175 -0.51874,-78.63141 -11.4345,-6.79665 -7.49842,13.10595 -8.12243,20.00169 0,26.00573 0,52.01144 0,78.01715 -23.01069,-4.98064 -33.60495,-21.46031 -28.58868,-43.80342 -0.35703,-18.06733 0.73018,-36.35005 -0.55789,-54.2828 -11.44515,-6.59794 -7.4238,13.17809 -8.08186,20.06907 0,18.05812 0,36.11624 0,54.17436 -22.79927,-22.81687 -30.99652,-55.8057 -28.59715,-87.23648 -0.34888,-21.83606 -2.17025,-47.174 16.47933,-62.77393 9.41209,-8.78718 22.16937,-13.84329 35.05216,-13.78366 z m -159.71871,0.002 c 8.45558,0.38507 25.53235,-2.84138 10.05299,7.58375 -18.3,18.09915 -39.70966,37.08088 -41.69902,64.62507 -1.18532,27.40999 -2.0629,54.95568 1.41297,82.2033 -21.47962,-23.99413 -22.38824,-57.55398 -21.2886,-87.9654 -3.01279,-25.0395 6.82717,-53.50854 32.35277,-62.73867 6.07022,-2.47225 12.62135,-3.70466 19.16889,-3.70805 z M 175.98555,455.24976 c 21.18006,1.23612 4.76241,47.12581 24.1443,41.48507 -0.20239,-9.39858 14.45383,-2.92076 21.34714,-4.83012 21.12781,0 42.25562,0 63.38344,0 0,8.75649 0,17.51298 0,26.26946 -57.06965,0 -114.1393,0 -171.20895,0 -4.46273,-7.89374 -6.92558,-31.44317 9.32428,-26.26946 12.89814,0 25.79629,0 38.69444,0 8.59552,19.52751 10.77022,-10.48418 5.27571,-18.50258 -2.84523,-7.64974 -1.09009,-18.05538 9.03964,-18.15237 z m 127.15809,11.34477 c 18.97569,8.35261 5.66585,37.11418 9.64175,54.18704 7.27466,22.7575 -26.87168,22.53309 -19.28278,-0.29963 3.99816,-16.95677 -9.37655,-45.66401 9.64102,-53.88741 z m 27.92657,0 c 18.9705,8.36384 5.66881,37.13289 9.64176,54.21598 7.28375,22.66637 -26.81003,22.54109 -19.28277,-0.23453 4.00616,-16.98413 -9.38875,-45.73265 9.64102,-53.98145 z m 83.78187,0 c 18.97444,8.35736 5.66252,37.12022 9.63984,54.19553 7.42046,22.26444 -26.48084,22.9148 -19.28126,0.25818 4.10826,-16.17721 -9.50818,-47.57366 9.64142,-54.45371 z m 27.92657,0 c 18.97213,8.36806 5.66461,37.11362 9.63984,54.19553 7.45203,22.15985 -26.41495,23.02101 -19.28123,0.35425 4.12078,-16.20043 -9.52735,-47.65097 9.64139,-54.54978 z m -93.42523,25.31018 c 15.73778,0 31.47555,0 47.21333,0 0,8.75579 0,17.51157 0,26.26735 -15.73778,0 -31.47555,0 -47.21333,0 0,-8.75578 0,-17.51156 0,-26.26735 z m 111.70844,0 c 23.31825,0.71792 47.37511,-1.43397 70.23413,1.07001 1.20477,11.26468 4.26873,30.0277 -12.5706,25.19731 -19.22118,0 -38.44237,0 -57.66354,0 0,-8.75577 1e-5,-17.51154 1e-5,-26.26732 z"
       style="fill:#ffffff;fill-opacity:1;stroke:#02d4ff;stroke-width:2.13466667;stroke-linejoin:round;stroke-miterlimit:4;stroke-dasharray:none;stroke-opacity:1;paint-order:normal"
       id="path856" />
  </g>
</svg>
