<?xml version="1.0" encoding="UTF-8" standalone="no"?>
<svg
   xmlns:osb="http://www.openswatchbook.org/uri/2009/osb"
   xmlns:dc="http://purl.org/dc/elements/1.1/"
   xmlns:cc="http://creativecommons.org/ns#"
   xmlns:rdf="http://www.w3.org/1999/02/22-rdf-syntax-ns#"
   xmlns:svg="http://www.w3.org/2000/svg"
   xmlns="http://www.w3.org/2000/svg"
   xmlns:sodipodi="http://sodipodi.sourceforge.net/DTD/sodipodi-0.dtd"
   xmlns:inkscape="http://www.inkscape.org/namespaces/inkscape"
   id="Capa_1"
   enable-background="new 0 0 512 512"
   height="650"
   viewBox="0 0 650 650"
   width="650"
   version="1.1"
   sodipodi:docname="unknown-user.svg"
   inkscape:version="1.0 (4035a4fb49, 2020-05-01)">
  <metadata
     id="metadata865">
    <rdf:RDF>
      <cc:Work
         rdf:about="">
        <dc:format>image/svg+xml</dc:format>
        <dc:type
           rdf:resource="http://purl.org/dc/dcmitype/StillImage" />
        <dc:title></dc:title>
      </cc:Work>
    </rdf:RDF>
  </metadata>
  <defs
     id="defs863">
    <linearGradient
       osb:paint="solid"
       id="linearGradient2821">
      <stop
         id="stop2819"
         offset="0"
         style="stop-color:#ff7902;stop-opacity:1;" />
    </linearGradient>
  </defs>
  <sodipodi:namedview
     inkscape:snap-midpoints="true"
     inkscape:snap-smooth-nodes="true"
     inkscape:snap-intersection-paths="true"
     inkscape:object-paths="true"
     inkscape:document-rotation="0"
     pagecolor="#ffffff"
     bordercolor="#666666"
     borderopacity="1"
     objecttolerance="10"
     gridtolerance="10"
     guidetolerance="10"
     inkscape:pageopacity="1"
     inkscape:pageshadow="2"
     inkscape:window-width="1920"
     inkscape:window-height="1017"
     id="namedview861"
     showgrid="false"
     inkscape:zoom="1.1739077"
     inkscape:cx="163.10493"
     inkscape:cy="354.68535"
     inkscape:window-x="-8"
     inkscape:window-y="-8"
     inkscape:window-maximized="1"
     inkscape:current-layer="layer2"
     inkscape:snap-page="true"
     inkscape:pagecheckerboard="false" />
  <g
     style="opacity:1"
     inkscape:label="back"
     id="layer1"
     inkscape:groupmode="layer">
    <g
       id="g858"
       transform="translate(613.19531,168.65881)"
       style="fill:#000000;fill-opacity:0">
      <rect
         y="-168.65881"
         x="-613.19531"
         height="650"
         width="650"
         id="rect22"
         style="fill:#000000;stroke-width:5;stroke-linecap:round;stroke-linejoin:round;paint-order:markers fill stroke;fill-opacity:0" />
    </g>
    <rect
       y="-3.4765626e-06"
       x="-2.4999999e-06"
       height="650"
       width="650"
       id="rect852"
       style="fill:#052136;fill-opacity:1;stroke-width:5;stroke-linecap:round;stroke-linejoin:round;paint-order:markers fill stroke;stroke:none;stroke-opacity:1" />
  </g>
  <g
     inkscape:label="logo"
     id="layer2"
     inkscape:groupmode="layer">
    <path
       d="m 360.27344,76.107422 c -41.80852,0.459251 -83.69502,-0.916192 -125.4563,0.678431 -43.7181,4.619976 -78.08761,47.248067 -74.09483,90.954387 0.94103,19.13679 25.63099,-3.94159 37.97947,2.07229 36.92818,0 73.85636,0 110.78454,0 0,20.23828 0,40.47656 0,60.71484 -23.06403,-2.72452 -48.79894,4.71571 -61.40055,25.51234 -14.45027,21.91678 -7.2791,49.4048 -8.81102,73.96992 1.26804,30.48401 17.42641,59.7692 42.35025,77.30877 0.62512,13.73371 -4.51784,16.77691 -16.97216,14.81836 -21.6923,0 -43.38461,0 -65.07691,0 -0.62002,-16.09418 -8.42249,-42.70308 -30.0719,-31.40548 -18.91303,7.83136 6.32899,38.74133 -19.137,31.40622 -17.33423,-0.65666 -47.23015,-4.48206 -39.77011,22.86811 -3.81938,25.19656 26.75654,15.75895 41.81461,17.47884 42.38748,0 84.77496,0 127.16244,0 -2.74765,16.49179 19.55162,25.94074 30.16992,13.85546 13.53595,15.38827 29.93633,-3.31252 31.97133,-13.85937 13.78104,0 27.56207,0 41.34311,0 -2.75126,16.63232 19.63902,25.78866 30.24414,13.92578 10.49876,12.44075 32.11897,1.80693 29.60351,-13.92578 23.44368,-2.97256 51.25765,6.1524 71.89876,-4.95272 3.62385,-13.33815 5.32514,-40.2644 -16.2132,-35.39106 -0.49705,-48.36115 1.00451,-96.82885 -0.76877,-145.1227 -3.73449,-24.78845 -26.03333,-44.87399 -50.9717,-46.39097 -1.19676,-29.57691 2.56746,-59.58029 -2.19934,-88.88003 -8.34337,-38.20627 -45.22754,-67.032164 -84.37829,-65.635638 z m 5.90039,7.730469 c 37.80248,2.213913 71.25192,34.495619 72.54221,72.745829 0.33045,24.67404 0.0299,49.36067 0.13157,74.03933 -31.39933,1.44236 -55.54452,32.36653 -51.7515,63.045 -0.3326,28.2893 -1.90684,58.58187 14.45741,83.34577 5.2362,7.99288 27.41601,31.11585 7.51379,24.33418 -18.5127,-12.54018 -24.94298,12.64304 -28.30237,20.79067 -13.81424,0 -27.62848,0 -41.44272,0 5.19504,-17.07837 -17.52681,-32.24786 -29.87305,-17.63867 -9.77027,-11.66957 -27.09715,3.9594 -30.15703,-16.17413 -10.7164,-23.98358 -5.32085,-50.96638 -6.22381,-76.43327 -0.26514,-23.71172 16.64916,-41.8198 32.97926,-56.80003 14.68759,-19.85898 45.83268,-0.22693 63.20647,-19.80653 18.45015,-12.90649 23.17915,-36.73095 21.00134,-57.85778 -1.6837,-23.81111 4.32049,-49.07195 -5.24243,-71.65372 -4.0949,-8.998726 -11.30099,-15.809477 -18.83914,-21.936649 z m -120.60547,0.27539 c 21.30599,0 42.61198,0 63.91797,0 -4.65097,21.852199 20.29203,31.155679 21.90043,51.820309 -36.6159,0 -73.2318,0 -109.8477,0 10.58609,-17.78177 -15.4417,-34.61751 -17.71034,-39.461926 12.3471,-8.019789 27.00902,-12.39952 41.73964,-12.358383 z m 71.92578,0 c 19.169,-0.659357 41.51039,-1.113485 54.37414,15.952799 16.63673,19.96473 8.40925,47.31658 10.38427,70.97515 1.96534,23.19875 -0.66927,51.88832 -25.27548,62.38111 -11.48948,5.24411 -28.94364,5.84415 -39.48481,3.23261 0,-23.08811 0,-46.17622 0,-69.26433 14.93589,-12.60895 30.22337,-31.46868 15.13828,-50.72165 -4.80495,-12.83822 -18.59971,-16.45623 -15.1364,-32.555689 z M 194.79492,106.16016 c 15.65793,-3.07359 29.51518,26.5768 12.91439,30.02866 -15.81757,1.21594 -29.8989,10.5654 -39.29525,23.03188 1.025,-19.64397 8.91492,-39.01995 23.09961,-52.82031 z m 17.8125,37.77929 c 38.63281,0 77.26563,0 115.89844,0 -12.05688,23.20348 -36.49272,17.83311 -58.58609,17.86763 -29.69848,0.66153 -59.58595,-1.35542 -89.16518,1.0635 -12.92671,2.29891 12.68236,-17.63504 20.62854,-17.47733 3.65848,-0.96206 7.44064,-1.46019 11.22429,-1.4538 z m 230.23828,94.5918 c 29.09501,-0.89534 51.95933,28.023 47.74024,56.14063 0,42.13932 0,84.27864 0,126.41796 -17.46087,-1.81155 -33.3395,-5.5283 -26.49309,-26.69288 -0.31513,-24.2594 0.63935,-48.69303 -0.48056,-72.84387 -10.59288,-6.2964 -6.94651,12.1413 -7.52459,18.52949 0,24.09162 0,48.18323 0,72.27484 -21.31703,-4.61405 -31.13152,-19.88076 -26.48446,-40.57935 -0.33076,-16.73751 0.67644,-33.67456 -0.51683,-50.28741 -10.60274,-6.11231 -6.87738,12.20814 -7.48701,18.59192 0,16.72899 0,33.45797 0,50.18695 -21.12117,-21.13747 -28.71507,-51.69822 -26.4923,-80.81558 -0.32321,-20.22886 -2.01051,-43.70184 15.2664,-58.15357 8.71932,-8.14041 20.53763,-12.82437 32.4722,-12.76913 z m -147.96289,0.002 c 7.83322,0.35672 23.65308,-2.63225 9.31306,7.02556 -16.95306,16.76699 -36.7869,34.35161 -38.62984,59.86845 -1.09807,25.39253 -1.91106,50.91076 1.30897,76.15287 -19.89864,-22.22808 -20.74039,-53.31782 -19.72169,-81.49086 -2.79103,-23.19651 6.32467,-49.57013 29.9715,-58.1209 5.62344,-2.29028 11.69238,-3.43199 17.758,-3.43512 z m -116.16992,157.6523 c 19.62113,1.14514 4.41188,43.6572 22.36719,38.43164 -0.18749,-8.70682 13.38999,-2.70579 19.77592,-4.47461 19.57274,0 39.14548,0 58.71822,0 0,8.11198 0,16.22396 0,24.33594 -52.86914,0 -105.73828,0 -158.60742,0 -4.13425,-7.31274 -6.41583,-29.12886 8.63799,-24.33594 11.9488,0 23.8976,0 35.8464,0 7.96286,18.09022 9.9775,-9.71251 4.8874,-17.14074 -2.63581,-7.08669 -1.00985,-16.72644 8.3743,-16.81629 z m 117.79883,10.50976 c 17.57902,7.73783 5.24883,34.38245 8.93209,50.19869 6.73922,21.08248 -24.89384,20.87458 -17.86351,-0.27757 3.70389,-15.7087 -8.6864,-42.30299 8.93141,-49.92112 z m 25.87109,0 c 17.5742,7.74823 5.25156,34.39979 8.93209,50.2255 6.74765,20.99805 -24.83672,20.882 -17.86349,-0.21726 3.71129,-15.73405 -8.69771,-42.36658 8.93141,-50.00824 z m 77.61524,0 c 17.57787,7.74223 5.24574,34.38805 8.93032,50.20656 6.87429,20.6257 -24.53176,21.22819 -17.86209,0.23918 3.80587,-14.98652 -8.80835,-44.07209 8.93177,-50.44574 z m 25.87109,0 c 17.57572,7.75214 5.24767,34.38193 8.93032,50.20656 6.90353,20.52881 -24.47073,21.32659 -17.86208,0.32818 3.81748,-15.00803 -8.8261,-44.14371 8.93176,-50.53474 z m -86.54883,23.44727 c 14.57943,0 29.15885,0 43.73828,0 0,8.11133 0,16.22265 0,24.33398 -14.57943,0 -29.15885,0 -43.73828,0 0,-8.11133 0,-16.22265 0,-24.33398 z m 103.48633,0 c 21.60195,0.66507 43.88815,-1.32843 65.06467,0.99125 1.11609,10.43556 3.95454,27.81756 -11.64536,23.34271 -17.80644,0 -35.61288,0 -53.41932,0 0,-8.11132 1e-5,-16.22264 1e-5,-24.33396 z"
       style="fill:#ffffff;fill-opacity:1;stroke:#02d4ff;stroke-width:1.236;stroke-miterlimit:4;stroke-dasharray:none;stroke-opacity:1;stroke-linejoin:round;paint-order:normal"
       id="path856" />
  </g>
</svg>
