<?xml version="1.0" encoding="UTF-8" standalone="no"?>
<svg
   xmlns:dc="http://purl.org/dc/elements/1.1/"
   xmlns:cc="http://creativecommons.org/ns#"
   xmlns:rdf="http://www.w3.org/1999/02/22-rdf-syntax-ns#"
   xmlns:svg="http://www.w3.org/2000/svg"
   xmlns="http://www.w3.org/2000/svg"
   xmlns:sodipodi="http://sodipodi.sourceforge.net/DTD/sodipodi-0.dtd"
   xmlns:inkscape="http://www.inkscape.org/namespaces/inkscape"
   inkscape:version="1.0 (4035a4fb49, 2020-05-01)"
   sodipodi:docname="upload.svg"
   xml:space="preserve"
   style="enable-background:new 0 0 512 512;"
   viewBox="0 0 512 512"
   y="0px"
   x="0px"
   id="Capa_1"
   version="1.1"><metadata
   id="metadata953"><rdf:RDF><cc:Work
       rdf:about=""><dc:format>image/svg+xml</dc:format><dc:type
         rdf:resource="http://purl.org/dc/dcmitype/StillImage" /></cc:Work></rdf:RDF></metadata><defs
   id="defs951" /><sodipodi:namedview
   inkscape:current-layer="Capa_1"
   inkscape:window-maximized="1"
   inkscape:window-y="-8"
   inkscape:window-x="-8"
   inkscape:cy="256"
   inkscape:cx="256"
   inkscape:zoom="1.3476562"
   showgrid="false"
   id="namedview949"
   inkscape:window-height="1017"
   inkscape:window-width="1920"
   inkscape:pageshadow="2"
   inkscape:pageopacity="0"
   guidetolerance="10"
   gridtolerance="10"
   objecttolerance="10"
   borderopacity="1"
   bordercolor="#666666"
   pagecolor="#ffffff" />
<rect
   id="rect894"
   height="139.92386"
   width="430.26559"
   style="fill:#f25a78;stroke-width:0.874531"
   y="213.21974"
   x="43.620598" />
<g
   transform="matrix(0.87452364,0,0,0.87452364,34.875362,24.322629)"
   id="g900">
	<path
   id="path896"
   d="m 10,376 v 60 c 0,11.05 8.95,20 20,20 h 452 c 11.05,0 20,-8.95 20,-20 v -60 z"
   style="fill:#cceeff" />
	<path
   id="path898"
   d="M 482,136 H 366 L 331.53,67.06 C 328.14,60.28 321.21,56 313.64,56 H 198.36 c -7.57,0 -14.5,4.28 -17.89,11.06 L 146,136 H 110 V 116 C 110,104.95 101.05,96 90,96 H 70 c -11.05,0 -20,8.95 -20,20 v 20 H 30 c -11.05,0 -20,8.95 -20,20 v 60 h 492 v -60 c 0,-11.05 -8.95,-20 -20,-20 z"
   style="fill:#cceeff" />
</g>
<path
   id="path902"
   d="m 363.69633,283.18169 c 0,57.83675 -46.89037,104.94267 -104.94277,104.94267 -58.06314,0 -104.94287,-47.11726 -104.94287,-104.94267 0,-57.83661 46.89014,-104.94277 104.94287,-104.94277 58.06314,0 104.94277,47.11749 104.94277,104.94277 z"
   style="fill:#57555c;stroke-width:0.874531" />
<path
   id="path904"
   d="m 258.75356,213.21975 c 38.57531,0 69.9618,31.38671 69.9618,69.96194 0,38.57521 -31.38649,69.96192 -69.9618,69.96192 -38.57535,0 -69.96184,-31.38671 -69.96184,-69.96192 0,-38.57523 31.38649,-69.96194 69.96184,-69.96194 z"
   style="fill:#ffffff;stroke-width:0.874531" />
<path
   style="stroke-width:0.874531"
   id="path906"
   d="m 386.43398,186.98407 c 4.82729,0 8.74502,-3.9179 8.74502,-8.74515 0,-4.82746 -3.91773,-8.74531 -8.74502,-8.74531 -4.82742,0 -8.74527,3.91785 -8.74527,8.74531 0,4.82725 3.91785,8.74515 8.74527,8.74515 z" />
<path
   style="stroke-width:0.874531"
   id="path908"
   d="M 456.39582,134.51252 H 360.35568 L 332.62781,79.056453 C 328.15303,70.1092 319.16109,64.550725 309.16099,64.550725 H 208.34587 c -10.00195,0 -18.9937,5.558475 -23.46706,14.506584 L 157.1514,134.51252 h -17.33315 v -8.74515 c 0,-14.46634 -11.76938,-26.235691 -26.23575,-26.235691 H 96.092027 c -14.466362,0 -26.235711,11.769351 -26.235711,26.235691 v 8.74515 h -8.745243 c -14.466368,0 -26.235711,11.76943 -26.235711,26.23594 0,23.76513 0,235.62208 0,244.86653 0,14.46634 11.769343,26.23573 26.235711,26.23573 H 456.39582 c 14.46651,0 26.2359,-11.76939 26.2359,-26.23573 0,-23.76518 0,-235.62201 0,-244.86653 0,-14.46651 -11.76939,-26.23594 -26.2359,-26.23594 z M 52.365829,221.87757 H 162.95018 c -11.62236,18.15595 -17.88482,39.43389 -17.88482,61.30412 0,21.87179 6.26317,43.06419 17.88392,61.21677 H 52.365829 Z m 110.189991,61.30412 c 0,-53.52515 43.54254,-96.19762 96.19774,-96.19762 52.58751,0 96.19753,42.60592 96.19753,96.19762 0,53.53135 -43.5487,96.19765 -96.19753,96.19765 -52.69634,0 -96.19774,-42.71371 -96.19774,-96.19765 z m 209.8859,0 c 0,-21.87105 -6.26276,-43.06057 -17.88511,-61.2167 H 465.14109 V 344.39846 H 354.55661 c 11.62235,-18.15606 17.88511,-39.34579 17.88511,-61.21677 z M 200.52319,86.879079 c 1.49203,-2.983889 4.48912,-4.837887 7.82268,-4.837887 h 100.81512 c 3.33372,0 6.33157,1.853998 7.82349,4.837887 L 340.8014,134.51252 H 176.70568 Z M 87.346789,125.76737 c 0,-4.82209 3.923117,-8.74527 8.745238,-8.74527 H 113.5825 c 4.82213,0 8.74523,3.92318 8.74523,8.74527 v 8.74515 H 87.346789 Z m -26.235716,26.23561 c 7.941554,0 382.990877,0 395.284747,0 4.82231,0 8.74527,3.92313 8.74527,8.74548 v 43.7259 H 340.76093 c -21.36801,-22.27558 -51.02661,-34.98075 -82.00737,-34.98075 -30.9845,0 -60.64561,12.70858 -82.00858,34.98075 H 52.365829 v -43.7259 c 0,-4.82235 3.923123,-8.74548 8.745244,-8.74548 z M 456.39582,414.36026 H 61.111073 c -4.822121,0 -8.745244,-3.92313 -8.745244,-8.74527 V 361.88892 H 176.74569 c 21.36917,22.27575 51.02772,34.98083 82.00787,34.98083 30.98518,0 60.64639,-12.70858 82.00824,-34.98083 h 124.37929 v 43.72607 c 0,4.82214 -3.92296,8.74527 -8.74527,8.74527 z" />
<path
   style="stroke-width:0.874531"
   id="path910"
   d="m 284.989,99.531679 h -52.47138 c -4.82985,0 -8.74515,3.915231 -8.74515,8.745221 0,4.83017 3.9153,8.7452 8.74515,8.7452 H 284.989 c 4.82943,0 8.74539,-3.91503 8.74539,-8.7452 0,-4.82999 -3.91596,-8.745221 -8.74539,-8.745221 z" />
<path
   style="stroke-width:0.874531"
   id="path912"
   d="m 258.75356,361.88892 c 43.39898,0 78.70713,-35.30831 78.70713,-78.70723 0,-43.39906 -35.30815,-78.70733 -78.70713,-78.70733 -43.39919,0 -78.70723,35.30827 -78.70723,78.70733 0,43.39892 35.30804,78.70723 78.70723,78.70723 z m 0,-139.92393 c 33.75473,0 61.21647,27.46201 61.21647,61.2167 0,33.75469 -27.46174,61.21677 -61.21647,61.21677 -33.75473,0 -61.21682,-27.46208 -61.21682,-61.21677 0,-33.75469 27.46209,-61.2167 61.21682,-61.2167 z" />
<path
   style="stroke-width:0.874531"
   id="path914"
   d="m 223.77247,291.92708 c 4.83008,0 8.74515,-3.91549 8.74515,-8.74539 0,-14.46649 11.76951,-26.23564 26.23594,-26.23564 4.82914,0 8.74515,-3.91534 8.74515,-8.74533 0,-4.83 -3.91601,-8.74533 -8.74515,-8.74533 -24.11071,0 -43.7264,19.61554 -43.7264,43.7263 0,4.8299 3.91536,8.74539 8.74531,8.74539 z" />
<path
   style="stroke-width:0.874531"
   id="path916"
   d="m 421.4149,186.98407 h 17.49046 c 4.82943,0 8.74533,-3.91519 8.74533,-8.74515 0,-4.83007 -3.9159,-8.74531 -8.74533,-8.74531 H 421.4149 c -4.82926,0 -8.74527,3.91524 -8.74527,8.74531 0,4.82996 3.91601,8.74515 8.74527,8.74515 z" />
<g
   transform="matrix(0.87452364,0,0,0.87452364,34.875362,24.322629)"
   id="g918">
</g>
<g
   transform="matrix(0.87452364,0,0,0.87452364,34.875362,24.322629)"
   id="g920">
</g>
<g
   transform="matrix(0.87452364,0,0,0.87452364,34.875362,24.322629)"
   id="g922">
</g>
<g
   transform="matrix(0.87452364,0,0,0.87452364,34.875362,24.322629)"
   id="g924">
</g>
<g
   transform="matrix(0.87452364,0,0,0.87452364,34.875362,24.322629)"
   id="g926">
</g>
<g
   transform="matrix(0.87452364,0,0,0.87452364,34.875362,24.322629)"
   id="g928">
</g>
<g
   transform="matrix(0.87452364,0,0,0.87452364,34.875362,24.322629)"
   id="g930">
</g>
<g
   transform="matrix(0.87452364,0,0,0.87452364,34.875362,24.322629)"
   id="g932">
</g>
<g
   transform="matrix(0.87452364,0,0,0.87452364,34.875362,24.322629)"
   id="g934">
</g>
<g
   transform="matrix(0.87452364,0,0,0.87452364,34.875362,24.322629)"
   id="g936">
</g>
<g
   transform="matrix(0.87452364,0,0,0.87452364,34.875362,24.322629)"
   id="g938">
</g>
<g
   transform="matrix(0.87452364,0,0,0.87452364,34.875362,24.322629)"
   id="g940">
</g>
<g
   transform="matrix(0.87452364,0,0,0.87452364,34.875362,24.322629)"
   id="g942">
</g>
<g
   transform="matrix(0.87452364,0,0,0.87452364,34.875362,24.322629)"
   id="g944">
</g>
<g
   transform="matrix(0.87452364,0,0,0.87452364,34.875362,24.322629)"
   id="g946">
</g>
</svg>
