<?xml version="1.0" encoding="UTF-8" standalone="no"?>
<svg
   xmlns:dc="http://purl.org/dc/elements/1.1/"
   xmlns:cc="http://creativecommons.org/ns#"
   xmlns:rdf="http://www.w3.org/1999/02/22-rdf-syntax-ns#"
   xmlns:svg="http://www.w3.org/2000/svg"
   xmlns="http://www.w3.org/2000/svg"
   xmlns:sodipodi="http://sodipodi.sourceforge.net/DTD/sodipodi-0.dtd"
   xmlns:inkscape="http://www.inkscape.org/namespaces/inkscape"
   inkscape:version="1.0 (4035a4fb49, 2020-05-01)"
   height="48"
   width="48"
   sodipodi:docname="www.svg"
   xml:space="preserve"
   viewBox="0 0 48 48"
   y="0px"
   x="0px"
   id="Layer_1"
   version="1.1"><metadata
   id="metadata1038"><rdf:RDF><cc:Work
       rdf:about=""><dc:format>image/svg+xml</dc:format><dc:type
         rdf:resource="http://purl.org/dc/dcmitype/StillImage" /></cc:Work></rdf:RDF></metadata><defs
   id="defs1036" /><sodipodi:namedview
   inkscape:current-layer="Layer_1"
   inkscape:window-maximized="1"
   inkscape:window-y="-8"
   inkscape:window-x="-8"
   inkscape:cy="256"
   inkscape:cx="256"
   inkscape:zoom="1.6601562"
   showgrid="false"
   id="namedview1034"
   inkscape:window-height="1017"
   inkscape:window-width="1920"
   inkscape:pageshadow="2"
   inkscape:pageopacity="0"
   guidetolerance="10"
   gridtolerance="10"
   objecttolerance="10"
   borderopacity="1"
   bordercolor="#666666"
   pagecolor="#ffffff" />
<path
   id="path985"
   d="M 48,24 C 48,37.300031 37.300031,48 24,48 10.699969,48 0,37.300031 0,24 0,10.699969 10.699969,0 24,0 37.300031,0 48,10.699969 48,24 Z"
   style="fill:#55c0eb;stroke-width:0.0937499" />
<g
   transform="scale(0.09375)"
   id="g991">
	<path
   id="path987"
   d="m 19.2,347.733 c 0,-1.067 0,-1.067 0,-1.067 1.067,10e-4 1.067,1.067 0,1.067 2.133,1.067 2.133,0 3.2,-1.067 0,0 -1.067,0 -1.067,-1.067 0,-2.133 1.067,-3.2 3.2,-4.267 0,1.067 0,2.133 1.067,2.133 1.067,1.067 2.133,2.133 3.2,2.133 1.067,-1.067 2.133,-2.133 3.2,-3.2 2.133,1.067 4.267,3.2 6.4,4.267 1.067,1.067 5.333,1.067 6.4,0 0,0 0,-1.067 1.067,-1.067 0,0 0,-1.067 1.067,-1.067 C 48,343.467 48,343.467 48,342.4 c 0,-1.067 0,-1.067 0,-2.133 1.067,1.067 2.133,3.2 2.133,4.267 1.067,3.2 2.133,3.2 5.333,3.2 3.2,0 5.333,-1.067 8.533,0 1.067,0 1.067,0 2.133,0 2.133,0 3.2,-1.067 4.267,-1.067 3.2,0 4.267,-1.067 6.4,-3.2 1.067,-1.067 2.133,-1.067 3.2,-1.067 1.067,0 2.133,0 4.267,0 2.133,1.067 5.333,1.067 7.467,3.2 1.067,1.067 2.133,1.067 3.2,2.133 2.133,0 3.2,-1.067 5.333,-1.067 3.2,0 5.333,-2.133 7.467,-3.2 2.134,-1.067 3.2,-2.133 4.267,-3.2 1.067,-1.067 2.133,-2.133 4.267,-1.067 h 1.067 c 1.067,0 3.2,0 4.267,0 4.267,0 7.467,-1.067 9.6,-4.267 1.067,-1.067 1.067,-2.133 0,-3.2 -1.067,-1.067 -1.067,-2.133 -1.067,-4.267 0,-1.067 0,-2.133 0,-2.133 0,-2.133 -1.067,-3.2 -2.133,-4.267 -1.067,-1.067 -2.133,-2.133 -2.133,-4.267 -1.067,-1.067 -1.067,-2.133 -2.133,-3.2 1.067,-1.067 0,-2.133 0,-4.267 0,-1.067 -1.067,-2.133 -1.067,-3.2 -1.067,-2.133 -3.2,0 -5.333,-1.067 0,0 0,0 0,-1.067 v 0 c 1.067,0 2.133,0 3.2,0 0,-1.067 -1.067,-1.067 -1.067,-2.133 -1.067,-1.067 -1.067,-1.067 -2.133,-2.133 1.067,0 1.067,0 1.067,0 1.067,0 3.2,1.067 3.2,-2.133 v -1.067 c 1.067,-1.067 2.133,-3.2 1.067,-4.267 0,-3.2 -1.067,-6.4 -3.2,-8.533 -1.067,-1.067 -3.2,-2.133 -2.133,-4.267 v -1.064 -1.067 c 1.067,-2.133 0,-4.267 -1.067,-5.333 1.067,-1.067 1.067,-2.133 0,-4.267 -1.067,-1.067 -1.067,-2.133 1.067,-2.133 -1.067,-1.067 -3.2,-2.133 -4.267,-3.2 -1.067,-1.067 -1.067,-1.067 -2.133,-2.133 -1.067,-1.067 -1.067,-2.133 -1.067,-2.133 -1.067,-1.067 -2.133,-1.067 -1.067,-3.2 v -1.067 c 0,-1.067 -1.067,-2.133 -1.067,-3.2 0,0 0,0 -1.067,1.067 v 0 c -2.133,-1.067 -3.2,-1.067 -4.267,1.067 0,0 -1.067,0 -1.067,1.067 0,0 0,0 0,-1.067 0,-1.067 1.067,-1.067 1.067,-2.133 1.067,-1.067 2.133,-1.067 2.133,-2.133 v 0 c 1.067,0 1.067,0 2.133,0 0,-1.067 0,-2.133 -1.067,-2.133 -1.067,0 -2.133,-1.067 -3.2,-1.067 -1.067,0 -2.133,-1.067 -3.2,-2.133 -1.067,0 -1.067,0 -2.133,0 -1.067,0 -1.067,0 -2.133,0 -1.067,0 -2.133,0 -2.133,0 0,-1.067 0,-2.133 0,-2.133 0,-2.133 -1.067,-2.133 -2.133,-3.2 -3.2,0 -5.333,0 -5.333,-2.133 0,-1.067 0,-3.2 1.067,-5.333 0,-1.067 1.067,-2.133 1.067,-2.133 1.067,-1.067 2.133,-2.133 4.267,-2.133 2.133,-1.067 2.133,-2.133 1.067,-4.267 -1.067,-2.133 -3.2,-3.2 -4.267,-5.333 L 86.4,214.4 c 2.133,-1.067 4.267,-2.133 6.4,-3.2 1.067,-1.067 3.2,-1.067 4.267,-2.133 L 98.133,208 c -1.067,-1.067 -1.067,-2.133 -2.133,-2.133 -2.133,-2.133 -4.267,-2.133 -6.4,0 v 0 c -1.067,0 -2.133,0 -3.2,0 -1.067,-1.067 -1.067,-2.133 -2.133,-3.2 -2.133,-1.067 -2.133,-3.2 -2.133,-5.333 1.067,-3.2 2.133,-6.4 4.267,-8.533 1.067,0 1.067,-1.067 2.133,-2.133 1.066,-1.066 1.067,-1.067 3.2,-1.067 H 92.8 c 0,0 0,-1.067 1.067,-1.067 C 94.933,183.467 96,182.4 96,182.4 c 1.067,1.067 2.133,0 3.2,0 1.067,2.133 2.133,2.133 3.2,1.067 1.067,0 1.067,1.067 1.067,1.067 1.067,1.067 3.2,2.133 3.2,4.267 0,2.133 2.133,3.2 3.2,4.267 0,-1.067 1.067,-1.067 1.067,-2.133 l -1.067,-1.067 c 0,0 1.067,0 1.067,1.067 1.067,1.067 3.2,2.133 4.267,4.267 1.067,1.067 1.067,2.133 1.067,3.2 0,1.067 1.067,1.067 1.067,2.133 2.133,1.067 2.133,3.2 1.067,5.333 -1.067,1.067 -2.133,2.133 -2.133,3.2 -1.067,2.133 -1.067,3.2 -1.067,5.333 1.067,1.067 2.133,1.067 3.2,0 1.067,-1.067 2.133,-2.133 2.133,-2.133 1.067,-2.133 2.133,-4.267 3.2,-6.4 1.067,-1.067 4.267,-2.133 5.333,-2.133 1.067,0 2.133,0 4.267,1.067 h 1.067 c 2.133,1.067 3.2,1.067 5.333,2.133 l 1.067,-1.067 c 1.067,0 1.067,0 2.133,1.067 v 0 c 0,0 0,-1.067 -1.067,-1.067 1.067,0 1.067,1.067 2.133,1.067 1.067,-2.133 2.133,-3.2 3.2,-5.333 v 0 c 1.067,-1.067 2.133,-1.067 2.133,-2.133 0,1.067 -1.067,2.133 -2.133,2.133 -1.067,1.067 -1.067,1.067 -2.133,2.133 2.133,-1.067 4.267,-1.067 5.333,-3.2 v 1.067 c 2.133,0 3.2,0 4.267,-2.133 1.067,1.067 2.133,1.067 3.2,2.133 v 0 c -1.067,0 -1.067,-1.067 -2.133,-1.067 v 0 c 2.133,1.067 4.267,2.133 5.333,4.267 0,-1.067 1.067,-2.133 1.067,-2.133 1.067,-1.067 3.2,-2.133 5.333,-1.067 1.067,0 1.067,0 2.133,0 1.067,1.067 2.133,2.133 4.267,1.067 h 1.067 c 1.067,1.067 3.2,2.133 4.267,2.133 0,0 -1.067,0 -1.067,1.067 0,0 -1.067,0 -2.133,-1.067 -2.133,0 -3.2,1.067 -2.133,3.2 4.267,-1.067 6.4,2.133 9.6,3.2 v -1.067 0 0 0 c 0,-1.067 0,-2.133 -2.133,-2.133 -1.067,0 -1.067,-4.267 -1.067,-5.333 1.067,-1.067 1.067,-3.2 2.133,-3.2 -1.067,-1.067 -1.067,-2.133 -1.067,-3.2 v 0 l 1.067,1.067 c 1.067,0 2.133,1.067 3.2,0 1.067,-1.067 1.067,-2.133 0,-3.2 -1.067,-1.067 -2.133,-2.133 -4.267,-3.2 -2.133,-1.067 -4.267,-1.067 -7.467,-2.133 2.133,0 5.333,0 7.467,0 0,0 0,0 1.067,0 1.067,0 1.067,0 2.133,0 1.067,0 2.133,0 3.2,0 2.133,2.133 4.267,4.267 6.4,7.467 1.067,1.067 3.2,3.2 4.267,3.2 2.133,0 4.267,0 5.333,2.133 1.067,1.067 3.2,1.067 4.267,0 l 1.067,-1.067 c 1.067,0 1.067,-1.067 1.067,-2.133 0,-1.067 -1.067,-1.067 -1.067,-2.133 l 1.067,-1.067 c -1.067,-1.067 -2.133,-1.067 -3.2,-1.067 0,-1.067 0,-1.067 1.067,-1.067 1.067,0 1.067,1.067 2.133,1.067 v 0 c -1.067,-2.133 -1.067,-4.267 -2.133,-6.4 1.067,-1.067 1.067,-1.067 0,-2.133 v -1.067 c 0,-1.067 0,-2.133 0,-3.2 1.067,0 2.133,0 2.133,0 1.067,-1.067 1.067,-2.133 1.067,-3.2 0,-1.067 1.067,-1.067 1.067,-2.133 h -1.07 1.067 c 0,0 0,-1.067 -1.067,-1.067 l 1.067,-1.067 c 0,-1.067 1.067,-1.067 1.067,-2.133 0,-1.066 1.067,-2.133 1.067,-4.267 V 166.4 c -1.067,0 -2.133,0 -3.2,1.067 -1.067,1.067 -2.133,1.067 -3.2,1.067 h -1.067 c -1.067,0 -2.133,0 -3.2,0 0,-1.067 0,-2.133 1.067,-4.267 -1.067,-1.067 -1.067,-1.067 -2.133,-2.133 1.067,0 1.067,0 2.133,0 1.067,-1.067 3.2,-2.133 2.133,-4.267 l 1.067,1.067 3.2,-3.2 -1.067,-1.067 c 0,-1.067 0,-1.067 -1.067,-2.133 -1.067,-1.067 -1.067,-1.067 0,-2.133 0,-1.067 1.067,-2.133 1.067,-3.2 1.067,-1.067 1.067,-4.267 -1.067,-4.267 -1.067,0 -2.133,-1.067 -2.133,-2.133 0,-1.067 -1.067,-2.133 -1.067,-2.133 L 204.8,137.6 c -2.133,0 -3.2,1.067 -2.133,3.2 -3.2,0 -4.267,3.2 -5.333,4.267 -1.067,1.067 -2.133,2.133 -4.267,1.067 -1.067,-1.067 -2.133,0 -2.133,1.067 0,2.133 -1.067,4.267 -2.133,6.4 -1.067,1.067 -2.133,2.133 -2.133,3.2 l 1.067,1.067 c 0,0 0,0 -1.067,0 H 185.6 c -2.133,1.067 -3.2,0 -5.333,0 -1.067,0 -1.067,0 -2.133,0 v 0 c -2.133,2.133 -3.2,4.267 -5.333,7.467 h -1.067 c 0,0 -1.067,1.067 -1.067,2.133 -1.067,-1.067 -1.067,-2.133 -2.133,-1.067 0,-1.067 -1.067,-1.067 -1.067,-2.133 3.2,-2.133 3.2,-3.2 3.2,-4.267 l 1.067,-1.067 c 0,-1.067 0,-2.133 1.067,-2.133 2.133,-2.133 3.2,-3.2 5.333,-5.333 -1.067,-1.067 -1.067,-2.133 -2.133,-3.2 -1.067,-1.067 -2.133,-2.133 -2.133,-2.133 0,-2.133 -1.067,-3.2 -1.067,-4.267 V 140.8 c 0,-4.267 0,-7.467 -4.267,-9.6 1.067,-1.067 2.133,-3.2 3.2,-4.267 1.067,-1.067 1.067,-2.133 0,-3.2 0,0 -1.067,-2.133 0,-2.133 2.133,-2.133 4.267,-3.2 6.4,-4.267 1.067,-1.067 2.133,-1.067 3.2,-2.133 2.133,1.067 5.333,0 7.467,-1.067 1.067,1.067 2.133,1.067 3.2,1.067 1.067,0 1.067,-1.067 2.133,-2.133 0,1.067 1.067,1.067 2.133,0 1.067,0 1.067,-1.067 2.133,0 0,1.067 2.133,1.067 2.133,1.067 2.133,0 3.2,-1.067 5.333,-1.067 -1.067,-2.133 -3.2,-4.267 -2.133,-7.467 0,1.067 1.067,3.2 1.067,4.267 0,0 0,1.067 1.067,1.067 1.067,1.067 5.333,0 5.333,0 v -1.067 -1.067 h 1.067 l 1.067,1.067 c -2.134,2.133 1.066,2.133 1.066,3.2 0,-1.067 1.067,-1.067 1.067,-2.133 0,1.067 0,2.133 0,3.2 2.133,0 4.267,0 6.4,0 1.067,0 1.067,-1.067 2.133,-2.133 1.067,-1.067 1.067,-3.2 2.133,-4.267 2.133,1.067 3.2,2.133 3.2,-1.067 h 1.067 c -1.067,-1.067 -1.067,-3.2 0,-4.267 v -1.067 c -1.067,-1.067 -2.133,-3.2 -3.2,-4.267 -1.067,1.067 -3.2,2.133 -2.133,4.267 -1.067,0 -1.067,1.067 -2.133,1.067 -1.067,0 -1.067,-1.067 -2.133,-1.067 -2.133,1.067 -3.2,1.067 -5.333,2.133 -1.067,1.067 -2.133,1.067 -3.2,0 0,-1.067 1.067,-2.133 1.067,-3.2 0,-1.067 1.067,-2.133 3.2,-1.067 v 0 c 1.067,-1.067 1.067,-3.2 2.133,-4.267 0,-1.067 0,-1.067 -1.067,-1.067 -1.067,0 -1.067,1.067 -2.133,1.067 -2.133,0 -2.133,1.067 -3.2,1.067 1.067,-2.133 2.133,-3.2 2.133,-4.267 0,-1.067 0,-1.067 1.067,-1.067 V 89.6 c 0,-1.067 -1.067,-2.133 -1.067,-2.133 1.067,0 2.133,-1.067 3.2,-1.067 0,0 0,0 1.067,0 0,-1.067 0,-3.2 1.067,-4.267 0,-1.067 1.067,-2.133 2.133,-3.2 v -1.067 c 0,-1.067 1.067,-2.133 1.067,-2.133 v 0 0 c 0,-1.067 0,-1.067 1.067,-2.133 v 0 c -1.067,1.067 -2.133,1.067 -4.267,2.133 -1.067,-1.067 -3.2,0 -4.267,3.2 H 214.4 c -1.067,0 -2.133,1.067 -2.133,3.2 0,2.133 -1.067,4.267 1.067,5.333 -1.067,0 -2.133,1.067 -4.267,2.133 1.067,0 1.067,1.067 2.133,1.067 -1.067,2.133 -4.267,2.133 -6.4,0 -1.067,1.067 -2.133,2.133 -3.2,3.2 -1.067,-3.2 2.133,-3.2 3.2,-4.267 h -1.067 c 1.067,-2.133 0,-3.2 -2.133,-4.267 0,1.067 -1.067,2.133 -1.067,3.2 L 201.6,89.6 c 0,0 -1.067,0 -2.133,1.067 0,-2.133 0,-3.2 0,-4.267 l -1.067,1.067 c -1.067,-1.067 -3.2,-3.2 -4.267,-4.267 -2.133,-4.267 -3.2,-4.267 -2.133,-6.4 0,-1.067 0,-2.133 -1.067,-3.2 -1.067,0 -1.067,-3.2 0,-4.267 2.133,-3.2 1.067,-3.2 -1.067,-4.267 0,0 -1.067,0 -1.067,-1.067 -1.067,0 -2.133,0 -3.2,0 0,3.2 0,3.2 2.133,2.133 0,1.067 1.067,1.067 1.067,1.067 1.067,0 2.133,0 2.133,0 v 0 c -1.067,1.067 -2.133,1.067 -4.267,0 -1.067,-1.067 -3.2,0 -3.2,1.067 0,1.067 -1.065,2.134 -1.065,2.134 0,0 -1.067,0 -2.133,0 0,-1.067 0,-1.067 0,-1.067 1.067,0 2.133,0 1.067,-1.067 0,-1.067 0,-1.067 0,-2.133 v -1.067 c 0,-1.067 0,-2.133 -1.067,-3.2 C 176,60.8 173.867,57.6 172.8,54.4 c 2.133,-1.067 2.133,0 4.267,1.067 0,-2.133 1.067,-3.2 1.067,-4.267 l -1.067,-1.067 C 176,50.133 176,49.066 176,49.066 c -1.067,-3.2 -3.2,-6.4 -3.2,-10.667 0,-1.067 -1.067,-2.133 -2.133,-3.2 0,0 -1.067,0 -2.133,0 -1.066,0 -1.067,0 -2.133,-1.067 1.067,-1.067 2.133,-2.133 3.2,-4.267 -2.133,0 -3.2,1.067 -4.267,1.067 h -1.067 c 0,0 -1.067,-1.067 0,-1.067 0,-1.067 1.067,-3.2 2.133,-4.267 0,-1.067 1.067,-2.133 1.067,-3.2 0,0 0,0 -1.067,0 0,1.067 0,1.067 -1.067,2.133 -1.067,0 -2.133,1.067 -3.2,-1.067 0,0 -1.067,-1.067 -2.133,-1.067 3.2,0 3.2,0 3.2,-1.067 -3.2,-1.067 -6.4,-1.067 -8.533,-2.133 -17.067,7.467 -32,16 -46.933,26.667 v 0 c 0,2.133 0,3.2 0,5.333 0,0 1.067,0 1.067,1.067 0,0 0,-1.067 1.067,-1.067 0,0 0,-1.067 0,-2.133 h 1.067 c 0,1.067 0,3.2 0,4.267 v 0 c 1.067,-1.067 1.067,-2.133 2.133,-3.2 0,1.067 0,1.067 -1.067,2.133 0,1.067 -1.067,1.067 -1.067,2.133 0,2.133 0,3.2 -1.067,4.267 0,0 0,1.067 -1.067,1.067 0,1.067 -1.067,2.133 -1.067,3.2 V 64 c -1.067,0 -1.067,0 -2.133,1.067 l 1.067,1.067 c 0,0 0,1.067 0,2.133 0,0 0,1.067 1.067,1.067 0,0 -1.067,0 -2.133,0 1.067,0 1.067,1.067 2.133,1.067 -2.133,3.2 -3.2,4.267 -3.2,4.267 0,0 0,1.067 -1.067,1.067 0,2.133 0,4.267 -1.067,6.4 0,0 0,0 0,1.067 0,1.067 -1.067,4.267 -1.067,4.267 -2.133,1.067 -1.067,1.067 0,2.133 0,0 0,1.067 0,2.133 v 0 c -2.133,-2.133 -2.133,-3.2 -3.2,-5.333 v 0 1.067 c -1.067,0 -1.067,1.067 -1.067,1.067 0,1.067 1.067,2.133 0,4.267 0,1.067 0,3.2 0,5.333 -1.067,0 -4.267,5.333 -4.267,6.4 -1.067,0 -1.067,0 -2.133,1.067 -2.133,1.067 -3.2,2.133 -5.333,4.267 -1.067,1.067 -2.133,2.133 -3.2,3.2 -1.067,1.067 -2.133,2.133 -3.2,3.2 l -1.067,1.067 c -1.067,1.067 -1.067,2.133 -1.067,2.133 -1.067,2.133 -1.067,3.2 0,4.267 l -1.067,1.067 c 0,1.067 -1.067,3.2 -1.067,4.267 0,1.067 0,1.067 0,2.133 -1.067,1.067 0,2.133 0,3.2 0,2.133 1.067,4.267 0,5.333 0,2.133 -2.133,4.267 -2.133,6.4 -1.067,1.067 -1.067,3.2 -1.067,4.267 0,1.067 0,2.133 0,2.133 0,1.067 -1.067,1.067 -1.067,1.067 l -1.067,-1.067 c 0,1.067 0,3.2 0,4.267 1.067,2.133 0,3.2 -1.067,4.267 l -1.067,1.067 c 0,2.133 0,4.267 0,6.4 1.067,0 2.133,-1.067 2.133,-2.133 0,-1.066 0,-2.133 0,-2.133 2.133,-3.2 2.133,-6.4 3.2,-9.6 V 153.6 c 0,-3.2 1.067,-5.333 3.2,-7.467 0,2.133 2.133,3.2 0,5.333 -1.067,1.067 -1.067,3.2 -2.133,4.267 v 1.067 c 0,2.133 0,4.267 0,6.4 0,1.067 0,2.133 -1.067,2.133 0,0 0,1.067 0,2.133 v 1.067 c 0,2.133 -1.067,4.267 -1.067,6.4 0,2.133 -1.067,4.267 -3.2,5.333 -1.067,1.067 -2.133,1.067 -1.067,2.133 0,2.133 0,5.333 2.133,7.467 v 1.067 c 0,1.067 1.067,3.2 1.067,4.267 0,1.067 1.067,3.2 1.067,4.267 2.133,1.067 3.2,3.2 4.267,3.2 2.133,1.067 3.2,2.133 3.2,5.333 0,5.333 2.133,8.533 4.267,11.733 0,1.067 0,1.067 -1.067,2.133 0,2.133 0,3.2 -1.067,4.267 v 2.133 c 1.067,1.067 1.067,2.133 1.067,3.2 0,1.067 0,2.133 1.067,3.2 0,1.067 1.067,1.067 1.067,2.133 0,1.067 0,1.067 0,2.133 h 1.067 c 0,-2.133 0,-2.133 4.267,-1.067 0,1.067 0,2.133 0,2.133 -1.067,1.067 -2.133,3.2 -2.133,4.267 -1.067,1.067 -3.2,2.133 -3.2,4.267 -1.067,0 -2.133,0 -3.2,-1.067 v 0 c -2.133,1.067 -5.333,0 -8.533,1.067 v 0 c -1.067,1.067 -2.133,1.067 -2.133,2.133 l 1.067,1.067 c -1.067,1.067 -1.067,1.067 -3.2,0 -1.067,0 -3.2,2.133 -3.2,3.2 0,3.2 -1.067,6.4 -2.133,9.6 -1.067,2.133 -1.067,3.2 -2.133,5.333 0,1.067 -1.067,2.133 -2.133,3.2 v 1.067 c 0,3.2 0,5.333 1.067,8.533 1.067,3.2 2.133,6.4 -1.067,8.533 -3.2,3.2 -7.467,6.4 -10.667,8.533 -1.067,1.067 -2.133,2.133 -4.267,2.133 -4.267,2.133 -7.467,4.267 -10.667,7.467 0,0 0,1.067 -1.067,1.067 -3.2,1.067 -6.4,3.2 -9.6,4.267 -2.133,1.067 -5.333,2.133 -6.4,4.267 L 14.933,320 c -1.067,0 -1.067,1.067 -2.133,1.067 2.133,6.4 4.267,13.867 6.4,20.267 -1.067,6.399 -1.067,6.399 0,6.399 z"
   style="fill:#f3f3f3" />
	<path
   id="path989"
   d="m 506.667,205.867 v 0 c -3.2,2.133 -3.2,2.133 -6.4,1.067 0,0 -1.067,0 -1.067,-1.067 -2.133,-1.067 -2.133,-1.067 -3.2,1.067 -3.2,0 -3.2,-2.133 -4.267,-4.267 0,2.133 -1.067,3.2 -1.067,4.267 0,1.067 -1.067,3.2 -1.067,4.267 -1.067,-1.067 -1.067,-1.067 -1.067,-1.067 -1.067,0 -2.133,-1.067 -2.133,-3.2 0,-1.067 -1.067,-1.067 -1.067,-2.133 -1.067,-1.067 0,-2.133 0,-2.133 1.067,-1.067 1.067,-2.133 1.067,-3.2 V 198.4 c 1.067,-2.133 0,-3.2 -2.133,-5.333 C 483.2,192 481.067,190.933 480,192 c -1.067,-1.067 -3.2,-2.133 -4.267,-2.133 -1.067,-1.067 -2.133,0 -2.133,1.067 0,1.067 0,2.133 0,2.133 0,1.067 0,2.133 -1.067,2.133 -3.2,1.067 -5.333,0 -7.467,-1.067 -1.067,-1.067 -2.133,-1.067 -1.067,-3.2 -5.333,-2.133 -8.533,-2.133 -11.733,0 1.067,0 1.067,1.067 2.133,1.067 -1.067,0 -1.067,1.067 -2.133,1.067 0,-1.067 0,-2.133 0,-3.2 0,-1.067 -1.067,-2.133 -1.067,-2.133 0,1.067 -1.067,2.133 -1.067,2.133 -1.067,0 -2.133,0 -3.2,-2.133 -1.067,0 -2.133,0 -2.133,-1.067 -1.067,1.067 -1.067,1.067 -1.067,3.2 2.133,-1.067 2.133,-1.067 2.133,0 -1.067,0 -2.133,1.067 -3.2,1.067 0,1.067 -3.2,2.133 -6.4,2.133 1.067,-1.067 2.133,-2.133 3.2,-3.2 1.067,0 2.133,0 2.133,-1.067 0,-1.067 1.067,-2.133 2.133,-2.133 1.067,-2.133 2.133,-4.267 4.267,-4.267 0,0 0,0 1.067,0 1.067,-1.067 2.133,-2.133 2.133,-3.2 1.067,-1.067 1.067,-2.133 1.067,-3.2 0,-1.067 -1.067,-2.133 0,-4.267 v -1.067 c 0,-1.067 -1.067,-2.133 -1.067,-2.133 0,0 0,0 -1.067,1.067 0,-1.067 0,-2.133 -1.067,-2.133 -2.133,-2.133 -3.2,-4.267 -6.4,-3.2 H 441.6 c -1.067,0 -2.133,0 -2.133,1.067 -1.067,1.067 -2.133,2.133 -3.2,1.067 1.067,-1.067 1.067,-1.067 2.133,-2.133 1.067,-2.133 1.067,-2.133 -1.067,-3.2 -1.067,0 -1.067,0 -2.133,-1.067 v 0 h -1.067 c 0,-1.067 1.067,-1.067 1.067,-2.133 1.067,-1.067 1.067,-2.133 0,-3.2 -1.067,0 -1.067,-1.067 -2.133,-1.067 -1.067,-1.067 -3.2,0 -3.2,1.067 -1.067,1.067 -2.133,3.2 -3.2,4.267 0,1.067 -1.067,2.133 -1.067,3.2 0,1.067 0,1.067 0,2.133 -2.133,0 -3.2,0 -5.333,1.067 1.067,1.067 2.133,2.133 1.067,4.267 -1.067,-1.067 -1.067,-1.067 -2.133,-2.133 -3.2,1.067 -3.2,2.133 -4.267,3.2 -1.067,0 -1.067,1.067 -2.133,1.067 0,0 -1.067,0 -1.067,-1.067 1.067,-1.067 0,-1.067 -1.067,-1.067 -1.067,0 -2.133,0 -4.267,0 -1.067,0 -1.067,0 -2.133,0 l 1.067,1.067 c -1.067,0 -1.067,0 -1.067,1.067 -2.133,1.067 -4.267,1.067 -5.333,2.133 -1.067,0 -3.2,1.067 -3.2,2.133 -1.067,1.067 -2.133,2.133 -3.2,1.067 l 1.067,1.067 c 0,1.067 -1.067,2.133 -1.067,3.2 -1.067,0 -1.067,-1.067 -2.133,-1.067 -1.067,2.133 1.067,1.067 1.067,2.133 l -1.067,1.067 v 0 c 0,1.067 1.067,1.067 1.067,2.133 0,1.067 -1.067,2.133 -2.133,2.133 -3.2,0 -6.4,1.067 -9.6,2.133 -2.133,0 -3.2,3.2 -2.133,4.267 0,1.067 1.067,1.067 1.067,2.133 0,1.067 0,2.133 2.133,3.2 1.067,1.067 3.2,2.133 4.267,3.2 v 1.067 c -1.067,2.133 0,4.267 0,6.4 0,1.067 0,2.133 -1.067,2.133 v 1.067 c -1.067,0 -2.133,-1.067 -1.067,-2.133 0,-2.133 -1.067,-4.267 1.067,-6.4 0,0 0,-1.067 1.067,-2.133 H 384 c -2.133,0 -3.2,0 -4.267,-2.133 -1.067,-2.133 -3.2,-2.133 -6.4,-2.133 -1.067,0 -1.067,0 -1.067,1.067 l 1.067,1.067 c -2.133,2.133 -2.133,2.133 -3.2,0 -1.067,1.067 0,2.133 0,2.133 1.067,1.067 2.133,2.133 3.2,2.133 0,1.067 0,1.067 1.067,2.133 -2.133,-1.067 -4.267,-2.133 -6.4,-2.133 0,-1.067 0,-2.133 0,-3.2 0,-1.067 0,-2.133 0,-3.2 1.067,-2.133 0,-4.267 -1.067,-5.333 v 1.067 c 1.067,2.133 0,4.267 -2.133,5.333 v 0 c -1.067,1.067 -1.067,2.133 -1.067,4.267 1.067,1.067 1.067,2.133 1.067,3.2 0,1.067 1.067,1.067 0,2.133 -1.067,3.2 -1.067,5.333 0,9.6 1.067,0 2.133,0 3.2,0 1.067,0 2.133,0 3.2,0 2.133,1.067 2.133,3.2 3.2,4.267 0,1.067 -1.067,2.133 -1.067,2.133 0,0 1.067,1.067 2.133,2.133 -2.133,0 -2.133,0 -2.133,-1.067 1.067,-2.133 0,-4.267 -2.133,-6.4 -1.067,0 -1.067,0 -2.133,1.067 -3.2,1.067 -3.2,1.067 -2.133,4.267 0,1.067 0,2.133 0,3.2 0,1.067 -1.067,2.133 -1.067,3.2 0,0 0,1.067 -1.067,1.067 -1.067,1.067 -2.133,2.133 -3.2,3.2 -1.067,0 -2.133,0 -2.133,0 -1.067,0 -2.133,-1.067 -1.067,-2.133 1.067,1.067 2.133,2.133 3.2,1.067 0,-1.067 0,-3.2 0,-3.2 2.133,0 1.067,-2.133 2.133,-3.2 1.067,-2.133 1.067,-4.267 1.067,-5.333 v -1.067 c -3.2,-3.2 0,-6.4 -1.067,-9.6 v 0 c 0,-2.133 1.067,-4.267 -1.067,-6.4 -1.067,-1.067 -1.067,-2.133 0,-3.2 1.067,-2.133 1.067,-4.267 1.067,-5.333 0,0 0,-1.067 -1.067,-1.067 -2.133,0 -4.267,-1.067 -6.4,-1.067 0,1.067 -1.067,2.133 -1.067,3.2 0,3.2 -1.067,6.4 -4.267,7.467 l -1.067,1.067 c 0,1.067 0,1.067 0,2.133 0,0 1.067,0 1.067,1.067 0,2.133 -1.067,4.267 -1.067,7.467 2.133,0 3.2,1.067 3.2,2.133 0,1.067 1.067,1.067 1.067,2.133 0,1.067 -1.067,2.133 -1.067,3.2 -1.067,-1.067 -2.133,-3.2 -3.2,-3.2 -3.2,-2.133 -6.4,-5.333 -10.667,-5.333 -1.067,0 -2.133,0 -3.2,1.067 0,0 0,1.067 0,2.133 0,1.066 1.067,2.133 0,3.2 -1.067,0 -2.133,1.067 -1.067,2.133 0,0 -1.067,0 -1.067,1.067 v -1.067 c 0,-1.067 0,-2.133 -1.067,-3.2 -1.067,1.067 -2.133,2.133 -3.2,2.133 -1.067,0 -1.067,1.067 -2.133,1.067 -2.133,0 -4.267,0 -5.333,3.2 -1.067,-1.067 -1.067,-2.133 -1.067,-2.133 0,-1.067 0,-2.133 0,-2.133 v 0 c 0,1.067 -1.067,1.067 -1.067,2.133 -2.133,-1.067 -1.067,1.067 -1.067,1.067 -1.067,0 -2.133,0 -2.133,1.067 -2.133,1.067 -4.267,2.133 -5.333,3.2 -1.067,1.067 -2.133,1.067 -2.133,3.2 0,2.133 -1.067,2.133 -2.133,3.2 -1.067,0 -2.133,-1.067 -2.133,-1.067 -2.133,-2.133 -2.133,-4.267 1.067,-5.333 v 0 c 0,-4.267 -2.133,-4.267 -7.467,-4.267 2.133,1.067 2.133,3.2 2.133,4.267 0,1.067 0,1.067 0,2.133 v 1.067 c 1.067,1.067 1.067,2.133 1.067,3.2 0,1.067 0,2.133 -1.067,3.2 L 299.733,240 c -1.067,-1.067 -3.2,-1.067 -4.267,0 -1.067,1.067 -2.133,2.133 -3.2,2.133 -2.133,1.067 -2.133,2.133 -1.067,3.2 0,1.067 1.067,2.133 1.067,3.2 v 0 c -3.2,-1.067 -5.333,-2.133 -8.533,-3.2 0,1.067 0,2.133 0,2.133 0,1.067 1.067,1.067 2.133,2.133 v 0 c 0,1.067 0,1.067 1.067,2.133 -1.067,1.067 -3.2,0 -4.267,-1.067 -1.067,-1.067 -2.133,-1.067 -2.133,-2.133 0,-1.066 -1.067,-2.133 -1.067,-3.2 v -1.067 c 0,-1.067 1.067,-2.133 0,-3.2 -2.133,-2.133 -3.2,-3.2 -5.333,-5.333 v 0 c 0,0 1.067,0 1.067,1.067 2.133,1.067 3.2,2.133 5.333,3.2 2.133,1.067 4.267,1.067 6.4,2.133 1.067,0 3.2,0 4.267,0 2.133,-1.067 3.2,-2.133 3.2,-4.267 0,-3.2 -1.067,-5.333 -5.333,-6.4 -1.067,0 -1.067,-1.067 -2.133,-1.067 -1.067,-1.067 -2.133,-2.133 -4.267,-4.267 l -1.067,-1.067 c -2.133,0 -5.333,-1.067 -6.4,-2.133 0,0 0,-1.067 -1.067,-1.067 v 0 c 0,0 1.067,0 1.067,1.067 0,-1.067 0,-1.067 -2.133,-2.133 0,0 0,1.067 -1.067,1.067 h -3.2 c -1.067,-1.067 -1.067,-2.133 -2.133,-3.2 2.133,1.067 3.2,0 4.267,-2.133 -1.067,-1.067 -3.2,-2.133 -4.267,-3.2 0,1.067 -1.067,2.133 -1.067,2.133 v 0 c 0,-1.067 0,-2.133 0,-3.2 0,0 -1.067,0 -1.067,-1.067 -1.067,2.133 -1.067,3.2 -2.133,4.267 v 0 c 0,-1.067 0,-2.133 0,-3.2 -1.067,2.133 -2.133,3.2 -3.2,5.333 v 0 c 1.067,-1.067 1.067,-3.2 2.133,-4.267 -1.067,0 -1.067,-1.067 -2.133,-1.067 l -1.067,1.067 c 1.067,1.067 0,2.133 -1.067,2.133 -1.066,1.069 -1.066,2.136 -2.133,2.136 -1.067,0 -2.133,-1.067 -3.2,-1.067 0,1.067 1.067,2.133 1.067,2.133 -2.133,-1.067 -3.2,0 -3.2,2.133 0,-1.067 0,-2.133 0,-2.133 l -1.067,1.067 c -2.133,-1.067 -1.067,1.067 -2.133,1.067 h -1.067 c 0,1.067 0,1.067 0,2.133 -1.067,-1.067 -2.133,-1.067 -3.2,-2.133 0,1.067 -1.067,2.133 -1.067,3.2 1.067,0 1.067,0 2.133,0 1.067,2.133 -1.067,2.133 -2.133,3.2 1.067,0 1.067,0 2.133,1.067 v 0 h -2.133 v 2.133 c 0,-1.067 -1.067,-1.067 -1.067,-1.067 0,1.067 0,2.133 -1.067,2.133 0,0 0,1.067 -1.067,1.067 -1.067,0 -1.067,1.067 -2.133,2.133 0,0 0,1.067 -1.067,1.067 -2.133,1.067 -1.067,4.267 -3.2,5.333 -1.067,1.067 -1.067,1.067 -1.067,2.133 v 1.067 1.067 c -1.067,0 -2.133,1.067 -1.067,3.2 -2.133,0 -2.133,2.133 -3.2,4.267 0,1.067 1.067,1.067 1.067,2.133 -1.067,0 -1.067,-1.067 -2.133,0 -1.067,0 -2.133,1.067 -3.2,2.133 -1.067,1.067 -2.133,1.067 -2.133,2.133 0,0 1.067,0 1.067,1.067 -1.067,1.067 -2.133,1.067 -2.133,2.133 -1.067,0 -1.067,1.067 -2.133,2.133 0,0 1.067,0 1.067,1.067 -1.067,0 -2.133,2.133 -1.067,2.133 0,0 0,1.067 1.067,1.067 1.067,0 3.2,0 4.267,0 0,0 0,1.067 -1.067,1.067 -1.067,-1.067 -2.133,0 -3.2,0 -1.067,0 -1.067,1.067 0,2.133 v 2.133 c 2.133,-2.133 2.133,-2.133 3.2,-2.133 -1.067,1.067 -2.133,2.133 -2.133,3.2 -1.067,0 -1.067,1.067 -2.133,1.067 v 0 c 1.067,0 1.067,0 2.133,0 0,1.067 -1.067,1.067 -1.067,2.133 v 1.067 c 1.067,1.067 2.133,2.133 3.2,3.2 0,0 1.067,0 2.133,-1.067 2.133,-1.067 2.133,-3.2 4.267,-3.2 v -1.067 c 0,-1.067 0,-1.067 0,-2.133 0,1.067 1.067,3.2 1.067,4.267 1.067,3.2 1.067,5.333 3.2,8.533 1.067,1.067 0,3.2 -1.067,3.2 -1.067,0 -1.067,1.067 -2.133,1.067 1.067,1.067 2.133,2.133 2.133,3.2 0,-1.067 1.067,-2.133 1.067,-3.2 1.067,2.133 2.133,1.067 3.2,1.067 1.067,-2.133 1.067,-2.133 3.2,-3.2 h 1.067 c 1.067,-3.2 1.067,-5.333 2.133,-8.533 0,-1.067 1.067,-3.2 2.133,-3.2 1.067,0 1.067,-1.067 1.067,-1.067 -1.067,0 -2.133,0 -3.2,0 0,0 0,0 0,-1.067 1.067,0 2.133,1.067 3.2,0 1.067,0 2.133,-1.067 2.133,-2.133 0,-2.133 -2.133,-3.2 -4.267,-2.133 0,-3.2 1.067,-5.333 1.067,-8.533 v 0 c 1.067,-2.133 2.133,-4.267 5.333,-5.333 1.067,-1.067 2.133,-2.133 3.2,-3.2 0,0 0,-1.067 0,-2.133 -1.067,-2.133 0,-3.2 1.067,-4.267 0,-1.067 1.067,-1.067 2.133,-2.133 1.067,0 2.133,0 3.2,0 0,0 0,0 0,-1.067 l 1.067,1.067 c 0,1.067 1.067,2.133 1.067,3.2 l -1.067,1.067 v 0 c -1.067,2.133 -2.133,4.267 -4.267,6.4 0,1.067 -1.067,1.067 -2.133,1.067 -1.067,1.067 -2.133,2.133 -2.133,4.267 0,2.134 1.067,4.267 0,6.4 0,1.067 0,2.133 1.067,2.133 1.067,1.067 2.133,1.067 3.2,2.133 H 256 c 1.067,0 2.133,-1.067 3.2,-1.067 2.133,-1.067 5.333,-1.067 7.467,-2.133 v 0 c -1.067,1.067 0,2.133 1.067,2.133 1.067,0 1.067,0 2.133,1.067 -2.133,1.067 -3.2,1.067 -5.333,2.133 -2.133,0 -4.267,-1.067 -7.467,0 -1.067,1.067 -2.133,1.067 -1.067,2.133 0,1.067 0,3.2 2.133,2.133 0,2.133 0,4.267 -1.067,5.333 -2.133,0 -2.133,-2.133 -4.267,-3.2 -1.067,0 -1.067,1.067 -2.133,1.067 -1.067,2.133 -2.133,4.267 -1.067,6.4 0,1.067 0,2.133 0,4.267 -2.133,-1.067 -2.133,0 -3.2,1.067 0,1.067 -1.067,1.067 -2.133,1.067 0,0 0,-1.067 -1.067,-2.133 -2.133,0 -8.533,2.133 -9.6,4.267 -1.067,-1.067 -1.067,-1.067 -2.133,-1.067 0,-1.067 0,-1.067 0,-2.133 -2.133,1.067 -4.267,2.133 -6.4,3.2 0,-1.067 0,-1.067 0,-1.067 -1.067,0 -2.133,0 -2.133,-1.067 -1.067,-1.067 -1.067,-2.133 -1.067,-4.267 1.067,1.067 1.067,1.067 1.067,1.067 H 224 c 0,-1.067 0,-1.067 0,-2.133 -1.067,0 -1.067,0 -2.133,1.067 0,-1.067 1.067,-1.067 1.067,-2.133 0,-1.066 1.067,-1.067 2.133,-2.133 -2.133,0 -2.133,-1.067 -2.133,-2.133 0,-1.067 0,-2.133 0,-3.2 -1.067,1.067 -2.133,2.133 -3.2,2.133 -2.133,2.133 -3.2,4.267 -1.067,7.467 v 1.067 c 0,1.067 0,3.2 0,4.267 v 0 c 0,1.067 -1.067,1.067 -1.067,2.133 -1.067,-1.067 -2.133,-1.067 -3.2,0 0,0 0,0 -1.067,0 -2.133,0 -2.133,0 -3.2,2.133 v 1.067 0 -2.133 0 c 0,1.067 -1.067,3.2 -2.133,5.333 -1.067,0 -2.133,1.067 -4.267,2.133 l -1.067,1.067 c 0,1.067 -1.067,2.133 -2.133,3.2 0,0 -1.067,0 -1.067,1.067 -1.067,1.067 -2.133,1.067 -3.2,0 H 195.2 c 0,1.067 0,2.133 1.067,3.2 -1.067,0 -2.133,0 -3.2,0 -2.133,-1.067 -3.2,0 -4.267,0 0,2.133 1.067,2.133 2.133,2.133 2.133,0 3.2,1.067 3.2,3.2 0,0 0,1.067 1.067,1.067 2.133,1.067 1.067,2.133 1.067,3.2 0,1.067 0,2.133 0,2.133 0,3.2 -1.067,4.267 -4.267,3.2 -3.2,0 -7.467,-1.067 -10.667,-1.067 -1.067,0 -2.133,1.067 -3.2,2.133 v 1.067 1.067 c 1.067,3.2 0,6.4 -1.067,9.6 0,1.067 0,2.133 1.067,2.133 0,1.067 0,2.133 0,3.2 h 1.067 c 2.133,0 4.267,-1.067 5.333,2.133 0,1.067 1.067,1.067 2.133,0 1.067,-1.067 2.133,-1.067 4.267,-1.067 3.2,1.067 4.267,-2.133 5.333,-3.2 1.067,0 1.067,-2.133 2.133,-3.2 -1.067,-1.067 -1.067,-2.133 0,-3.2 1.067,-2.133 3.2,-4.267 5.333,-5.333 1.067,-1.067 2.133,-1.067 1.067,-3.2 0,-1.067 0,-2.133 1.067,-2.133 1.067,0 2.133,0 4.267,0 1.067,0 1.067,0 2.133,0 2.133,-1.067 3.2,-2.133 4.267,-3.2 1.067,-1.067 1.067,-1.067 2.133,0 1.067,0 2.133,1.067 2.133,2.133 0,1.067 1.067,2.133 2.133,3.2 0,0 1.067,1.067 2.133,1.067 2.133,1.067 3.2,2.133 5.333,4.267 1.067,1.067 2.133,1.067 2.133,2.133 0,1.067 1.067,2.133 1.067,3.2 -1.067,1.067 -3.2,2.133 -5.333,2.133 -1.067,0 -1.067,0 -2.133,0 0,0 0,1.067 1.067,1.067 1.067,1.067 2.133,1.067 3.2,2.133 1.067,0 1.067,0 1.067,-1.067 0,-1.067 0,-2.133 0,-3.2 v 0 h 1.067 c 0,-1.067 1.067,-2.133 1.067,-2.133 1.067,-1.067 1.067,-1.067 0,-2.133 0,0 0,-1.067 0,-2.133 h 1.067 c 1.067,0 1.067,1.067 2.133,1.067 -1.067,-3.2 -3.2,-3.2 -5.333,-4.267 v -1.07 c -3.2,0 -4.267,-1.067 -5.333,-3.2 0,-1.067 -1.067,-2.133 -2.133,-3.2 -2.133,-1.067 -1.067,-2.133 -1.067,-4.267 0,0 1.067,-1.067 2.133,-1.067 0,1.067 1.067,2.133 1.067,3.2 1.067,-1.067 1.067,-1.067 1.067,-2.133 1.067,1.067 1.067,2.133 2.133,3.2 0,1.067 1.067,2.133 1.067,2.133 1.067,0 2.133,1.067 3.2,2.133 1.067,1.067 3.2,2.133 3.2,3.2 0,2.133 0,4.267 1.067,5.333 0,1.067 1.067,2.133 2.133,3.2 1.067,1.067 1.067,2.133 2.133,3.2 -1.067,2.133 1.067,4.267 3.2,4.267 0,-1.067 0,-1.067 0,-2.133 h 1.067 c 0,0 0,-1.067 -1.067,-2.133 1.067,0 1.067,1.067 2.133,1.067 v -1.067 h 1.067 c -1.067,-2.133 -2.133,-3.2 -3.2,-3.2 0,-1.067 0,-2.133 0,-2.133 0,-1.067 0,-1.067 0,-2.133 1.067,0 2.133,0 2.133,1.067 0,0 0,-1.067 0,-2.133 2.133,-2.133 3.2,0 5.333,0 0,1.067 -1.067,3.2 -1.067,4.267 v 0 l 1.067,-1.067 c 0,1.067 0,1.067 0,1.067 v 1.067 h -1.067 v 1.067 c 1.067,0 1.067,1.067 2.133,2.133 1.067,1.067 1.067,2.133 3.2,2.133 0,0 1.067,0 1.067,1.067 2.133,1.067 2.133,1.067 3.2,-1.067 v 0 c 1.067,0 1.067,1.067 2.133,1.067 2.133,1.067 3.2,1.067 5.333,0 h 1.067 c 1.067,0 1.067,0 2.133,0 0,1.067 0,2.133 0,2.133 0,1.067 0,2.133 0,3.2 -1.067,2.133 -2.133,4.267 -3.2,7.467 -1.067,2.133 -3.2,3.2 -5.333,2.133 -1.067,-1.067 -2.133,-1.067 -3.2,-1.067 -1.067,0 -2.133,1.067 -3.2,1.067 -1.067,0 -2.133,0 -2.133,0 -2.133,0 -4.267,-1.067 -5.333,-1.067 -2.133,0 -3.2,-1.067 -5.333,-2.133 0,0 0,0 -1.067,-1.067 -1.067,0 -1.067,-1.067 -2.133,-1.067 -1.067,0 -3.2,0 -4.267,1.067 -1.067,1.067 -1.067,2.133 -1.067,3.2 0,0 0,1.067 -1.067,1.067 -1.067,0 -2.133,1.067 -2.133,0 -2.133,0 -3.2,-1.067 -5.333,-2.133 -1.067,0 -1.067,-1.067 -1.067,-1.067 -1.067,-2.133 -3.2,-3.2 -5.333,-3.2 -3.2,0 -5.333,-2.133 -7.467,-3.2 1.067,-1.067 2.133,-1.067 2.133,-2.133 1.067,-1.067 1.067,-2.133 1.067,-2.133 -1.067,-1.067 -1.067,-2.133 0,-3.2 v -1.067 c -1.067,0 -1.067,0 -2.133,1.067 0,-2.133 -1.067,-1.067 -2.133,-1.067 -1.067,1.067 -2.133,1.067 -4.267,0 -1.067,0 -2.133,0 -4.267,0 h -1.067 c -3.2,-1.067 -6.4,0 -9.6,1.067 -3.2,1.067 -5.333,3.2 -9.6,3.2 H 182.4 c -1.067,0 -2.133,0 -2.133,-1.067 -1.067,-1.067 -2.133,-1.067 -2.133,0 -1.067,2.133 -2.133,4.267 -4.267,5.333 -2.133,1.067 -4.267,4.267 -4.267,6.4 0,2.133 -1.067,3.2 -2.133,4.267 -2.133,2.133 -5.333,2.133 -6.4,5.333 0,0 0,0 -1.067,1.067 0,0 0,1.067 -1.067,1.067 -1.067,3.2 -3.2,5.333 -4.267,8.533 0,1.067 -1.067,2.133 0,3.2 1.067,1.067 1.067,2.133 0,3.2 v 1.067 c 0,1.067 0,3.2 0,4.267 0,1.067 -1.067,2.133 -1.067,2.133 0,1.067 -1.067,2.133 -2.133,3.2 1.067,1.067 2.133,2.133 2.133,4.267 0,1.067 1.067,2.133 2.133,2.133 h 1.067 c 1.067,2.133 3.2,3.2 4.267,5.333 0,0 1.067,1.067 1.067,2.133 0,1.067 1.067,2.133 2.133,3.2 2.133,1.067 4.267,3.2 6.4,4.267 2.133,1.067 4.267,3.2 7.467,1.067 2.133,-1.067 5.333,-1.067 7.467,0 1.067,0 2.133,0 3.2,0 3.2,-2.133 6.4,-3.2 10.667,-3.2 2.133,0 3.2,1.067 4.267,3.2 0,1.067 1.067,2.133 2.133,1.067 1.067,0 2.133,0 3.2,0 2.133,0 4.267,2.133 4.267,4.267 0,1.067 0,2.133 -1.067,4.267 0,1.067 -1.067,2.133 -1.067,3.2 0,0 0,1.067 0,2.133 1.067,2.133 3.2,4.267 5.333,6.4 1.067,1.067 2.133,2.133 2.133,3.2 1.067,1.067 1.067,3.2 1.067,4.267 0,1.067 0,2.133 0,3.2 0,1.067 0,2.133 1.067,2.133 1.067,1.067 1.067,4.267 0,4.267 -2.133,2.133 -3.2,5.333 -3.2,7.467 -1.067,3.2 -1.067,5.333 1.067,7.467 3.2,4.267 4.267,9.6 5.333,14.933 0,2.133 0,4.267 2.133,6.4 2.133,1.067 2.133,3.2 3.2,5.333 1.067,1.067 1.067,3.2 2.133,4.267 1.067,1.067 1.067,2.133 0,3.2 0,0 0,1.067 1.067,1.067 5.333,0 10.667,1.067 14.933,1.067 1.067,0 2.133,0 3.2,0 1.067,-1.067 2.133,-1.067 3.2,-1.067 3.2,-2.133 5.333,-5.333 6.4,-8.533 1.067,-1.067 1.067,-2.133 2.133,-3.2 2.133,-2.133 2.133,-4.267 2.133,-6.4 0,-2.133 0,-2.133 1.067,-2.133 1.067,0 2.133,-1.067 2.133,-1.067 1.067,0 2.133,-1.067 2.133,-2.133 0,-2.133 1.067,-5.333 -1.067,-7.467 -1.067,-1.067 -1.067,-2.133 1.067,-3.2 1.067,-1.067 2.133,-2.133 3.2,-2.133 1.067,-1.067 1.067,-2.133 2.133,-2.133 2.133,-1.067 4.267,-2.133 5.333,-4.267 1.067,-1.067 1.067,-2.133 1.067,-3.2 0,-2.133 -1.067,-4.267 0,-6.4 0,-1.067 0,-2.133 0,-2.133 -1.067,-2.133 -2.133,-3.2 -2.133,-5.333 0,0 0,-1.067 0,-2.133 -1.067,-1.067 -1.067,-2.133 0,-3.2 0,-1.067 1.067,-2.133 1.067,-3.2 1.067,-4.267 4.267,-5.333 7.467,-8.533 2.133,-2.133 4.267,-3.2 6.4,-5.333 3.2,-3.2 6.4,-6.4 7.467,-10.667 0,0 0,-1.067 1.067,-1.067 2.133,-2.133 2.133,-4.267 2.133,-7.467 0,-1.067 -1.067,-1.067 -2.133,-1.067 -1.067,0 -2.133,1.067 -2.133,1.067 -2.133,0 -3.2,1.067 -5.333,1.067 -1.067,0 -3.2,0 -4.267,1.067 0,0 -1.067,0 -1.067,-1.067 C 289.067,406.4 288,406.4 288,405.334 c 1.067,-1.067 1.067,-1.067 0,-2.133 -1.067,-1.067 -2.133,-2.133 -3.2,-3.2 -1.067,-1.067 -1.067,-1.067 -2.133,-2.133 -2.133,-1.067 -3.2,-2.133 -3.2,-3.2 0,-1.067 -1.067,-3.2 -2.133,-3.2 -2.133,-1.067 -2.133,-3.2 -2.133,-5.333 0,-1.067 -1.067,-3.2 -2.133,-4.267 -1.067,-1.067 -3.2,-2.133 -2.133,-4.267 v 0 c -1.067,-1.067 -2.133,-2.133 -2.133,-4.267 -1.067,-2.133 -2.133,-5.333 -4.267,-7.467 0,0 0,-1.067 0,-2.133 1.067,1.067 1.067,2.133 2.133,3.2 0,1.067 1.067,1.067 2.133,1.067 0,-1.067 1.067,-1.067 1.067,-2.133 0,0 1.067,1.067 1.067,2.133 1.067,2.133 3.2,5.333 4.267,7.467 0,0 0,1.067 1.067,1.067 2.133,1.067 3.2,3.2 3.2,5.333 0,2.133 0,3.2 2.133,4.267 1.067,0 1.067,2.133 2.133,2.133 1.067,1.067 1.067,2.133 2.133,3.2 1.067,1.067 1.067,3.2 2.133,4.267 1.067,2.133 1.067,4.267 1.067,6.4 l 1.067,1.067 c 1.067,0 2.133,0 3.2,-1.067 0,0 1.067,0 1.067,-1.067 1.067,0 2.133,-1.067 3.2,-1.067 1.067,-1.067 3.2,-1.067 4.267,-2.133 1.067,-1.067 3.2,-1.067 4.267,-2.133 l 1.067,-1.067 c 1.067,-1.067 1.067,-1.067 2.133,-2.133 2.133,-1.067 4.267,0 5.333,-2.133 h 1.067 c 1.067,-1.067 2.133,-2.133 3.2,-3.2 v -1.067 c 0,-1.067 0,-1.067 1.067,-2.133 2.133,-1.067 2.133,-2.133 3.2,-4.267 v -1.067 c -1.067,-1.067 -3.2,-3.2 -5.333,-3.2 -1.067,0 -2.133,-2.133 -2.133,-3.2 0,-1.067 0,-1.067 0,-2.133 -1.067,2.133 -3.2,3.2 -4.267,4.267 l -1.067,1.067 c -1.067,0 -3.2,0 -4.267,0 l -1.067,-1.067 c 0,-1.067 0,-1.067 0,-2.133 v -1.069 0 c 0,1.067 -1.067,1.067 -1.067,2.133 -1.067,-1.067 -1.067,-2.133 -1.067,-3.2 0,0 0,-1.067 -1.067,-1.067 -1.067,-1.067 -2.133,-2.133 -3.2,-3.2 -1.067,-2.133 -1.067,-3.2 0,-5.333 v 0 c 1.067,0 2.133,1.067 3.2,1.067 1.067,1.067 2.133,2.133 2.133,4.267 0,0 0,1.067 1.067,1.067 1.067,1.067 3.2,2.133 4.267,2.133 1.067,1.067 4.267,1.067 5.333,0 1.067,-1.067 2.133,-1.067 2.133,0 0,2.133 2.133,2.133 3.2,2.133 1.067,0 2.133,0 3.2,0 1.067,0 2.133,1.067 4.267,0 3.2,0 6.4,0 9.6,0 h 1.067 c 1.067,1.067 3.2,3.2 4.267,4.267 1.067,1.067 2.133,1.067 3.2,1.067 h 1.067 v 0 c -1.067,0 -2.133,1.067 -3.2,1.067 1.067,1.067 2.133,1.067 2.133,2.133 2.133,2.133 4.267,1.067 5.333,-1.067 0,0 0,-1.067 1.067,-1.067 0,1.067 0,2.133 0,3.2 0,1.067 0,2.133 0,2.133 0,3.2 0,6.4 2.133,9.6 2.133,4.267 4.267,9.6 6.4,13.867 0,1.067 1.067,1.067 1.067,2.133 1.067,1.067 1.067,1.067 2.133,0 0,-1.067 1.067,-1.067 1.067,-1.067 0,0 0,0 1.067,-1.067 0,-1.067 1.067,-1.067 2.133,-2.133 0,-2.133 2.133,-5.333 1.067,-8.533 0,0 0,-1.067 0,-2.133 l 1.067,-1.067 c 1.067,-1.067 2.133,-1.067 3.2,-2.133 3.2,-2.133 5.333,-4.267 8.533,-6.4 1.067,-1.067 2.133,-1.067 2.133,-2.133 0,-2.133 1.067,-2.133 2.133,-3.2 2.133,1.067 3.2,0 4.267,0 1.067,0 1.067,-1.067 2.133,-2.133 1.067,0 2.133,1.067 2.133,2.133 1.067,1.067 1.067,3.2 2.133,4.267 1.067,1.067 2.133,2.133 3.2,4.267 1.067,1.067 0,3.2 0,5.333 1.067,1.067 4.267,0 5.333,-2.133 2.133,0 2.133,2.133 2.133,4.267 0,1.067 0,2.133 1.067,3.2 1.067,2.133 1.067,5.333 1.067,7.467 0,2.133 0,3.2 -1.067,4.267 1.067,1.067 1.067,1.067 2.133,1.067 2.133,2.133 3.2,4.267 3.2,6.4 0,3.2 3.2,5.333 6.4,7.467 0,0 1.067,0 2.133,0 0,-1.067 0,-1.067 0,-2.133 0,-1.067 -1.067,-2.133 -1.067,-3.2 0,-3.2 -2.133,-5.333 -4.267,-6.4 -2.133,0 -2.133,-1.067 -2.133,-2.133 0,-1.067 0,-3.2 -2.133,-3.2 0,-1.067 0,-2.133 0,-2.133 0,-2.133 1.067,-4.267 1.067,-6.4 l 1.067,-1.067 c 0,0 1.067,0 1.067,1.067 v 1.067 c 2.133,0 3.2,0 4.267,1.067 1.067,2.133 2.133,3.2 4.267,3.2 1.067,0 1.067,1.067 1.067,2.133 0,1.067 0,1.067 0,2.133 v 0 c 1.067,-1.067 1.067,-1.067 2.133,-2.133 1.067,-1.067 1.067,-2.133 3.2,-2.133 2.133,0 4.267,-1.067 4.267,-4.267 0,-2.133 0,-4.267 -1.067,-6.4 0,-1.067 -1.067,-1.067 -1.067,-2.133 -2.133,-2.133 -3.2,-3.2 -5.333,-5.333 0,0 0,-1.067 0,-2.133 1.067,-2.133 2.133,-4.267 5.333,-5.333 1.067,0 2.133,0 3.2,0 1.067,1.067 1.067,2.133 1.067,3.2 v 0 c 0,-2.133 0,-2.133 2.133,-3.2 1.067,0 1.067,0 2.133,0 1.067,0 2.133,0 2.133,-1.067 1.067,0 1.067,-1.067 2.133,0 0,0 0,0 1.067,0 1.067,0 2.133,-1.067 3.2,-1.067 1.067,0 1.067,-1.067 2.133,-1.067 1.067,-1.067 2.133,-2.133 3.2,-3.2 2.133,-1.067 3.2,-2.133 3.2,-4.267 v 0 c 2.133,-2.133 4.267,-5.333 5.333,-8.533 -1.067,0 -1.067,-1.067 -2.133,-1.067 1.067,0 1.067,-1.067 2.133,-1.067 l -1.067,-1.067 1.067,-1.067 c -1.067,-1.067 -2.133,-2.133 -2.133,-3.2 -1.067,-2.133 -1.067,-4.267 -3.2,-4.267 1.067,-1.067 1.067,-1.067 1.067,-2.133 1.067,-1.067 2.133,-1.067 2.133,-1.067 0,-1.067 2.133,-1.067 3.2,-2.133 0,0 1.067,0 1.067,-1.067 v 0 h -1.067 c -2.133,-1.067 -3.2,-1.067 -4.267,0 h -1.067 c -1.067,-1.067 -1.067,-1.067 -2.133,-2.133 0,0 -1.067,-1.067 -1.067,-2.133 l 1.067,-1.067 c 1.067,0 1.067,0 2.133,-1.067 1.067,-1.067 3.2,-3.2 4.267,-4.267 h 1.067 c 0,0 0,1.067 0,2.133 0,1.067 -1.067,1.067 -1.067,2.133 1.067,1.067 1.067,1.067 0,2.133 1.067,-1.067 2.133,-1.067 3.2,-2.133 1.067,0 2.133,-1.067 2.133,-1.067 1.067,0 2.133,1.067 3.2,1.067 0,1.067 -1.067,2.133 -1.067,4.267 l 1.067,1.067 c 2.133,-1.067 3.2,0 3.2,2.133 0,0 -1.067,0 -1.067,1.067 3.2,2.133 0,4.267 1.067,6.4 1.067,-1.067 3.2,-1.067 4.267,-2.133 2.133,-1.067 2.133,-2.133 2.133,-4.267 0,-2.133 -2.133,-4.267 -3.2,-6.4 -1.067,-1.067 -1.067,-2.133 0,-3.2 2.133,-1.067 4.267,-2.133 3.2,-4.267 0,0 0,-1.067 1.067,-1.067 1.067,-1.067 2.133,-3.2 4.267,-4.267 1.067,0 1.067,1.067 2.133,1.067 2.133,1.067 4.267,-1.067 5.333,-2.133 2.133,-2.133 4.267,-5.333 6.4,-8.533 2.133,-8.533 4.267,-17.067 5.333,-26.667 v 0 c -1.067,-1.067 -2.133,-1.067 -3.2,-1.067 0,1.067 0,1.067 0,2.133 -1.067,0 -2.133,0 -2.133,0 0,-1.067 0,-1.067 0,-2.133 0,1.067 -1.067,1.067 -1.067,1.067 v 0 c 0,-1.067 0,-2.133 0,-2.133 -1.067,0 -2.133,0 -3.2,-1.067 0,-1.067 0,-1.067 0,-1.067 3.2,-3.2 6.4,-7.467 10.667,-10.667 l 1.067,-1.067 c 0,-1.067 1.067,-1.067 1.067,-2.133 0,-6.4 1.067,-12.8 1.067,-19.2 1.066,-11.735 -1.067,-28.801 -4.267,-44.801 z"
   style="fill:#f3f3f3" />
</g>
<path
   id="path993"
   d="M 45,32.4 H 3 c -1.6999688,0 -3,-1.300031 -3,-3 V 18.6 c 0,-1.699969 1.3000312,-3 3,-3 h 42 c 1.699969,0 3,1.300031 3,3 V 29.299969 C 48,31.000031 46.699969,32.4 45,32.4 Z"
   style="fill:#415a6b;stroke-width:0.0937499" />
<g
   transform="scale(0.09375)"
   id="g1001">
	<path
   id="path995"
   d="M 101.333,297.6 H 76.8 L 48,214.4 h 23.467 l 16,50.133 16,-50.133 H 128 l 16,50.133 16,-50.133 h 24.533 l -28.8,83.2 H 131.2 l -14.933,-44.8 z"
   style="fill:#ffffff" />
	<path
   id="path997"
   d="m 240,297.6 h -23.467 l -28.8,-83.2 H 211.2 l 16,50.133 16,-50.133 h 23.467 l 16,50.133 16,-50.133 H 323.2 l -28.8,83.2 H 269.867 L 256,252.8 Z"
   style="fill:#ffffff" />
	<path
   id="path999"
   d="m 379.733,297.6 h -23.467 l -28.8,-83.2 H 352 l 16,50.133 16,-50.133 h 22.4 l 16,50.133 16,-50.133 h 24.533 l -28.8,83.2 H 409.6 l -14.933,-44.8 z"
   style="fill:#ffffff" />
</g>
<g
   transform="scale(0.09375)"
   id="g1003">
</g>
<g
   transform="scale(0.09375)"
   id="g1005">
</g>
<g
   transform="scale(0.09375)"
   id="g1007">
</g>
<g
   transform="scale(0.09375)"
   id="g1009">
</g>
<g
   transform="scale(0.09375)"
   id="g1011">
</g>
<g
   transform="scale(0.09375)"
   id="g1013">
</g>
<g
   transform="scale(0.09375)"
   id="g1015">
</g>
<g
   transform="scale(0.09375)"
   id="g1017">
</g>
<g
   transform="scale(0.09375)"
   id="g1019">
</g>
<g
   transform="scale(0.09375)"
   id="g1021">
</g>
<g
   transform="scale(0.09375)"
   id="g1023">
</g>
<g
   transform="scale(0.09375)"
   id="g1025">
</g>
<g
   transform="scale(0.09375)"
   id="g1027">
</g>
<g
   transform="scale(0.09375)"
   id="g1029">
</g>
<g
   transform="scale(0.09375)"
   id="g1031">
</g>
</svg>
