<?xml version="1.0" encoding="UTF-8" standalone="no"?>
<svg
   xmlns:dc="http://purl.org/dc/elements/1.1/"
   xmlns:cc="http://creativecommons.org/ns#"
   xmlns:rdf="http://www.w3.org/1999/02/22-rdf-syntax-ns#"
   xmlns:svg="http://www.w3.org/2000/svg"
   xmlns="http://www.w3.org/2000/svg"
   xmlns:sodipodi="http://sodipodi.sourceforge.net/DTD/sodipodi-0.dtd"
   xmlns:inkscape="http://www.inkscape.org/namespaces/inkscape"
   inkscape:version="1.0 (4035a4fb49, 2020-05-01)"
   height="48"
   width="48"
   sodipodi:docname="youtube.svg"
   xml:space="preserve"
   viewBox="0 0 48 48"
   y="0px"
   x="0px"
   id="Layer_1"
   version="1.1"><metadata
   id="metadata1128"><rdf:RDF><cc:Work
       rdf:about=""><dc:format>image/svg+xml</dc:format><dc:type
         rdf:resource="http://purl.org/dc/dcmitype/StillImage" /></cc:Work></rdf:RDF></metadata><defs
   id="defs1126" /><sodipodi:namedview
   inkscape:current-layer="Layer_1"
   inkscape:window-maximized="1"
   inkscape:window-y="-8"
   inkscape:window-x="-8"
   inkscape:cy="236.9655"
   inkscape:cx="236.9655"
   inkscape:zoom="1.79351"
   showgrid="false"
   id="namedview1124"
   inkscape:window-height="1017"
   inkscape:window-width="1920"
   inkscape:pageshadow="2"
   inkscape:pageopacity="0"
   guidetolerance="10"
   gridtolerance="10"
   objecttolerance="10"
   borderopacity="1"
   bordercolor="#666666"
   pagecolor="#ffffff" />
<circle
   r="24"
   id="circle1085"
   cy="24"
   cx="24"
   style="fill:#d42428;stroke-width:0.10128" />
<path
   id="path1087"
   d="m 40.969725,7.0268308 c 9.372585,9.3733952 9.373395,24.5699042 0,33.9432992 -9.372585,9.372585 -24.569904,9.37299 -33.9432994,0 z"
   style="fill:#cc202d;stroke-width:0.10128" />
<path
   id="path1089"
   d="m 47.634276,28.152291 -16.151988,-16.151886 -1.30287,1.30287 -1.302871,-1.30287 -1.427951,1.427952 0.959125,0.959125 -0.313058,0.313057 -2.487142,-2.487141 -0.106141,0.10685 -3.35157,-3.3515691 -1.427951,1.4279521 0.390739,0.390739 -0.573753,0.573753 -2.415942,-2.4159411 -1.001561,1.0015614 2.355275,5.6720037 -1.060709,4.354751 2.899859,2.900568 -7.334521,0.513086 -0.111003,12.727598 11.802908,11.81729 C 36.732155,47.14651 45.762109,38.874741 47.634276,28.152291 Z"
   style="fill:#ba202e;stroke-width:0.10128" />
<path
   id="path1091"
   d="m 32.58432,29.564747 h -1.548476 l 0.0076,-0.898863 c 0,-0.399855 0.327845,-0.726079 0.729118,-0.726079 h 0.09925 c 0.401374,0 0.730637,0.326326 0.730637,0.726079 z m -5.80539,-1.926352 c -0.391449,0 -0.712811,0.264139 -0.712811,0.587021 v 4.371361 c 0,0.322882 0.321362,0.585502 0.712811,0.585502 0.394487,0 0.715849,-0.26262 0.715849,-0.585502 v -4.371766 c 0,-0.322477 -0.321362,-0.586616 -0.715849,-0.586616 z m 9.426061,-2.444705 v 8.315319 c 0,1.994919 -1.729565,3.626748 -3.844602,3.626748 H 16.553666 c -2.115443,0 -3.844602,-1.632234 -3.844602,-3.626748 V 25.19369 c 0,-1.994919 1.72926,-3.627457 3.844602,-3.627457 h 15.807128 c 2.114531,0 3.844197,1.632943 3.844197,3.627457 z m -18.597402,9.218436 -7.09e-4,-8.759434 1.959268,7.09e-4 v -1.298312 l -5.223331,-0.008 v 1.275626 l 1.630715,0.005 v 8.784045 h 1.634057 z m 5.873957,-7.454335 h -1.633754 v 4.677228 c 0,0.676856 0.04051,1.015234 -0.0022,1.134239 -0.133386,0.362685 -0.730636,0.747752 -0.962974,0.0394 -0.0394,-0.124271 -0.0046,-0.498705 -0.0053,-1.141835 l -0.0076,-4.709435 H 19.24509 l 0.0061,4.635095 c 7.09e-4,0.710583 -0.01631,1.240381 0.0053,1.481428 0.0398,0.425175 0.02502,0.921246 0.420314,1.203616 0.734485,0.530202 2.143396,-0.0788 2.495851,-0.835665 l -0.003,0.965607 1.31158,0.0019 v -7.451601 z m 5.226369,5.355908 -0.003,-3.893116 c -0.0016,-1.484061 -1.111185,-2.372695 -2.618743,-1.172117 l 0.0068,-2.894593 -1.632234,0.0026 -0.008,9.98999 1.341964,-0.01975 0.122043,-0.622672 c 1.715588,1.575112 2.794123,0.496578 2.791185,-1.390376 z m 5.113747,-0.51572 -1.225594,0.0065 c 0,0.04892 -0.0022,0.104623 -0.003,0.165998 v 0.683643 c 0,0.365723 -0.302018,0.663589 -0.669261,0.663589 h -0.239933 c -0.367951,0 -0.669969,-0.297866 -0.669969,-0.663589 v -0.07576 -0.752614 -0.970165 h 2.805161 v -1.055847 c 0,-0.771149 -0.02005,-1.542399 -0.08376,-1.983475 -0.200434,-1.395744 -2.158994,-1.617042 -3.148807,-0.902711 -0.310728,0.223221 -0.547622,0.521796 -0.686275,0.923575 -0.139058,0.401374 -0.20803,0.948896 -0.20803,1.645502 v 2.321143 c 10e-4,3.858579 4.68766,3.313184 4.129504,-0.0058 z M 27.537621,19.195057 c 0.08376,0.205397 0.214512,0.37099 0.392968,0.49678 0.174708,0.122752 0.399855,0.185343 0.66845,0.185343 0.235376,0 0.444114,-0.0637 0.625305,-0.195167 0.181494,-0.130753 0.33463,-0.325515 0.458901,-0.586211 l -0.03109,0.641206 h 1.82092 v -7.744604 h -1.433624 v 6.027497 c 0,0.32592 -0.269405,0.593098 -0.59806,0.593098 -0.326325,0 -0.596541,-0.267178 -0.596541,-0.593098 v -6.027497 h -1.49581 v 5.223331 c 0,0.665514 0.01175,1.109223 0.0318,1.334369 0.02147,0.223526 0.07262,0.437632 0.156782,0.644953 z m -5.518462,-4.373994 c 0,-0.743499 0.06219,-1.323734 0.184937,-1.742124 0.123562,-0.417275 0.347088,-0.752614 0.669261,-1.005005 0.322072,-0.254314 0.734485,-0.381219 1.234709,-0.381219 0.421022,0 0.782188,0.08295 1.084206,0.244795 0.302018,0.16296 0.536583,0.374028 0.698024,0.635129 0.165999,0.261911 0.277407,0.531317 0.337669,0.806799 0.06138,0.278926 0.09095,0.700759 0.09095,1.26803 v 1.958863 c 0,0.718483 -0.02876,1.246762 -0.08447,1.582607 -0.05499,0.336555 -0.173899,0.648397 -0.358128,0.940591 -0.181899,0.28956 -0.416869,0.505895 -0.701872,0.643839 -0.287231,0.139868 -0.615785,0.20803 -0.98799,0.20803 -0.414541,0 -0.764768,-0.05722 -1.052404,-0.177342 C 22.8453,19.685052 22.621673,19.50538 22.462866,19.267068 22.301425,19.02835 22.188902,18.737675 22.121045,18.398892 22.052075,18.059705 22.01946,17.550771 22.01946,16.871686 v -2.050623 h -3.03e-4 z m 1.425622,3.076796 c 0,0.438037 0.327034,0.796164 0.724559,0.796164 0.397526,0 0.722332,-0.357722 0.722332,-0.796164 v -4.123124 c 0,-0.438037 -0.324806,-0.796164 -0.722332,-0.796164 -0.397525,0 -0.724559,0.357722 -0.724559,0.796164 z m -5.039913,2.081615 h 1.718626 l 0.0015,-5.93989 2.030165,-5.0884266 h -1.879257 l -1.079345,3.7801876 -1.09484,-3.7900118 h -1.859204 l 2.159703,5.1016938 z"
   style="fill:#ffffff;stroke-width:0.10128" />
<g
   transform="scale(0.10128035)"
   id="g1093">
</g>
<g
   transform="scale(0.10128035)"
   id="g1095">
</g>
<g
   transform="scale(0.10128035)"
   id="g1097">
</g>
<g
   transform="scale(0.10128035)"
   id="g1099">
</g>
<g
   transform="scale(0.10128035)"
   id="g1101">
</g>
<g
   transform="scale(0.10128035)"
   id="g1103">
</g>
<g
   transform="scale(0.10128035)"
   id="g1105">
</g>
<g
   transform="scale(0.10128035)"
   id="g1107">
</g>
<g
   transform="scale(0.10128035)"
   id="g1109">
</g>
<g
   transform="scale(0.10128035)"
   id="g1111">
</g>
<g
   transform="scale(0.10128035)"
   id="g1113">
</g>
<g
   transform="scale(0.10128035)"
   id="g1115">
</g>
<g
   transform="scale(0.10128035)"
   id="g1117">
</g>
<g
   transform="scale(0.10128035)"
   id="g1119">
</g>
<g
   transform="scale(0.10128035)"
   id="g1121">
</g>
</svg>
