<?xml version="1.0" encoding="UTF-8" standalone="no"?>
<svg
   xmlns:dc="http://purl.org/dc/elements/1.1/"
   xmlns:cc="http://creativecommons.org/ns#"
   xmlns:rdf="http://www.w3.org/1999/02/22-rdf-syntax-ns#"
   xmlns:svg="http://www.w3.org/2000/svg"
   xmlns="http://www.w3.org/2000/svg"
   xmlns:sodipodi="http://sodipodi.sourceforge.net/DTD/sodipodi-0.dtd"
   xmlns:inkscape="http://www.inkscape.org/namespaces/inkscape"
   height="55"
   width="54.782227"
   inkscape:version="1.0 (4035a4fb49, 2020-05-01)"
   sodipodi:docname="edit.svg"
   xml:space="preserve"
   viewBox="0 0 54.782225 54.999998"
   y="0px"
   x="0px"
   id="Capa_1"
   version="1.1"><metadata
   id="metadata3935"><rdf:RDF><cc:Work
       rdf:about=""><dc:format>image/svg+xml</dc:format><dc:type
         rdf:resource="http://purl.org/dc/dcmitype/StillImage" /></cc:Work></rdf:RDF></metadata><defs
   id="defs3933">
	
</defs><sodipodi:namedview
   inkscape:current-layer="Capa_1"
   inkscape:window-maximized="1"
   inkscape:window-y="-8"
   inkscape:window-x="-8"
   inkscape:cy="152.07194"
   inkscape:cx="243.26848"
   inkscape:zoom="1.7360153"
   showgrid="false"
   id="namedview3931"
   inkscape:window-height="1017"
   inkscape:window-width="1920"
   inkscape:pageshadow="2"
   inkscape:pageopacity="0"
   guidetolerance="10"
   gridtolerance="10"
   objecttolerance="10"
   borderopacity="1"
   bordercolor="#666666"
   pagecolor="#ffffff" />
<path
   d="M 5.9085849,18.750943 V 49.102648 H 36.260289 V 35.802716 c 1.505228,-0.988509 2.87566,-2.02195 4.178694,-3.134022 0.314526,-0.247128 0.932344,-0.752614 1.729891,-1.516462 V 52.045707 C 42.168874,53.6745 40.843374,55 39.214581,55 H 2.9542925 C 1.3255,55 0,53.6745 0,52.045707 V 15.796652 c 0,-1.628793 1.3255,-2.954293 2.9542925,-2.954293 h 9.8626185 c -1.078373,1.84222 -1.999483,3.819237 -2.774564,5.908584 z M 54.064675,0.45230401 C 53.0537,0.2838082 51.818065,0.1714777 50.413933,0.09284633 v 0 l -0.359458,-0.011233 C 49.841047,0.07038023 49.627619,0.05914719 49.402958,0.04791413 v 0 h -0.0337 l -0.539186,-0.0224661 h -0.01124 C 39.046085,-0.30031045 32.238856,2.6090498 32.238856,2.6090498 v 0 C 22.971589,6.3608888 16.591216,13.067019 13.715555,23.30033 c -0.932343,3.31375 -0.640284,6.762296 -0.168496,10.154677 0.05617,0.314526 0.224661,0.775081 1.21317,0.146031 v 0 c 1.965784,-5.3694 5.245835,-10.390573 9.143703,-14.715297 4.93131,-5.459263 10.469204,-9.8064537 17.332598,-12.5360852 1.258102,-0.5054873 2.460039,-0.887411 3.740606,-1.3255 0.04493,0.1123305 -0.05617,0.224661 -0.157263,0.2695932 -0.0337,0.011233 -0.07863,0.022466 -0.11233,0.033699 -3.650742,1.4041315 -6.908326,3.493479 -9.94125,5.942284 -5.111039,4.133762 -9.390831,9.031373 -13.131437,14.412004 -4.335957,6.234344 -7.818204,12.895543 -10.098513,20.152094 0,0 -0.40439,1.808521 0.966042,0.494255 l 6.043382,-7.514912 c 0.0674,-0.134797 0.157263,-0.235894 0.25836,-0.314525 0.123564,-0.112331 0.280827,-0.190962 0.471789,-0.25836 2.752096,-1.033441 5.537893,-1.977017 8.211359,-3.190187 3.594577,-1.628793 6.897094,-3.661974 9.840154,-6.189411 0.325758,-0.247128 3.594576,-2.79703 7.031889,-8.076564 0.05617,-0.0674 0.112331,-0.146029 0.157263,-0.235894 0.02247,-0.0337 0.04493,-0.07863 0.0674,-0.112331 0.831247,-1.314266 1.673726,-2.785796 2.493738,-4.425822 l -6.930797,-0.943576 c 0,0 7.84067,-1.112072 8.997674,-3.650741 0.0674,-0.134798 0.14603,-0.370691 0.202195,-0.51672 0.606585,-1.3704328 1.224402,-2.8868946 1.909618,-4.1449964 v 0 C 51.469838,6.1025287 53.031232,3.327965 54.626325,1.6991727 55.008249,1.2835498 54.637555,0.54216841 54.064673,0.45230401 Z"
   id="path3896"
   style="fill:#ff7300;fill-opacity:1;stroke:none;stroke-width:0.561652;stroke-miterlimit:4;stroke-dasharray:none;stroke-opacity:1" />
<g
   transform="matrix(0.11233051,0,0,0.11233051,-0.1735542,-0.06475695)"
   style="fill:#ff7300;fill-opacity:1"
   id="g3900">
</g>
<g
   transform="matrix(0.11233051,0,0,0.11233051,-0.1735542,-0.06475695)"
   style="fill:#ff7300;fill-opacity:1"
   id="g3902">
</g>
<g
   transform="matrix(0.11233051,0,0,0.11233051,-0.1735542,-0.06475695)"
   style="fill:#ff7300;fill-opacity:1"
   id="g3904">
</g>
<g
   transform="matrix(0.11233051,0,0,0.11233051,-0.1735542,-0.06475695)"
   style="fill:#ff7300;fill-opacity:1"
   id="g3906">
</g>
<g
   transform="matrix(0.11233051,0,0,0.11233051,-0.1735542,-0.06475695)"
   style="fill:#ff7300;fill-opacity:1"
   id="g3908">
</g>
<g
   transform="matrix(0.11233051,0,0,0.11233051,-0.1735542,-0.06475695)"
   style="fill:#ff7300;fill-opacity:1"
   id="g3910">
</g>
<g
   transform="matrix(0.11233051,0,0,0.11233051,-0.1735542,-0.06475695)"
   style="fill:#ff7300;fill-opacity:1"
   id="g3912">
</g>
<g
   transform="matrix(0.11233051,0,0,0.11233051,-0.1735542,-0.06475695)"
   style="fill:#ff7300;fill-opacity:1"
   id="g3914">
</g>
<g
   transform="matrix(0.11233051,0,0,0.11233051,-0.1735542,-0.06475695)"
   style="fill:#ff7300;fill-opacity:1"
   id="g3916">
</g>
<g
   transform="matrix(0.11233051,0,0,0.11233051,-0.1735542,-0.06475695)"
   style="fill:#ff7300;fill-opacity:1"
   id="g3918">
</g>
<g
   transform="matrix(0.11233051,0,0,0.11233051,-0.1735542,-0.06475695)"
   style="fill:#ff7300;fill-opacity:1"
   id="g3920">
</g>
<g
   transform="matrix(0.11233051,0,0,0.11233051,-0.1735542,-0.06475695)"
   style="fill:#ff7300;fill-opacity:1"
   id="g3922">
</g>
<g
   transform="matrix(0.11233051,0,0,0.11233051,-0.1735542,-0.06475695)"
   style="fill:#ff7300;fill-opacity:1"
   id="g3924">
</g>
<g
   transform="matrix(0.11233051,0,0,0.11233051,-0.1735542,-0.06475695)"
   style="fill:#ff7300;fill-opacity:1"
   id="g3926">
</g>
<g
   transform="matrix(0.11233051,0,0,0.11233051,-0.1735542,-0.06475695)"
   style="fill:#ff7300;fill-opacity:1"
   id="g3928">
</g>
</svg>
