<?xml version="1.0" encoding="UTF-8" standalone="no"?>
<svg
   xmlns:dc="http://purl.org/dc/elements/1.1/"
   xmlns:cc="http://creativecommons.org/ns#"
   xmlns:rdf="http://www.w3.org/1999/02/22-rdf-syntax-ns#"
   xmlns:svg="http://www.w3.org/2000/svg"
   xmlns="http://www.w3.org/2000/svg"
   xmlns:sodipodi="http://sodipodi.sourceforge.net/DTD/sodipodi-0.dtd"
   xmlns:inkscape="http://www.inkscape.org/namespaces/inkscape"
   inkscape:version="1.0 (4035a4fb49, 2020-05-01)"
   sodipodi:docname="envelope.svg"
   version="1.1"
   width="550"
   viewBox="0 0 549.93234 549.93233"
   height="550"
   enable-background="new 0 0 511.937 511.937"
   id="Layer_1">
  <metadata
     id="metadata967">
    <rdf:RDF>
      <cc:Work
         rdf:about="">
        <dc:format>image/svg+xml</dc:format>
        <dc:type
           rdf:resource="http://purl.org/dc/dcmitype/StillImage" />
        <dc:title></dc:title>
      </cc:Work>
    </rdf:RDF>
  </metadata>
  <defs
     id="defs965" />
  <sodipodi:namedview
     inkscape:current-layer="Layer_1"
     inkscape:window-maximized="1"
     inkscape:window-y="-8"
     inkscape:window-x="-8"
     inkscape:cy="236.51483"
     inkscape:cx="255.08483"
     inkscape:zoom="1.3476562"
     showgrid="false"
     id="namedview963"
     inkscape:window-height="1017"
     inkscape:window-width="1920"
     inkscape:pageshadow="2"
     inkscape:pageopacity="0"
     guidetolerance="10"
     gridtolerance="10"
     objecttolerance="10"
     borderopacity="1"
     bordercolor="#666666"
     pagecolor="#ffffff" />
  <path
     id="path952"
     fill="#fec040"
     d="M 29.091193,116.22294 H 525.87819 v 304.718 H 29.091193 Z" />
  <path
     id="path954"
     fill="#feb317"
     d="m 485.87819,120.41394 v 296.121 l 40,4.405 v -304.717 z" />
  <path
     id="path956"
     fill="#fed682"
     d="m 525.87819,420.93994 -193.728,-153.104 h -108.454 l -194.604997,153.104 z" />
  <path
     id="path958"
     fill="#fee8b8"
     d="m 29.008193,116.22294 209.640997,165.977 c 22.756,18.016 54.914,18.016 77.67,0 l 209.641,-165.977 z" />
  <path
     id="path960"
     d="m 525.87819,335.93394 c 4.142,0 7.5,-3.358 7.5,-7.5 v -211.145 c 0.646,-4.485 -2.98,-8.567 -7.417,-8.567 h -391.477 c -9.674,0 -9.674,15 0,15 h 369.92 l -192.74,152.597 c -20.125,15.933 -48.234,15.933 -68.359,0 L 50.564193,123.72294 h 44.883 c 9.673997,0 9.673997,-15 0,-15 h -66.439 c -4.438,0 -8.064,4.081 -7.417,8.567 v 303.651 c 0,4.064 3.429,7.5 7.5,7.5 H 525.87819 c 4.078,0 7.5,-3.429 7.5,-7.5 v -54.359 c 0,-9.674 -15,-9.674 -15,0 v 38.872 l -172.982,-136.709 172.982,-136.953 v 196.642 c 0,4.142 3.358,7.5 7.5,7.5 z m -315.887,-66.858 -173.399997,136.421 v -273.705 z m 294.301,144.364 H 50.753193 l 171.328997,-134.791 c 16.679,13.205 33.034,24.635 55.402,24.635 22.59,0 39.001,-11.651 55.826,-24.971 z" />
</svg>
