<?xml version="1.0" encoding="UTF-8" standalone="no"?>
<svg
   xmlns:dc="http://purl.org/dc/elements/1.1/"
   xmlns:cc="http://creativecommons.org/ns#"
   xmlns:rdf="http://www.w3.org/1999/02/22-rdf-syntax-ns#"
   xmlns:svg="http://www.w3.org/2000/svg"
   xmlns="http://www.w3.org/2000/svg"
   xmlns:sodipodi="http://sodipodi.sourceforge.net/DTD/sodipodi-0.dtd"
   xmlns:inkscape="http://www.inkscape.org/namespaces/inkscape"
   inkscape:version="1.0 (4035a4fb49, 2020-05-01)"
   sodipodi:docname="Facebook_logo.svg"
   id="svg26"
   xml:space="preserve"
   enable-background="new 0 0 48 48"
   viewBox="0 0 48 48"
   height="48"
   width="48"
   y="0px"
   x="0px"
   version="1.1"><metadata
   id="metadata32"><rdf:RDF><cc:Work
       rdf:about=""><dc:format>image/svg+xml</dc:format><dc:type
         rdf:resource="http://purl.org/dc/dcmitype/StillImage" /></cc:Work></rdf:RDF></metadata><defs
   id="defs30" /><sodipodi:namedview
   inkscape:current-layer="svg26"
   inkscape:window-maximized="1"
   inkscape:window-y="-8"
   inkscape:window-x="-8"
   inkscape:cy="18"
   inkscape:cx="18"
   inkscape:zoom="17.708333"
   showgrid="false"
   id="namedview28"
   inkscape:window-height="1017"
   inkscape:window-width="1920"
   inkscape:pageshadow="2"
   inkscape:pageopacity="0"
   guidetolerance="10"
   gridtolerance="10"
   objecttolerance="10"
   borderopacity="1"
   bordercolor="#666666"
   pagecolor="#ffffff" />
<path
   style="stroke-width:1.33333"
   id="path22"
   d="M 48,41.333333 C 48,45.016 45.016,48 41.333333,48 H 6.666667 C 2.9853333,48 0,45.016 0,41.333333 V 6.666667 C 0,2.984 2.9853333,0 6.666667,0 H 41.333333 C 45.016,0 48,2.984 48,6.666667 Z"
   fill="#3f51b5" />
<path
   style="stroke-width:1.33333"
   id="path24"
   d="M 37.824,25.333333 H 33.333333 V 42.666667 H 26.666667 V 25.333333 h -4 V 20 h 4 v -3.213333 c 0.0027,-4.677334 1.945333,-7.453334 7.456,-7.453334 h 4.544 v 5.333334 h -3.049334 c -2.145333,0 -2.284,0.8 -2.284,2.297333 V 20 h 5.333334 z"
   fill="#ffffff" />
</svg>
