<?xml version="1.0" encoding="UTF-8" standalone="no"?>
<svg
   xmlns:dc="http://purl.org/dc/elements/1.1/"
   xmlns:cc="http://creativecommons.org/ns#"
   xmlns:rdf="http://www.w3.org/1999/02/22-rdf-syntax-ns#"
   xmlns:svg="http://www.w3.org/2000/svg"
   xmlns="http://www.w3.org/2000/svg"
   xmlns:sodipodi="http://sodipodi.sourceforge.net/DTD/sodipodi-0.dtd"
   xmlns:inkscape="http://www.inkscape.org/namespaces/inkscape"
   inkscape:version="1.0 (4035a4fb49, 2020-05-01)"
   sodipodi:docname="newMessage.svg"
   version="1.1"
   width="512"
   viewBox="0 0 512.147 512.147"
   height="512"
   enable-background="new 0 0 512.147 512.147"
   id="Capa_1">
  <metadata
     id="metadata941">
    <rdf:RDF>
      <cc:Work
         rdf:about="">
        <dc:format>image/svg+xml</dc:format>
        <dc:type
           rdf:resource="http://purl.org/dc/dcmitype/StillImage" />
      </cc:Work>
    </rdf:RDF>
  </metadata>
  <defs
     id="defs939" />
  <sodipodi:namedview
     inkscape:current-layer="g934"
     inkscape:window-maximized="1"
     inkscape:window-y="-8"
     inkscape:window-x="-8"
     inkscape:cy="333.77644"
     inkscape:cx="342.05847"
     inkscape:zoom="0.67382813"
     showgrid="false"
     id="namedview937"
     inkscape:window-height="1017"
     inkscape:window-width="1920"
     inkscape:pageshadow="2"
     inkscape:pageopacity="0"
     guidetolerance="10"
     gridtolerance="10"
     objecttolerance="10"
     borderopacity="1"
     bordercolor="#666666"
     pagecolor="#ffffff" />
  <g
     id="g934">
    <g
       id="g924">
      <path
         id="path891"
         fill="#fbe88c"
         d="m43.981 160.053-36.485 4.451v257.88c0 6.4 2.54 12.19 6.68 16.44l169.455-66.343 92.912-134.019z" />
      <g
         id="g918">
        <g
           id="XMLID_130_">
          <g
             id="g909">
            <path
               id="path893"
               fill="#fbe88c"
               d="m419.326 160.053-136.701 80.119-38.179-.022 24.75 95.075 83.671 89.028 92.919 14.69c4.19-4.26 6.78-10.1 6.78-16.56v-257.88z" />
            <path
               id="path895"
               fill="#fbe372"
               d="m50.825 371.757v-209.396l-6.844-2.307-36.485 4.451v257.88c0 6.4 2.54 12.19 6.68 16.44l68.541-26.834c-18.276-4.272-31.892-20.658-31.892-40.234z" />
            <path
               id="path897"
               fill="#fbe372"
               d="m342.37 413.085 10.497 11.169 92.919 14.69c4.19-4.26 6.78-10.1 6.78-16.56v-9.299z" />
            <path
               id="path899"
               fill="#fcf0b6"
               d="m269.196 293.444s-18.84-28.179-20.709-30.047c-1.868-1.869-31.047 0-31.047 0l-26.565 30.047h-.01l-176.69 145.38c4.28 4.43 10.29 7.17 16.93 7.17h397.85c6.58 0 12.54-2.7 16.83-7.05z" />
            <path
               id="path901"
               fill="#fbe372"
               d="m376.86 184.942c15.428 17.94 38.265 29.335 63.727 29.335 4.068 0 8.064-.306 11.979-.868v-48.905l-33.24-4.451z" />
            <g
               id="g907"
               fill="#fdf5cb">
              <path
                 id="path903"
                 d="m452.566 164.504-183.37 128.94-13.95 9.81c-15.13 10.63-35.3 10.63-50.43 0l-13.94-9.81h-.01l-183.37-128.94c0-13.04 10.57-23.6 23.61-23.6h397.85c13.04 0 23.61 10.56 23.61 23.6z" />
              <path
                 id="path905"
                 d="m452.566 164.504-183.37 128.94-13.95 9.81c-15.13 10.63-35.3 10.63-50.43 0l-13.94-9.81h-.01l-183.37-128.94c0-13.04 10.57-23.6 23.61-23.6h397.85c13.04 0 23.61 10.56 23.61 23.6z" />
            </g>
          </g>
        </g>
        <path
           id="path912"
           fill="#fcf0b6"
           d="m428.956 140.904h-71.726c3.363 26.367 18.975 48.948 40.947 61.845l54.39-38.245c-.001-13.04-10.571-23.6-23.611-23.6z" />
        <circle
           id="circle914"
           r="64.06"
           fill="#e5827f"
           cy="130.216"
           cx="440.587" />
        <path
           id="path916"
           fill="#de6a66"
           d="m406.788 125.438c0-26.55 16.164-49.34 39.176-59.056-1.771-.147-3.568-.227-5.377-.227-35.38 0-64.061 28.681-64.061 64.06s28.681 64.06 64.061 64.06c8.83 0 17.242-1.787 24.896-5.019-32.866-2.726-58.695-30.247-58.695-63.818z" />
      </g>
      <path
         id="path920"
         fill="#fbe88c"
         d="m92.153 413.085c-12.045 0-22.883-5.156-30.437-13.377l-47.541 39.116c4.28 4.43 10.29 7.17 16.93 7.17h397.85c6.58 0 12.54-2.7 16.83-7.05l-31.385-25.859z" />
      <path
         id="path922"
         fill="#fcf0b6"
         d="m50.825 140.904h-19.719c-13.04 0-23.61 10.56-23.61 23.6l43.329 30.467z" />
    </g>
    <g
       id="g932">
      <path
         sodipodi:nodetypes="sssccccccccsssssccssssssscccscccsssssssscsccc"
         id="path926"
         d="m 453.87311,198.96056 c -4.143,0 -7.47483,3.35807 -7.5,7.5 L 445.061,422.388 c -0.0114,1.87197 -0.337,3.662 -0.927,5.335 L 281.564,293.914 414.31835,195.98518 c 3.388,-2.383 4.203,-7.061 1.82,-10.449 -2.381,-3.388 -7.058,-4.203 -10.449,-1.821 L 250.933,297.116 c -12.5,8.791 -29.299,8.792 -41.803,0 L 15.42,160.903 c 1.641,-7.15 8.042,-12.503 15.683,-12.503 h 101.70177 c 4.143,0 7.5,-3.358 7.5,-7.5 0,-4.142 -3.357,-7.5 -7.5,-7.5 H 31.103 c -17.077,0 -30.98,13.835 -31.098,30.886 -0.001,0.041 -0.002,0.083 -0.003,0.124 0,0.031 -0.002,0.062 -0.002,0.093 v 257.885 c 0,17.15 13.953,31.104 31.104,31.104 h 299.405 c 4.143,0 7.5,-3.358 7.5,-7.5 0,-4.142 -3.357,-7.5 -7.5,-7.5 H 31.104 c -1.387,0 -2.727,-0.195 -4.012,-0.526 l 164.137,-135.099 9.272,6.52 c 8.832,6.21 19.182,9.315 29.53,9.315 10.35,0 20.699,-3.105 29.53,-9.315 l 9.273,-6.521 164.139,135.1 c -1.286,0.332 -2.626,0.527 -4.015,0.527 H 321.53314 c -4.143,0 -7.5,3.358 -7.5,7.5 0,4.142 3.357,7.5 7.5,7.5 H 428.958 c 17.15,0 30.99878,-13.95332 31.103,-31.104 l 1.31211,-215.92744 c 0.0252,-4.14293 -3.358,-7.501 -7.5,-7.501 z M 15.928,427.725 C 15.338,426.052 15,424.261 15,422.388 V 178.946 l 163.499,114.969 z" />
      <path
         sodipodi:nodetypes="sssssss"
         id="path928"
         d="m 120.155,148.4 249.81173,-0.78727 c 4.14298,-0.013 7.5,-3.358 7.5,-7.5 0,-4.142 -3.35702,-7.51305 -7.5,-7.5 L 120.155,133.4 c -4.14298,0.0131 -7.5,3.358 -7.5,7.5 0,4.142 3.35802,7.51305 7.5,7.5 z" />
      <path
         id="path930"
         d="m506.272 101.809c-1.646-3.802-6.062-5.547-9.863-3.901s-5.547 6.062-3.9 9.863c3.078 7.106 4.639 14.658 4.639 22.445 0 31.188-25.373 56.561-56.561 56.561s-56.561-25.373-56.561-56.561 25.373-56.56 56.561-56.56c12.499 0 24.352 4.003 34.274 11.578 3.295 2.513 7.999 1.881 10.513-1.412 2.513-3.292 1.881-7.999-1.411-10.512-12.561-9.587-27.56-14.654-43.376-14.654-39.459 0-71.561 32.102-71.561 71.56s32.102 71.561 71.561 71.561 71.561-32.102 71.561-71.561c-.001-9.851-1.977-19.408-5.876-28.407z" />
    </g>
  </g>
</svg>
