<?xml version="1.0" encoding="UTF-8" standalone="no"?>
<svg
   xmlns:dc="http://purl.org/dc/elements/1.1/"
   xmlns:cc="http://creativecommons.org/ns#"
   xmlns:rdf="http://www.w3.org/1999/02/22-rdf-syntax-ns#"
   xmlns:svg="http://www.w3.org/2000/svg"
   xmlns="http://www.w3.org/2000/svg"
   xmlns:sodipodi="http://sodipodi.sourceforge.net/DTD/sodipodi-0.dtd"
   xmlns:inkscape="http://www.inkscape.org/namespaces/inkscape"
   inkscape:version="1.0 (4035a4fb49, 2020-05-01)"
   height="450"
   width="450"
   sodipodi:docname="not_viewed.svg"
   xml:space="preserve"
   viewBox="0 0 450.00001 450.00001"
   y="0px"
   x="0px"
   id="Capa_1"
   version="1.1"><metadata
   id="metadata49"><rdf:RDF><cc:Work
       rdf:about=""><dc:format>image/svg+xml</dc:format><dc:type
         rdf:resource="http://purl.org/dc/dcmitype/StillImage" /><dc:title></dc:title></cc:Work></rdf:RDF></metadata><defs
   id="defs47" /><sodipodi:namedview
   inkscape:current-layer="Capa_1"
   inkscape:window-maximized="1"
   inkscape:window-y="-8"
   inkscape:window-x="-8"
   inkscape:cy="162.86916"
   inkscape:cx="63.285328"
   inkscape:zoom="1.0970573"
   showgrid="false"
   id="namedview45"
   inkscape:window-height="1017"
   inkscape:window-width="1920"
   inkscape:pageshadow="2"
   inkscape:pageopacity="0"
   guidetolerance="10"
   gridtolerance="10"
   objecttolerance="10"
   borderopacity="1"
   bordercolor="#666666"
   pagecolor="#ffffff" />
<g
   transform="translate(35.549646,29.168941)"
   id="g6">
	<g
   id="g4">
		<path
   id="path2"
   d="M 193.7,0 C 86.9,0 0,86.9 0,193.7 0,300.5 86.9,387.4 193.7,387.4 300.5,387.4 387.4,300.5 387.4,193.7 387.4,86.9 300.5,0 193.7,0 Z m 0,367.4 C 97.9,367.4 20,289.5 20,193.7 20,97.9 97.9,20 193.7,20 c 95.8,0 173.7,77.9 173.7,173.7 0,95.8 -77.9,173.7 -173.7,173.7 z" />
	</g>
</g>
<g
   transform="translate(35.549646,29.168941)"
   id="g12">
	<g
   id="g10">
		<path
   id="path8"
   d="m 302.2,136.2 -29.4,-29.5 c -3.9,-3.9 -10.2,-3.9 -14.1,0 l -93.8,93.8 -36,-36 c -3.9,-3.9 -10.2,-3.9 -14.1,0 L 85.4,194 c -3.9,3.9 -3.9,10.2 0,14.1 l 72.6,72.6 c 3.9,3.9 10.2,3.9 14.1,0 L 302.2,150.3 c 3.9,-3.9 3.9,-10.2 0,-14.1 z m -137.4,123.3 -58.4,-58.4 15.3,-15.4 36,36 c 3.9,3.9 10.2,3.9 14.1,0 l 93.9,-93.8 15.3,15.3 z" />
	</g>
</g>
<g
   transform="translate(35.549646,29.168941)"
   id="g14">
</g>
<g
   transform="translate(35.549646,29.168941)"
   id="g16">
</g>
<g
   transform="translate(35.549646,29.168941)"
   id="g18">
</g>
<g
   transform="translate(35.549646,29.168941)"
   id="g20">
</g>
<g
   transform="translate(35.549646,29.168941)"
   id="g22">
</g>
<g
   transform="translate(35.549646,29.168941)"
   id="g24">
</g>
<g
   transform="translate(35.549646,29.168941)"
   id="g26">
</g>
<g
   transform="translate(35.549646,29.168941)"
   id="g28">
</g>
<g
   transform="translate(35.549646,29.168941)"
   id="g30">
</g>
<g
   transform="translate(35.549646,29.168941)"
   id="g32">
</g>
<g
   transform="translate(35.549646,29.168941)"
   id="g34">
</g>
<g
   transform="translate(35.549646,29.168941)"
   id="g36">
</g>
<g
   transform="translate(35.549646,29.168941)"
   id="g38">
</g>
<g
   transform="translate(35.549646,29.168941)"
   id="g40">
</g>
<g
   transform="translate(35.549646,29.168941)"
   id="g42">
</g>
</svg>
