<?xml version="1.0" encoding="UTF-8" standalone="no"?>
<svg
   xmlns:dc="http://purl.org/dc/elements/1.1/"
   xmlns:cc="http://creativecommons.org/ns#"
   xmlns:rdf="http://www.w3.org/1999/02/22-rdf-syntax-ns#"
   xmlns:svg="http://www.w3.org/2000/svg"
   xmlns="http://www.w3.org/2000/svg"
   xmlns:sodipodi="http://sodipodi.sourceforge.net/DTD/sodipodi-0.dtd"
   xmlns:inkscape="http://www.inkscape.org/namespaces/inkscape"
   inkscape:version="1.0 (4035a4fb49, 2020-05-01)"
   sodipodi:docname="rings.svg"
   id="svg1583"
   version="1.1"
   fill="#fff"
   viewBox="0 0 245.95119 245.95119"
   height="245.95119"
   width="245.95119">
  <metadata
     id="metadata1589">
    <rdf:RDF>
      <cc:Work
         rdf:about="">
        <dc:format>image/svg+xml</dc:format>
        <dc:type
           rdf:resource="http://purl.org/dc/dcmitype/StillImage" />
        <dc:title></dc:title>
      </cc:Work>
    </rdf:RDF>
  </metadata>
  <defs
     id="defs1587" />
  <sodipodi:namedview
     fit-margin-bottom="55"
     fit-margin-top="55"
     fit-margin-right="55"
     fit-margin-left="55"
     inkscape:current-layer="svg1583"
     inkscape:window-maximized="1"
     inkscape:window-y="-8"
     inkscape:window-x="-8"
     inkscape:cy="153.74761"
     inkscape:cx="122.67336"
     inkscape:zoom="3.1481481"
     showgrid="false"
     id="namedview1585"
     inkscape:window-height="1017"
     inkscape:window-width="1920"
     inkscape:pageshadow="2"
     inkscape:pageopacity="0"
     guidetolerance="10"
     gridtolerance="10"
     objecttolerance="10"
     borderopacity="1"
     bordercolor="#666666"
     pagecolor="#ffffff" />
  <path
     style="stroke:#13878f;stroke-opacity:1"
     id="path1579"
     d="m 122.94409,113.49709 c 5.523,0 10,-4.477 10,-10 0,-5.522998 -4.477,-9.999998 -10,-9.999998 -5.523,0 -10,4.477 -10,9.999998 0,5.523 4.477,10 10,10 z m 9.448,9.447 c 0,5.523 4.477,10 10,10 5.522,0 10,-4.477 10,-10 0,-5.523 -4.478,-10 -10,-10 -5.523,0 -10,4.477 -10,10 z m -9.448,9.448 c -5.523,0 -10,4.477 -10,10 0,5.522 4.477,10 10,10 5.523,0 10,-4.478 10,-10 0,-5.523 -4.477,-10 -10,-10 z m -9.447,-9.448 c 0,-5.523 -4.477,-10 -10,-10 -5.522998,0 -9.999998,4.477 -9.999998,10 0,5.523 4.477,10 9.999998,10 5.523,0 10,-4.477 10,-10 z">
    <animateTransform
       repeatCount="indefinite"
       dur="2.5s"
       to="-360 67 67"
       from="0 67 67"
       type="rotate"
       attributeName="transform" />
  </path>
  <path
     style="stroke:#13878f;stroke-opacity:1"
     id="path1581"
     d="m 83.687092,95.807092 c 6.627,0 12,-5.374 12,-12 0,-6.628 -5.373,-12 -12,-12 -6.628,0 -12,5.372 -12,12 0,6.626 5.372,12 12,12 z m 30.719998,-19.825 c 4.686,4.687 12.284,4.687 16.97,0 4.686,-4.686 4.686,-12.284 0,-16.97 -4.686,-4.687 -12.284,-4.687 -16.97,0 -4.687,4.686 -4.687,12.284 0,16.97 z m 35.74,7.705 c 0,6.627 5.37,12 12,12 6.626,0 12,-5.373 12,-12 0,-6.628 -5.374,-12 -12,-12 -6.63,0 -12,5.372 -12,12 z m 19.822,30.719998 c -4.686,4.686 -4.686,12.284 0,16.97 4.687,4.686 12.285,4.686 16.97,0 4.687,-4.686 4.687,-12.284 0,-16.97 -4.685,-4.687 -12.283,-4.687 -16.97,0 z m -7.704,35.74 c -6.627,0 -12,5.37 -12,12 0,6.626 5.373,12 12,12 6.627,0 12,-5.374 12,-12 0,-6.63 -5.373,-12 -12,-12 z m -30.72,19.822 c -4.686,-4.686 -12.284,-4.686 -16.97,0 -4.686,4.687 -4.686,12.285 0,16.97 4.686,4.687 12.284,4.687 16.97,0 4.687,-4.685 4.687,-12.283 0,-16.97 z m -35.739998,-7.704 c 0,-6.627 -5.372,-12 -12,-12 -6.626,0 -12,5.373 -12,12 0,6.627 5.374,12 12,12 6.628,0 12,-5.373 12,-12 z m -19.823,-30.72 c 4.687,-4.686 4.687,-12.284 0,-16.97 -4.686,-4.686 -12.284,-4.686 -16.97,0 -4.687,4.686 -4.687,12.284 0,16.97 4.686,4.687 12.284,4.687 16.97,0 z">
    <animateTransform
       repeatCount="indefinite"
       dur="8s"
       to="360 67 67"
       from="0 67 67"
       type="rotate"
       attributeName="transform" />
  </path>
</svg>
