<?xml version="1.0" encoding="UTF-8" standalone="no"?>
<svg
   xmlns:dc="http://purl.org/dc/elements/1.1/"
   xmlns:cc="http://creativecommons.org/ns#"
   xmlns:rdf="http://www.w3.org/1999/02/22-rdf-syntax-ns#"
   xmlns:svg="http://www.w3.org/2000/svg"
   xmlns="http://www.w3.org/2000/svg"
   xmlns:sodipodi="http://sodipodi.sourceforge.net/DTD/sodipodi-0.dtd"
   xmlns:inkscape="http://www.inkscape.org/namespaces/inkscape"
   inkscape:version="1.0 (4035a4fb49, 2020-05-01)"
   height="450"
   width="450"
   sodipodi:docname="viewed.svg"
   xml:space="preserve"
   viewBox="0 0 450.00001 450.00001"
   y="0px"
   x="0px"
   id="Capa_1"
   version="1.1"><metadata
   id="metadata43"><rdf:RDF><cc:Work
       rdf:about=""><dc:format>image/svg+xml</dc:format><dc:type
         rdf:resource="http://purl.org/dc/dcmitype/StillImage" /><dc:title></dc:title></cc:Work></rdf:RDF></metadata><defs
   id="defs41" /><sodipodi:namedview
   inkscape:current-layer="Capa_1"
   inkscape:window-maximized="1"
   inkscape:window-y="-8"
   inkscape:window-x="-8"
   inkscape:cy="266.92127"
   inkscape:cx="65.660793"
   inkscape:zoom="1.1555036"
   showgrid="false"
   id="namedview39"
   inkscape:window-height="1017"
   inkscape:window-width="1920"
   inkscape:pageshadow="2"
   inkscape:pageopacity="0"
   guidetolerance="10"
   gridtolerance="10"
   objecttolerance="10"
   borderopacity="1"
   bordercolor="#666666"
   pagecolor="#ffffff" />
<g
   transform="translate(46.73287,38.078635)"
   id="g6">
	<path
   id="path2"
   d="m 183.903,0.001 c 101.566,0 183.902,82.336 183.902,183.902 0,101.566 -82.336,183.902 -183.902,183.902 C 82.337,367.805 0.001,285.469 0.001,183.903 v 0 C -0.288,82.625 81.579,0.29 182.856,0.001 183.205,0 183.554,0 183.903,0.001 Z"
   style="fill:#3bb54a" />
	<polygon
   id="polygon4"
   points="111.805,161.96 155.168,204.801 256.001,103.968 285.78,133.225 155.168,263.837 82.025,191.217 "
   style="fill:#d4e1f4" />
</g>
<g
   transform="translate(46.73287,38.078635)"
   id="g8">
</g>
<g
   transform="translate(46.73287,38.078635)"
   id="g10">
</g>
<g
   transform="translate(46.73287,38.078635)"
   id="g12">
</g>
<g
   transform="translate(46.73287,38.078635)"
   id="g14">
</g>
<g
   transform="translate(46.73287,38.078635)"
   id="g16">
</g>
<g
   transform="translate(46.73287,38.078635)"
   id="g18">
</g>
<g
   transform="translate(46.73287,38.078635)"
   id="g20">
</g>
<g
   transform="translate(46.73287,38.078635)"
   id="g22">
</g>
<g
   transform="translate(46.73287,38.078635)"
   id="g24">
</g>
<g
   transform="translate(46.73287,38.078635)"
   id="g26">
</g>
<g
   transform="translate(46.73287,38.078635)"
   id="g28">
</g>
<g
   transform="translate(46.73287,38.078635)"
   id="g30">
</g>
<g
   transform="translate(46.73287,38.078635)"
   id="g32">
</g>
<g
   transform="translate(46.73287,38.078635)"
   id="g34">
</g>
<g
   transform="translate(46.73287,38.078635)"
   id="g36">
</g>
</svg>
